<ttFont>
    <TTGlyph name="A" xMin="18" yMin="0" xMax="614" yMax="728">
      <contour>
        <pt x="614" y="0" on="1"/>
        <pt x="511" y="0" on="1"/>
        <pt x="427" y="250" on="1"/>
        <pt x="187" y="250" on="1"/>
        <pt x="102" y="0" on="1"/>
        <pt x="18" y="0" on="1"/>
        <pt x="271" y="728" on="1"/>
        <pt x="362" y="728" on="1"/>
      </contour>
      <contour>
        <pt x="404" y="318" on="1"/>
        <pt x="308" y="606" on="1"/>
        <pt x="210" y="318" on="1"/>
      </contour>
    </TTGlyph>
    <TTGlyph name="AE" xMin="12" yMin="0" xMax="747" yMax="728">
      <contour>
        <pt x="747" y="0" on="1"/>
        <pt x="390" y="0" on="1"/>
        <pt x="390" y="248" on="1"/>
        <pt x="211" y="248" on="1"/>
        <pt x="97" y="0" on="1"/>
        <pt x="12" y="0" on="1"/>
        <pt x="313" y="663" on="1"/>
        <pt x="299" y="728" on="1"/>
        <pt x="747" y="728" on="1"/>
        <pt x="747" y="660" on="1"/>
        <pt x="482" y="660" on="1"/>
        <pt x="482" y="410" on="1"/>
        <pt x="716" y="410" on="1"/>
        <pt x="716" y="338" on="1"/>
        <pt x="482" y="338" on="1"/>
        <pt x="482" y="71" on="1"/>
        <pt x="747" y="71" on="1"/>
      </contour>
      <contour>
        <pt x="390" y="320" on="1"/>
        <pt x="390" y="641" on="1"/>
        <pt x="243" y="320" on="1"/>
      </contour>
    </TTGlyph>
    <TTGlyph name="Aacute" xMin="23" yMin="0" xMax="619" yMax="868">
      <contour>
        <pt x="619" y="0" on="1"/>
        <pt x="516" y="0" on="1"/>
        <pt x="434" y="227" on="1"/>
        <pt x="191" y="227" on="1"/>
        <pt x="107" y="0" on="1"/>
        <pt x="23" y="0" on="1"/>
        <pt x="276" y="670" on="1"/>
        <pt x="367" y="670" on="1"/>
      </contour>
      <contour>
        <pt x="409" y="295" on="1"/>
        <pt x="313" y="555" on="1"/>
        <pt x="217" y="295" on="1"/>
      </contour>
      <contour>
        <pt x="354" y="716" on="1"/>
        <pt x="276" y="716" on="1"/>
        <pt x="372" y="868" on="1"/>
        <pt x="494" y="868" on="1"/>
      </contour>
    </TTGlyph>
    <TTGlyph name="Acircumflex" xMin="18" yMin="0" xMax="614" yMax="851">
      <contour>
        <pt x="614" y="0" on="1"/>
        <pt x="511" y="0" on="1"/>
        <pt x="429" y="227" on="1"/>
        <pt x="186" y="227" on="1"/>
        <pt x="102" y="0" on="1"/>
        <pt x="18" y="0" on="1"/>
        <pt x="271" y="670" on="1"/>
        <pt x="362" y="670" on="1"/>
      </contour>
      <contour>
        <pt x="404" y="295" on="1"/>
        <pt x="308" y="555" on="1"/>
        <pt x="212" y="295" on="1"/>
      </contour>
      <contour>
        <pt x="462" y="696" on="1"/>
        <pt x="393" y="696" on="1"/>
        <pt x="314" y="778" on="1"/>
        <pt x="238" y="697" on="1"/>
        <pt x="171" y="697" on="1"/>
        <pt x="273" y="851" on="1"/>
        <pt x="356" y="851" on="1"/>
      </contour>
    </TTGlyph>
    <TTGlyph name="Adieresis" xMin="18" yMin="0" xMax="614" yMax="831">
      <contour>
        <pt x="614" y="0" on="1"/>
        <pt x="511" y="0" on="1"/>
        <pt x="429" y="227" on="1"/>
        <pt x="186" y="227" on="1"/>
        <pt x="102" y="0" on="1"/>
        <pt x="18" y="0" on="1"/>
        <pt x="271" y="670" on="1"/>
        <pt x="362" y="670" on="1"/>
      </contour>
      <contour>
        <pt x="404" y="295" on="1"/>
        <pt x="308" y="555" on="1"/>
        <pt x="212" y="295" on="1"/>
      </contour>
      <contour>
        <pt x="457" y="774" on="1"/>
        <pt x="457" y="751" on="0"/>
        <pt x="423" y="717" on="0"/>
        <pt x="400" y="717" on="1"/>
        <pt x="377" y="717" on="0"/>
        <pt x="344" y="751" on="0"/>
        <pt x="344" y="797" on="0"/>
        <pt x="377" y="831" on="0"/>
        <pt x="400" y="831" on="1"/>
        <pt x="424" y="831" on="0"/>
        <pt x="457" y="798" on="0"/>
      </contour>
      <contour>
        <pt x="294" y="774" on="1"/>
        <pt x="294" y="751" on="0"/>
        <pt x="260" y="717" on="0"/>
        <pt x="237" y="717" on="1"/>
        <pt x="214" y="717" on="0"/>
        <pt x="181" y="751" on="0"/>
        <pt x="181" y="797" on="0"/>
        <pt x="214" y="831" on="0"/>
        <pt x="237" y="831" on="1"/>
        <pt x="261" y="831" on="0"/>
        <pt x="294" y="798" on="0"/>
      </contour>
    </TTGlyph>
    <TTGlyph name="Agrave" xMin="18" yMin="0" xMax="614" yMax="873">
      <contour>
        <pt x="614" y="0" on="1"/>
        <pt x="511" y="0" on="1"/>
        <pt x="429" y="227" on="1"/>
        <pt x="186" y="227" on="1"/>
        <pt x="102" y="0" on="1"/>
        <pt x="18" y="0" on="1"/>
        <pt x="271" y="670" on="1"/>
        <pt x="362" y="670" on="1"/>
      </contour>
      <contour>
        <pt x="404" y="295" on="1"/>
        <pt x="308" y="555" on="1"/>
        <pt x="212" y="295" on="1"/>
      </contour>
      <contour>
        <pt x="373" y="721" on="1"/>
        <pt x="295" y="721" on="1"/>
        <pt x="155" y="873" on="1"/>
        <pt x="278" y="873" on="1"/>
      </contour>
    </TTGlyph>
    <TTGlyph name="Aring" xMin="18" yMin="0" xMax="614" yMax="834">
      <contour>
        <pt x="614" y="0" on="1"/>
        <pt x="511" y="0" on="1"/>
        <pt x="429" y="226" on="1"/>
        <pt x="186" y="226" on="1"/>
        <pt x="102" y="0" on="1"/>
        <pt x="18" y="0" on="1"/>
        <pt x="263" y="650" on="1"/>
        <pt x="241" y="663" on="0"/>
        <pt x="215" y="709" on="0"/>
        <pt x="215" y="735" on="1"/>
        <pt x="215" y="776" on="0"/>
        <pt x="273" y="834" on="0"/>
        <pt x="314" y="834" on="1"/>
        <pt x="355" y="834" on="0"/>
        <pt x="411" y="776" on="0"/>
        <pt x="411" y="735" on="1"/>
        <pt x="411" y="679" on="0"/>
        <pt x="368" y="653" on="1"/>
      </contour>
      <contour>
        <pt x="361" y="735" on="1"/>
        <pt x="361" y="754" on="0"/>
        <pt x="332" y="783" on="0"/>
        <pt x="313" y="783" on="1"/>
        <pt x="294" y="783" on="0"/>
        <pt x="265" y="754" on="0"/>
        <pt x="265" y="716" on="0"/>
        <pt x="294" y="687" on="0"/>
        <pt x="313" y="687" on="1"/>
        <pt x="333" y="687" on="0"/>
        <pt x="361" y="715" on="0"/>
      </contour>
      <contour>
        <pt x="404" y="294" on="1"/>
        <pt x="308" y="554" on="1"/>
        <pt x="212" y="294" on="1"/>
      </contour>
    </TTGlyph>
    <TTGlyph name="Atilde" xMin="18" yMin="0" xMax="614" yMax="813">
      <contour>
        <pt x="435" y="800" on="1"/>
        <pt x="483" y="800" on="1"/>
        <pt x="479" y="762" on="0"/>
        <pt x="434" y="701" on="0"/>
        <pt x="398" y="701" on="1"/>
        <pt x="370" y="701" on="0"/>
        <pt x="274" y="740" on="0"/>
        <pt x="248" y="740" on="1"/>
        <pt x="237" y="740" on="0"/>
        <pt x="218" y="724" on="0"/>
        <pt x="215" y="713" on="1"/>
        <pt x="165" y="713" on="1"/>
        <pt x="171" y="753" on="0"/>
        <pt x="221" y="813" on="0"/>
        <pt x="259" y="813" on="1"/>
        <pt x="288" y="813" on="0"/>
        <pt x="382" y="774" on="0"/>
        <pt x="400" y="774" on="1"/>
        <pt x="426" y="774" on="0"/>
      </contour>
      <contour>
        <pt x="614" y="0" on="1"/>
        <pt x="511" y="0" on="1"/>
        <pt x="429" y="227" on="1"/>
        <pt x="186" y="227" on="1"/>
        <pt x="102" y="0" on="1"/>
        <pt x="18" y="0" on="1"/>
        <pt x="271" y="670" on="1"/>
        <pt x="362" y="670" on="1"/>
      </contour>
      <contour>
        <pt x="404" y="295" on="1"/>
        <pt x="308" y="555" on="1"/>
        <pt x="212" y="295" on="1"/>
      </contour>
    </TTGlyph>
    <TTGlyph name="B" xMin="71" yMin="0" xMax="568" yMax="728">
      <contour>
        <pt x="283" y="0" on="1"/>
        <pt x="85" y="0" on="1"/>
        <pt x="85" y="662" on="1"/>
        <pt x="85" y="663" on="0"/>
        <pt x="78" y="693" on="0"/>
        <pt x="71" y="726" on="0"/>
        <pt x="71" y="728" on="1"/>
        <pt x="314" y="728" on="1"/>
        <pt x="535" y="728" on="0"/>
        <pt x="535" y="559" on="1"/>
        <pt x="535" y="500" on="0"/>
        <pt x="468" y="407" on="0"/>
        <pt x="412" y="397" on="1"/>
        <pt x="485" y="386" on="0"/>
        <pt x="568" y="279" on="0"/>
        <pt x="568" y="204" on="1"/>
        <pt x="568" y="142" on="0"/>
        <pt x="521" y="57" on="0"/>
        <pt x="434" y="16" on="0"/>
        <pt x="343" y="0" on="0"/>
      </contour>
      <contour>
        <pt x="178" y="427" on="1"/>
        <pt x="285" y="427" on="1"/>
        <pt x="359" y="427" on="0"/>
        <pt x="438" y="487" on="0"/>
        <pt x="438" y="557" on="1"/>
        <pt x="438" y="659" on="0"/>
        <pt x="311" y="659" on="1"/>
        <pt x="178" y="659" on="1"/>
      </contour>
      <contour>
        <pt x="178" y="69" on="1"/>
        <pt x="289" y="69" on="1"/>
        <pt x="376" y="69" on="0"/>
        <pt x="469" y="135" on="0"/>
        <pt x="469" y="219" on="1"/>
        <pt x="469" y="290" on="0"/>
        <pt x="364" y="358" on="0"/>
        <pt x="289" y="358" on="1"/>
        <pt x="178" y="358" on="1"/>
      </contour>
    </TTGlyph>
    <TTGlyph name="C" xMin="46" yMin="-12" xMax="607" yMax="738">
      <contour>
        <pt x="564" y="125" on="1"/>
        <pt x="607" y="58" on="1"/>
        <pt x="567" y="25" on="0"/>
        <pt x="442" y="-12" on="0"/>
        <pt x="385" y="-12" on="1"/>
        <pt x="227" y="-12" on="0"/>
        <pt x="46" y="206" on="0"/>
        <pt x="46" y="366" on="1"/>
        <pt x="46" y="528" on="0"/>
        <pt x="228" y="738" on="0"/>
        <pt x="387" y="738" on="1"/>
        <pt x="446" y="738" on="0"/>
        <pt x="571" y="697" on="0"/>
        <pt x="605" y="659" on="1"/>
        <pt x="553" y="601" on="1"/>
        <pt x="525" y="632" on="0"/>
        <pt x="429" y="668" on="0"/>
        <pt x="385" y="668" on="1"/>
        <pt x="323" y="668" on="0"/>
        <pt x="229" y="615" on="0"/>
        <pt x="175" y="524" on="0"/>
        <pt x="148" y="419" on="0"/>
        <pt x="148" y="360" on="1"/>
        <pt x="148" y="300" on="0"/>
        <pt x="175" y="196" on="0"/>
        <pt x="230" y="112" on="0"/>
        <pt x="325" y="63" on="0"/>
        <pt x="387" y="63" on="1"/>
        <pt x="432" y="63" on="0"/>
        <pt x="531" y="97" on="0"/>
      </contour>
    </TTGlyph>
    <TTGlyph name="Ccedilla" xMin="46" yMin="-220" xMax="607" yMax="738">
      <contour>
        <pt x="265" y="-192" on="1"/>
        <pt x="290" y="-146" on="1"/>
        <pt x="330" y="-169" on="0"/>
        <pt x="354" y="-169" on="1"/>
        <pt x="371" y="-169" on="0"/>
        <pt x="398" y="-147" on="0"/>
        <pt x="398" y="-130" on="1"/>
        <pt x="398" y="-114" on="0"/>
        <pt x="377" y="-95" on="0"/>
        <pt x="360" y="-95" on="1"/>
        <pt x="312" y="-95" on="1"/>
        <pt x="297" y="-95" on="0"/>
        <pt x="297" y="-83" on="1"/>
        <pt x="297" y="-81" on="0"/>
        <pt x="299" y="-77" on="1"/>
        <pt x="337" y="-9" on="1"/>
        <pt x="200" y="8" on="0"/>
        <pt x="46" y="219" on="0"/>
        <pt x="46" y="366" on="1"/>
        <pt x="46" y="528" on="0"/>
        <pt x="228" y="738" on="0"/>
        <pt x="387" y="738" on="1"/>
        <pt x="446" y="738" on="0"/>
        <pt x="571" y="697" on="0"/>
        <pt x="605" y="659" on="1"/>
        <pt x="553" y="601" on="1"/>
        <pt x="525" y="632" on="0"/>
        <pt x="429" y="668" on="0"/>
        <pt x="385" y="668" on="1"/>
        <pt x="323" y="668" on="0"/>
        <pt x="229" y="615" on="0"/>
        <pt x="175" y="524" on="0"/>
        <pt x="148" y="419" on="0"/>
        <pt x="148" y="360" on="1"/>
        <pt x="148" y="300" on="0"/>
        <pt x="175" y="196" on="0"/>
        <pt x="230" y="112" on="0"/>
        <pt x="325" y="63" on="0"/>
        <pt x="387" y="63" on="1"/>
        <pt x="432" y="63" on="0"/>
        <pt x="531" y="97" on="0"/>
        <pt x="564" y="125" on="1"/>
        <pt x="607" y="58" on="1"/>
        <pt x="567" y="25" on="0"/>
        <pt x="441" y="-12" on="0"/>
        <pt x="383" y="-12" on="1"/>
        <pt x="365" y="-46" on="1"/>
        <pt x="377" y="-46" on="1"/>
        <pt x="418" y="-46" on="0"/>
        <pt x="481" y="-86" on="0"/>
        <pt x="481" y="-127" on="1"/>
        <pt x="481" y="-220" on="0"/>
        <pt x="351" y="-220" on="1"/>
        <pt x="309" y="-220" on="0"/>
      </contour>
    </TTGlyph>
    <TTGlyph name="D" xMin="72" yMin="0" xMax="653" yMax="728">
      <contour>
        <pt x="323" y="0" on="1"/>
        <pt x="86" y="0" on="1"/>
        <pt x="86" y="662" on="1"/>
        <pt x="86" y="663" on="0"/>
        <pt x="79" y="693" on="0"/>
        <pt x="72" y="726" on="0"/>
        <pt x="72" y="728" on="1"/>
        <pt x="259" y="728" on="1"/>
        <pt x="653" y="728" on="0"/>
        <pt x="653" y="362" on="1"/>
        <pt x="653" y="198" on="0"/>
        <pt x="486" y="0" on="0"/>
      </contour>
      <contour>
        <pt x="179" y="69" on="1"/>
        <pt x="311" y="69" on="1"/>
        <pt x="439" y="69" on="0"/>
        <pt x="556" y="231" on="0"/>
        <pt x="556" y="364" on="1"/>
        <pt x="556" y="519" on="0"/>
        <pt x="405" y="659" on="0"/>
        <pt x="252" y="659" on="1"/>
        <pt x="179" y="659" on="1"/>
      </contour>
    </TTGlyph>
    <TTGlyph name="Delta" xMin="15" yMin="0" xMax="614" yMax="723">
      <contour>
        <pt x="614" y="0" on="1"/>
        <pt x="15" y="0" on="1"/>
        <pt x="15" y="53" on="1"/>
        <pt x="102" y="277" on="0"/>
        <pt x="276" y="723" on="1"/>
        <pt x="354" y="723" on="1"/>
        <pt x="528" y="277" on="0"/>
        <pt x="614" y="53" on="1"/>
      </contour>
      <contour>
        <pt x="97" y="66" on="1"/>
        <pt x="499" y="66" on="1"/>
        <pt x="485" y="103" on="0"/>
        <pt x="363" y="419" on="0"/>
        <pt x="334" y="496" on="1"/>
        <pt x="327" y="516" on="0"/>
        <pt x="303" y="593" on="0"/>
        <pt x="299" y="605" on="1"/>
      </contour>
    </TTGlyph>
    <TTGlyph name="E" xMin="72" yMin="0" xMax="509" yMax="728">
      <contour>
        <pt x="509" y="0" on="1"/>
        <pt x="86" y="0" on="1"/>
        <pt x="86" y="662" on="1"/>
        <pt x="86" y="663" on="0"/>
        <pt x="79" y="693" on="0"/>
        <pt x="72" y="726" on="0"/>
        <pt x="72" y="728" on="1"/>
        <pt x="509" y="728" on="1"/>
        <pt x="509" y="659" on="1"/>
        <pt x="179" y="659" on="1"/>
        <pt x="179" y="408" on="1"/>
        <pt x="435" y="408" on="1"/>
        <pt x="435" y="340" on="1"/>
        <pt x="179" y="340" on="1"/>
        <pt x="179" y="69" on="1"/>
        <pt x="509" y="69" on="1"/>
      </contour>
    </TTGlyph>
    <TTGlyph name="Eacute" xMin="72" yMin="0" xMax="509" yMax="869">
      <contour>
        <pt x="509" y="0" on="1"/>
        <pt x="86" y="0" on="1"/>
        <pt x="86" y="603" on="1"/>
        <pt x="86" y="604" on="0"/>
        <pt x="79" y="634" on="0"/>
        <pt x="72" y="666" on="0"/>
        <pt x="72" y="668" on="1"/>
        <pt x="509" y="668" on="1"/>
        <pt x="509" y="600" on="1"/>
        <pt x="180" y="600" on="1"/>
        <pt x="180" y="376" on="1"/>
        <pt x="435" y="376" on="1"/>
        <pt x="435" y="306" on="1"/>
        <pt x="180" y="306" on="1"/>
        <pt x="180" y="69" on="1"/>
        <pt x="509" y="69" on="1"/>
      </contour>
      <contour>
        <pt x="337" y="717" on="1"/>
        <pt x="259" y="717" on="1"/>
        <pt x="355" y="869" on="1"/>
        <pt x="477" y="869" on="1"/>
      </contour>
    </TTGlyph>
    <TTGlyph name="Ecircumflex" xMin="72" yMin="0" xMax="509" yMax="851">
      <contour>
        <pt x="509" y="0" on="1"/>
        <pt x="86" y="0" on="1"/>
        <pt x="86" y="604" on="1"/>
        <pt x="86" y="605" on="0"/>
        <pt x="79" y="635" on="0"/>
        <pt x="72" y="667" on="0"/>
        <pt x="72" y="669" on="1"/>
        <pt x="509" y="669" on="1"/>
        <pt x="509" y="601" on="1"/>
        <pt x="180" y="601" on="1"/>
        <pt x="180" y="377" on="1"/>
        <pt x="435" y="377" on="1"/>
        <pt x="435" y="307" on="1"/>
        <pt x="180" y="307" on="1"/>
        <pt x="180" y="69" on="1"/>
        <pt x="509" y="69" on="1"/>
      </contour>
      <contour>
        <pt x="446" y="696" on="1"/>
        <pt x="377" y="696" on="1"/>
        <pt x="298" y="778" on="1"/>
        <pt x="222" y="697" on="1"/>
        <pt x="155" y="697" on="1"/>
        <pt x="257" y="851" on="1"/>
        <pt x="340" y="851" on="1"/>
      </contour>
    </TTGlyph>
    <TTGlyph name="Edieresis" xMin="70" yMin="0" xMax="507" yMax="835">
      <contour>
        <pt x="507" y="0" on="1"/>
        <pt x="84" y="0" on="1"/>
        <pt x="84" y="604" on="1"/>
        <pt x="84" y="605" on="0"/>
        <pt x="77" y="635" on="0"/>
        <pt x="70" y="667" on="0"/>
        <pt x="70" y="669" on="1"/>
        <pt x="507" y="669" on="1"/>
        <pt x="507" y="601" on="1"/>
        <pt x="178" y="601" on="1"/>
        <pt x="178" y="377" on="1"/>
        <pt x="433" y="377" on="1"/>
        <pt x="433" y="307" on="1"/>
        <pt x="178" y="307" on="1"/>
        <pt x="178" y="69" on="1"/>
        <pt x="507" y="69" on="1"/>
      </contour>
      <contour>
        <pt x="442" y="778" on="1"/>
        <pt x="442" y="755" on="0"/>
        <pt x="408" y="721" on="0"/>
        <pt x="385" y="721" on="1"/>
        <pt x="362" y="721" on="0"/>
        <pt x="329" y="755" on="0"/>
        <pt x="329" y="801" on="0"/>
        <pt x="362" y="835" on="0"/>
        <pt x="385" y="835" on="1"/>
        <pt x="409" y="835" on="0"/>
        <pt x="442" y="802" on="0"/>
      </contour>
      <contour>
        <pt x="279" y="778" on="1"/>
        <pt x="279" y="755" on="0"/>
        <pt x="245" y="721" on="0"/>
        <pt x="222" y="721" on="1"/>
        <pt x="199" y="721" on="0"/>
        <pt x="166" y="755" on="0"/>
        <pt x="166" y="801" on="0"/>
        <pt x="199" y="835" on="0"/>
        <pt x="222" y="835" on="1"/>
        <pt x="246" y="835" on="0"/>
        <pt x="279" y="802" on="0"/>
      </contour>
    </TTGlyph>
    <TTGlyph name="Egrave" xMin="72" yMin="0" xMax="509" yMax="873">
      <contour>
        <pt x="509" y="0" on="1"/>
        <pt x="86" y="0" on="1"/>
        <pt x="86" y="603" on="1"/>
        <pt x="86" y="604" on="0"/>
        <pt x="79" y="634" on="0"/>
        <pt x="72" y="666" on="0"/>
        <pt x="72" y="668" on="1"/>
        <pt x="509" y="668" on="1"/>
        <pt x="509" y="600" on="1"/>
        <pt x="180" y="600" on="1"/>
        <pt x="180" y="376" on="1"/>
        <pt x="435" y="376" on="1"/>
        <pt x="435" y="306" on="1"/>
        <pt x="180" y="306" on="1"/>
        <pt x="180" y="69" on="1"/>
        <pt x="509" y="69" on="1"/>
      </contour>
      <contour>
        <pt x="347" y="721" on="1"/>
        <pt x="269" y="721" on="1"/>
        <pt x="129" y="873" on="1"/>
        <pt x="252" y="873" on="1"/>
      </contour>
    </TTGlyph>
    <TTGlyph name="Eth" xMin="8" yMin="0" xMax="656" yMax="728">
      <contour>
        <pt x="326" y="0" on="1"/>
        <pt x="89" y="0" on="1"/>
        <pt x="89" y="331" on="1"/>
        <pt x="8" y="331" on="1"/>
        <pt x="8" y="395" on="1"/>
        <pt x="89" y="395" on="1"/>
        <pt x="89" y="662" on="1"/>
        <pt x="89" y="663" on="0"/>
        <pt x="82" y="693" on="0"/>
        <pt x="75" y="726" on="0"/>
        <pt x="75" y="728" on="1"/>
        <pt x="262" y="728" on="1"/>
        <pt x="656" y="728" on="0"/>
        <pt x="656" y="362" on="1"/>
        <pt x="656" y="198" on="0"/>
        <pt x="489" y="0" on="0"/>
      </contour>
      <contour>
        <pt x="182" y="69" on="1"/>
        <pt x="314" y="69" on="1"/>
        <pt x="442" y="69" on="0"/>
        <pt x="559" y="231" on="0"/>
        <pt x="559" y="364" on="1"/>
        <pt x="559" y="519" on="0"/>
        <pt x="408" y="659" on="0"/>
        <pt x="255" y="659" on="1"/>
        <pt x="182" y="659" on="1"/>
        <pt x="182" y="395" on="1"/>
        <pt x="337" y="395" on="1"/>
        <pt x="337" y="331" on="1"/>
        <pt x="182" y="331" on="1"/>
      </contour>
    </TTGlyph>
    <TTGlyph name="Euro" xMin="13" yMin="-10" xMax="470" yMax="518">
      <contour>
        <pt x="448" y="73" on="1"/>
        <pt x="470" y="10" on="1"/>
        <pt x="416" y="-10" on="0"/>
        <pt x="358" y="-10" on="1"/>
        <pt x="258" y="-10" on="0"/>
        <pt x="128" y="92" on="0"/>
        <pt x="108" y="177" on="1"/>
        <pt x="13" y="177" on="1"/>
        <pt x="22" y="219" on="1"/>
        <pt x="101" y="219" on="1"/>
        <pt x="99" y="231" on="0"/>
        <pt x="99" y="255" on="1"/>
        <pt x="99" y="276" on="0"/>
        <pt x="100" y="286" on="1"/>
        <pt x="37" y="286" on="1"/>
        <pt x="46" y="328" on="1"/>
        <pt x="106" y="328" on="1"/>
        <pt x="126" y="414" on="0"/>
        <pt x="256" y="518" on="0"/>
        <pt x="356" y="518" on="1"/>
        <pt x="408" y="518" on="0"/>
        <pt x="462" y="501" on="1"/>
        <pt x="447" y="436" on="1"/>
        <pt x="408" y="456" on="0"/>
        <pt x="356" y="456" on="1"/>
        <pt x="289" y="456" on="0"/>
        <pt x="210" y="386" on="0"/>
        <pt x="195" y="328" on="1"/>
        <pt x="423" y="328" on="1"/>
        <pt x="414" y="286" on="1"/>
        <pt x="187" y="286" on="1"/>
        <pt x="186" y="265" on="0"/>
        <pt x="186" y="254" on="1"/>
        <pt x="186" y="241" on="0"/>
        <pt x="188" y="219" on="1"/>
        <pt x="399" y="219" on="1"/>
        <pt x="390" y="177" on="1"/>
        <pt x="197" y="177" on="1"/>
        <pt x="213" y="121" on="0"/>
        <pt x="295" y="54" on="0"/>
        <pt x="360" y="54" on="1"/>
        <pt x="409" y="54" on="0"/>
      </contour>
    </TTGlyph>
    <TTGlyph name="F" xMin="72" yMin="0" xMax="475" yMax="728">
      <contour>
        <pt x="179" y="0" on="1"/>
        <pt x="86" y="0" on="1"/>
        <pt x="86" y="662" on="1"/>
        <pt x="86" y="663" on="0"/>
        <pt x="79" y="693" on="0"/>
        <pt x="72" y="726" on="0"/>
        <pt x="72" y="728" on="1"/>
        <pt x="475" y="728" on="1"/>
        <pt x="475" y="659" on="1"/>
        <pt x="179" y="659" on="1"/>
        <pt x="179" y="408" on="1"/>
        <pt x="414" y="408" on="1"/>
        <pt x="414" y="340" on="1"/>
        <pt x="179" y="340" on="1"/>
      </contour>
    </TTGlyph>
    <TTGlyph name="G" xMin="47" yMin="-12" xMax="651" yMax="738">
      <contour>
        <pt x="651" y="0" on="1"/>
        <pt x="601" y="0" on="1"/>
        <pt x="569" y="76" on="1"/>
        <pt x="487" y="-12" on="0"/>
        <pt x="359" y="-12" on="1"/>
        <pt x="283" y="-12" on="0"/>
        <pt x="161" y="48" on="0"/>
        <pt x="86" y="150" on="0"/>
        <pt x="47" y="281" on="0"/>
        <pt x="47" y="355" on="1"/>
        <pt x="47" y="523" on="0"/>
        <pt x="222" y="738" on="0"/>
        <pt x="385" y="738" on="1"/>
        <pt x="449" y="738" on="0"/>
        <pt x="585" y="696" on="0"/>
        <pt x="624" y="655" on="1"/>
        <pt x="571" y="593" on="1"/>
        <pt x="520" y="634" on="0"/>
        <pt x="444" y="666" on="0"/>
        <pt x="385" y="666" on="1"/>
        <pt x="322" y="666" on="0"/>
        <pt x="226" y="616" on="0"/>
        <pt x="172" y="529" on="0"/>
        <pt x="145" y="424" on="0"/>
        <pt x="145" y="364" on="1"/>
        <pt x="145" y="306" on="0"/>
        <pt x="170" y="203" on="0"/>
        <pt x="222" y="114" on="0"/>
        <pt x="314" y="62" on="0"/>
        <pt x="375" y="62" on="1"/>
        <pt x="453" y="62" on="0"/>
        <pt x="548" y="163" on="0"/>
        <pt x="548" y="241" on="1"/>
        <pt x="548" y="307" on="1"/>
        <pt x="369" y="307" on="1"/>
        <pt x="381" y="375" on="1"/>
        <pt x="642" y="375" on="1"/>
        <pt x="642" y="166" on="1"/>
        <pt x="642" y="165" on="0"/>
      </contour>
    </TTGlyph>
    <TTGlyph name="H" xMin="73" yMin="0" xMax="627" yMax="728">
      <contour>
        <pt x="627" y="0" on="1"/>
        <pt x="534" y="0" on="1"/>
        <pt x="534" y="344" on="1"/>
        <pt x="180" y="344" on="1"/>
        <pt x="180" y="0" on="1"/>
        <pt x="87" y="0" on="1"/>
        <pt x="87" y="662" on="1"/>
        <pt x="87" y="663" on="0"/>
        <pt x="80" y="693" on="0"/>
        <pt x="73" y="726" on="0"/>
        <pt x="73" y="728" on="1"/>
        <pt x="180" y="728" on="1"/>
        <pt x="180" y="412" on="1"/>
        <pt x="534" y="412" on="1"/>
        <pt x="534" y="728" on="1"/>
        <pt x="627" y="728" on="1"/>
      </contour>
    </TTGlyph>
    <TTGlyph name="I" xMin="73" yMin="0" xMax="180" yMax="728">
      <contour>
        <pt x="180" y="0" on="1"/>
        <pt x="87" y="0" on="1"/>
        <pt x="87" y="662" on="1"/>
        <pt x="87" y="663" on="0"/>
        <pt x="80" y="693" on="0"/>
        <pt x="73" y="726" on="0"/>
        <pt x="73" y="728" on="1"/>
        <pt x="180" y="728" on="1"/>
      </contour>
    </TTGlyph>
    <TTGlyph name="Iacute" xMin="70" yMin="0" xMax="288" yMax="868">
      <contour>
        <pt x="180" y="0" on="1"/>
        <pt x="86" y="0" on="1"/>
        <pt x="86" y="603" on="1"/>
        <pt x="71" y="669" on="1"/>
        <pt x="180" y="669" on="1"/>
      </contour>
      <contour>
        <pt x="148" y="716" on="1"/>
        <pt x="70" y="716" on="1"/>
        <pt x="166" y="868" on="1"/>
        <pt x="288" y="868" on="1"/>
      </contour>
    </TTGlyph>
    <TTGlyph name="Icircumflex" xMin="-14" yMin="0" xMax="277" yMax="851">
      <contour>
        <pt x="181" y="0" on="1"/>
        <pt x="86" y="0" on="1"/>
        <pt x="86" y="602" on="1"/>
        <pt x="71" y="668" on="1"/>
        <pt x="181" y="668" on="1"/>
      </contour>
      <contour>
        <pt x="277" y="696" on="1"/>
        <pt x="208" y="696" on="1"/>
        <pt x="129" y="778" on="1"/>
        <pt x="53" y="697" on="1"/>
        <pt x="-14" y="697" on="1"/>
        <pt x="88" y="851" on="1"/>
        <pt x="171" y="851" on="1"/>
      </contour>
    </TTGlyph>
    <TTGlyph name="Idieresis" xMin="-6" yMin="0" xMax="270" yMax="835">
      <contour>
        <pt x="180" y="0" on="1"/>
        <pt x="85" y="0" on="1"/>
        <pt x="85" y="602" on="1"/>
        <pt x="85" y="603" on="0"/>
        <pt x="78" y="633" on="0"/>
        <pt x="71" y="666" on="0"/>
        <pt x="71" y="668" on="1"/>
        <pt x="180" y="668" on="1"/>
      </contour>
      <contour>
        <pt x="270" y="778" on="1"/>
        <pt x="270" y="755" on="0"/>
        <pt x="236" y="721" on="0"/>
        <pt x="213" y="721" on="1"/>
        <pt x="190" y="721" on="0"/>
        <pt x="157" y="755" on="0"/>
        <pt x="157" y="801" on="0"/>
        <pt x="190" y="835" on="0"/>
        <pt x="213" y="835" on="1"/>
        <pt x="237" y="835" on="0"/>
        <pt x="270" y="802" on="0"/>
      </contour>
      <contour>
        <pt x="107" y="778" on="1"/>
        <pt x="107" y="755" on="0"/>
        <pt x="73" y="721" on="0"/>
        <pt x="50" y="721" on="1"/>
        <pt x="27" y="721" on="0"/>
        <pt x="-6" y="755" on="0"/>
        <pt x="-6" y="801" on="0"/>
        <pt x="27" y="835" on="0"/>
        <pt x="50" y="835" on="1"/>
        <pt x="74" y="835" on="0"/>
        <pt x="107" y="802" on="0"/>
      </contour>
    </TTGlyph>
    <TTGlyph name="Igrave" xMin="-37" yMin="0" xMax="181" yMax="871">
      <contour>
        <pt x="181" y="0" on="1"/>
        <pt x="86" y="0" on="1"/>
        <pt x="86" y="602" on="1"/>
        <pt x="86" y="603" on="0"/>
        <pt x="79" y="633" on="0"/>
        <pt x="72" y="666" on="0"/>
        <pt x="72" y="668" on="1"/>
        <pt x="181" y="668" on="1"/>
      </contour>
      <contour>
        <pt x="181" y="719" on="1"/>
        <pt x="103" y="719" on="1"/>
        <pt x="-37" y="871" on="1"/>
        <pt x="86" y="871" on="1"/>
      </contour>
    </TTGlyph>
    <TTGlyph name="J" xMin="-23" yMin="-211" xMax="181" yMax="728">
      <contour>
        <pt x="-11" y="-211" on="1"/>
        <pt x="-23" y="-159" on="1"/>
        <pt x="14" y="-154" on="0"/>
        <pt x="62" y="-111" on="0"/>
        <pt x="82" y="-41" on="0"/>
        <pt x="88" y="15" on="0"/>
        <pt x="88" y="55" on="1"/>
        <pt x="88" y="662" on="1"/>
        <pt x="73" y="728" on="1"/>
        <pt x="181" y="728" on="1"/>
        <pt x="181" y="61" on="1"/>
        <pt x="181" y="16" on="0"/>
        <pt x="172" y="-55" on="0"/>
        <pt x="147" y="-125" on="0"/>
        <pt x="106" y="-173" on="0"/>
        <pt x="36" y="-207" on="0"/>
      </contour>
    </TTGlyph>
    <TTGlyph name="K" xMin="72" yMin="0" xMax="583" yMax="728">
      <contour>
        <pt x="583" y="0" on="1"/>
        <pt x="467" y="0" on="1"/>
        <pt x="179" y="379" on="1"/>
        <pt x="179" y="0" on="1"/>
        <pt x="86" y="0" on="1"/>
        <pt x="86" y="662" on="1"/>
        <pt x="86" y="663" on="0"/>
        <pt x="79" y="693" on="0"/>
        <pt x="72" y="726" on="0"/>
        <pt x="72" y="728" on="1"/>
        <pt x="179" y="728" on="1"/>
        <pt x="179" y="403" on="1"/>
        <pt x="468" y="728" on="1"/>
        <pt x="565" y="728" on="1"/>
        <pt x="278" y="404" on="1"/>
      </contour>
    </TTGlyph>
    <TTGlyph name="L" xMin="72" yMin="0" xMax="485" yMax="728">
      <contour>
        <pt x="485" y="0" on="1"/>
        <pt x="86" y="0" on="1"/>
        <pt x="86" y="662" on="1"/>
        <pt x="86" y="663" on="0"/>
        <pt x="79" y="693" on="0"/>
        <pt x="72" y="726" on="0"/>
        <pt x="72" y="728" on="1"/>
        <pt x="179" y="728" on="1"/>
        <pt x="179" y="69" on="1"/>
        <pt x="485" y="69" on="1"/>
      </contour>
    </TTGlyph>
    <TTGlyph name="Lslash" xMin="8" yMin="0" xMax="485" yMax="728">
      <contour>
        <pt x="485" y="0" on="1"/>
        <pt x="86" y="0" on="1"/>
        <pt x="86" y="277" on="1"/>
        <pt x="8" y="241" on="1"/>
        <pt x="8" y="310" on="1"/>
        <pt x="86" y="346" on="1"/>
        <pt x="86" y="662" on="1"/>
        <pt x="86" y="663" on="0"/>
        <pt x="79" y="693" on="0"/>
        <pt x="72" y="726" on="0"/>
        <pt x="72" y="728" on="1"/>
        <pt x="179" y="728" on="1"/>
        <pt x="179" y="389" on="1"/>
        <pt x="385" y="485" on="1"/>
        <pt x="385" y="416" on="1"/>
        <pt x="179" y="320" on="1"/>
        <pt x="179" y="69" on="1"/>
        <pt x="485" y="69" on="1"/>
      </contour>
    </TTGlyph>
    <TTGlyph name="M" xMin="74" yMin="-1" xMax="751" yMax="728">
      <contour>
        <pt x="751" y="0" on="1"/>
        <pt x="659" y="0" on="1"/>
        <pt x="659" y="595" on="1"/>
        <pt x="440" y="-1" on="1"/>
        <pt x="384" y="-1" on="1"/>
        <pt x="165" y="595" on="1"/>
        <pt x="165" y="0" on="1"/>
        <pt x="89" y="0" on="1"/>
        <pt x="89" y="662" on="1"/>
        <pt x="74" y="728" on="1"/>
        <pt x="209" y="728" on="1"/>
        <pt x="421" y="161" on="1"/>
        <pt x="630" y="728" on="1"/>
        <pt x="751" y="728" on="1"/>
      </contour>
    </TTGlyph>
    <TTGlyph name="N" xMin="73" yMin="-5" xMax="627" yMax="728">
      <contour>
        <pt x="627" y="-5" on="1"/>
        <pt x="568" y="-5" on="1"/>
        <pt x="163" y="615" on="1"/>
        <pt x="163" y="0" on="1"/>
        <pt x="87" y="0" on="1"/>
        <pt x="87" y="662" on="1"/>
        <pt x="87" y="663" on="0"/>
        <pt x="80" y="693" on="0"/>
        <pt x="73" y="726" on="0"/>
        <pt x="73" y="728" on="1"/>
        <pt x="197" y="728" on="1"/>
        <pt x="551" y="183" on="1"/>
        <pt x="551" y="728" on="1"/>
        <pt x="627" y="728" on="1"/>
      </contour>
    </TTGlyph>
    <TTGlyph name="Ntilde" xMin="73" yMin="-6" xMax="627" yMax="812">
      <contour>
        <pt x="627" y="-6" on="1"/>
        <pt x="568" y="-6" on="1"/>
        <pt x="164" y="557" on="1"/>
        <pt x="164" y="0" on="1"/>
        <pt x="87" y="0" on="1"/>
        <pt x="87" y="602" on="1"/>
        <pt x="87" y="603" on="0"/>
        <pt x="80" y="633" on="0"/>
        <pt x="73" y="666" on="0"/>
        <pt x="73" y="668" on="1"/>
        <pt x="197" y="668" on="1"/>
        <pt x="551" y="180" on="1"/>
        <pt x="551" y="668" on="1"/>
        <pt x="627" y="668" on="1"/>
      </contour>
      <contour>
        <pt x="481" y="799" on="1"/>
        <pt x="528" y="799" on="1"/>
        <pt x="524" y="761" on="0"/>
        <pt x="479" y="700" on="0"/>
        <pt x="443" y="700" on="1"/>
        <pt x="414" y="700" on="0"/>
        <pt x="319" y="739" on="0"/>
        <pt x="294" y="739" on="1"/>
        <pt x="272" y="739" on="0"/>
        <pt x="260" y="712" on="1"/>
        <pt x="211" y="712" on="1"/>
        <pt x="216" y="752" on="0"/>
        <pt x="266" y="812" on="0"/>
        <pt x="305" y="812" on="1"/>
        <pt x="333" y="812" on="0"/>
        <pt x="427" y="773" on="0"/>
        <pt x="445" y="773" on="1"/>
        <pt x="472" y="773" on="0"/>
      </contour>
    </TTGlyph>
    <TTGlyph name="O" xMin="46" yMin="-11" xMax="691" yMax="738">
      <contour>
        <pt x="368" y="-11" on="1"/>
        <pt x="289" y="-11" on="0"/>
        <pt x="164" y="49" on="0"/>
        <pt x="86" y="154" on="0"/>
        <pt x="46" y="287" on="0"/>
        <pt x="46" y="363" on="1"/>
        <pt x="46" y="523" on="0"/>
        <pt x="213" y="738" on="0"/>
        <pt x="369" y="738" on="1"/>
        <pt x="524" y="738" on="0"/>
        <pt x="691" y="523" on="0"/>
        <pt x="691" y="363" on="1"/>
        <pt x="691" y="260" on="0"/>
        <pt x="622" y="94" on="0"/>
        <pt x="473" y="-11" on="0"/>
      </contour>
      <contour>
        <pt x="594" y="363" on="1"/>
        <pt x="594" y="420" on="0"/>
        <pt x="570" y="524" on="0"/>
        <pt x="520" y="614" on="0"/>
        <pt x="430" y="668" on="0"/>
        <pt x="369" y="668" on="1"/>
        <pt x="308" y="668" on="0"/>
        <pt x="218" y="614" on="0"/>
        <pt x="168" y="522" on="0"/>
        <pt x="145" y="419" on="0"/>
        <pt x="145" y="305" on="0"/>
        <pt x="168" y="202" on="0"/>
        <pt x="218" y="111" on="0"/>
        <pt x="308" y="57" on="0"/>
        <pt x="369" y="57" on="1"/>
        <pt x="430" y="57" on="0"/>
        <pt x="521" y="111" on="0"/>
        <pt x="571" y="202" on="0"/>
        <pt x="594" y="305" on="0"/>
      </contour>
    </TTGlyph>
    <TTGlyph name="OE" xMin="51" yMin="-12" xMax="1021" yMax="737">
      <contour>
        <pt x="1021" y="0" on="1"/>
        <pt x="598" y="0" on="1"/>
        <pt x="598" y="94" on="1"/>
        <pt x="511" y="-12" on="0"/>
        <pt x="370" y="-12" on="1"/>
        <pt x="291" y="-12" on="0"/>
        <pt x="166" y="49" on="0"/>
        <pt x="90" y="155" on="0"/>
        <pt x="51" y="288" on="0"/>
        <pt x="51" y="364" on="1"/>
        <pt x="51" y="525" on="0"/>
        <pt x="219" y="737" on="0"/>
        <pt x="376" y="737" on="1"/>
        <pt x="519" y="737" on="0"/>
        <pt x="599" y="633" on="1"/>
        <pt x="599" y="728" on="1"/>
        <pt x="1021" y="728" on="1"/>
        <pt x="1021" y="658" on="1"/>
        <pt x="692" y="658" on="1"/>
        <pt x="692" y="410" on="1"/>
        <pt x="947" y="410" on="1"/>
        <pt x="947" y="338" on="1"/>
        <pt x="692" y="338" on="1"/>
        <pt x="692" y="71" on="1"/>
        <pt x="1021" y="71" on="1"/>
      </contour>
      <contour>
        <pt x="598" y="364" on="1"/>
        <pt x="598" y="421" on="0"/>
        <pt x="574" y="525" on="0"/>
        <pt x="524" y="615" on="0"/>
        <pt x="434" y="669" on="0"/>
        <pt x="373" y="669" on="1"/>
        <pt x="312" y="669" on="0"/>
        <pt x="222" y="615" on="0"/>
        <pt x="172" y="523" on="0"/>
        <pt x="149" y="420" on="0"/>
        <pt x="149" y="306" on="0"/>
        <pt x="172" y="203" on="0"/>
        <pt x="222" y="112" on="0"/>
        <pt x="312" y="58" on="0"/>
        <pt x="373" y="58" on="1"/>
        <pt x="434" y="58" on="0"/>
        <pt x="525" y="112" on="0"/>
        <pt x="575" y="203" on="0"/>
        <pt x="598" y="306" on="0"/>
      </contour>
    </TTGlyph>
    <TTGlyph name="Oacute" xMin="47" yMin="-12" xMax="691" yMax="870">
      <contour>
        <pt x="47" y="333" on="1"/>
        <pt x="47" y="476" on="0"/>
        <pt x="228" y="679" on="0"/>
        <pt x="369" y="679" on="1"/>
        <pt x="510" y="679" on="0"/>
        <pt x="691" y="476" on="0"/>
        <pt x="691" y="333" on="1"/>
        <pt x="691" y="191" on="0"/>
        <pt x="510" y="-12" on="0"/>
        <pt x="369" y="-12" on="1"/>
        <pt x="228" y="-12" on="0"/>
        <pt x="47" y="191" on="0"/>
      </contour>
      <contour>
        <pt x="369" y="56" on="1"/>
        <pt x="474" y="56" on="0"/>
        <pt x="593" y="224" on="0"/>
        <pt x="593" y="333" on="1"/>
        <pt x="593" y="443" on="0"/>
        <pt x="474" y="611" on="0"/>
        <pt x="369" y="611" on="1"/>
        <pt x="298" y="611" on="0"/>
        <pt x="193" y="526" on="0"/>
        <pt x="145" y="402" on="0"/>
        <pt x="145" y="333" on="1"/>
        <pt x="145" y="224" on="0"/>
        <pt x="265" y="56" on="0"/>
      </contour>
      <contour>
        <pt x="387" y="718" on="1"/>
        <pt x="309" y="718" on="1"/>
        <pt x="405" y="870" on="1"/>
        <pt x="527" y="870" on="1"/>
      </contour>
    </TTGlyph>
    <TTGlyph name="Ocircumflex" xMin="47" yMin="-13" xMax="691" yMax="849">
      <contour>
        <pt x="369" y="-13" on="1"/>
        <pt x="229" y="-13" on="0"/>
        <pt x="47" y="190" on="0"/>
        <pt x="47" y="332" on="1"/>
        <pt x="47" y="475" on="0"/>
        <pt x="228" y="678" on="0"/>
        <pt x="369" y="678" on="1"/>
        <pt x="510" y="678" on="0"/>
        <pt x="691" y="475" on="0"/>
        <pt x="691" y="332" on="1"/>
        <pt x="691" y="190" on="0"/>
        <pt x="510" y="-13" on="0"/>
      </contour>
      <contour>
        <pt x="369" y="55" on="1"/>
        <pt x="474" y="55" on="0"/>
        <pt x="593" y="223" on="0"/>
        <pt x="593" y="333" on="1"/>
        <pt x="593" y="442" on="0"/>
        <pt x="474" y="610" on="0"/>
        <pt x="369" y="610" on="1"/>
        <pt x="265" y="610" on="0"/>
        <pt x="145" y="442" on="0"/>
        <pt x="145" y="333" on="1"/>
        <pt x="145" y="264" on="0"/>
        <pt x="193" y="140" on="0"/>
        <pt x="298" y="55" on="0"/>
      </contour>
      <contour>
        <pt x="512" y="694" on="1"/>
        <pt x="443" y="694" on="1"/>
        <pt x="364" y="776" on="1"/>
        <pt x="288" y="695" on="1"/>
        <pt x="221" y="695" on="1"/>
        <pt x="323" y="849" on="1"/>
        <pt x="406" y="849" on="1"/>
      </contour>
    </TTGlyph>
    <TTGlyph name="Odieresis" xMin="47" yMin="-12" xMax="691" yMax="831">
      <contour>
        <pt x="47" y="333" on="1"/>
        <pt x="47" y="476" on="0"/>
        <pt x="228" y="679" on="0"/>
        <pt x="369" y="679" on="1"/>
        <pt x="510" y="679" on="0"/>
        <pt x="691" y="476" on="0"/>
        <pt x="691" y="333" on="1"/>
        <pt x="691" y="191" on="0"/>
        <pt x="510" y="-12" on="0"/>
        <pt x="369" y="-12" on="1"/>
        <pt x="228" y="-12" on="0"/>
        <pt x="47" y="191" on="0"/>
      </contour>
      <contour>
        <pt x="369" y="56" on="1"/>
        <pt x="474" y="56" on="0"/>
        <pt x="593" y="224" on="0"/>
        <pt x="593" y="333" on="1"/>
        <pt x="593" y="443" on="0"/>
        <pt x="474" y="611" on="0"/>
        <pt x="369" y="611" on="1"/>
        <pt x="298" y="611" on="0"/>
        <pt x="193" y="526" on="0"/>
        <pt x="145" y="402" on="0"/>
        <pt x="145" y="333" on="1"/>
        <pt x="145" y="224" on="0"/>
        <pt x="265" y="56" on="0"/>
      </contour>
      <contour>
        <pt x="505" y="774" on="1"/>
        <pt x="505" y="751" on="0"/>
        <pt x="471" y="717" on="0"/>
        <pt x="448" y="717" on="1"/>
        <pt x="425" y="717" on="0"/>
        <pt x="392" y="751" on="0"/>
        <pt x="392" y="797" on="0"/>
        <pt x="425" y="831" on="0"/>
        <pt x="448" y="831" on="1"/>
        <pt x="472" y="831" on="0"/>
        <pt x="505" y="798" on="0"/>
      </contour>
      <contour>
        <pt x="342" y="774" on="1"/>
        <pt x="342" y="751" on="0"/>
        <pt x="308" y="717" on="0"/>
        <pt x="285" y="717" on="1"/>
        <pt x="262" y="717" on="0"/>
        <pt x="229" y="751" on="0"/>
        <pt x="229" y="797" on="0"/>
        <pt x="262" y="831" on="0"/>
        <pt x="285" y="831" on="1"/>
        <pt x="309" y="831" on="0"/>
        <pt x="342" y="798" on="0"/>
      </contour>
    </TTGlyph>
    <TTGlyph name="Ograve" xMin="47" yMin="-13" xMax="691" yMax="872">
      <contour>
        <pt x="369" y="-13" on="1"/>
        <pt x="229" y="-13" on="0"/>
        <pt x="47" y="190" on="0"/>
        <pt x="47" y="332" on="1"/>
        <pt x="47" y="475" on="0"/>
        <pt x="228" y="678" on="0"/>
        <pt x="369" y="678" on="1"/>
        <pt x="510" y="678" on="0"/>
        <pt x="691" y="475" on="0"/>
        <pt x="691" y="332" on="1"/>
        <pt x="691" y="190" on="0"/>
        <pt x="510" y="-13" on="0"/>
      </contour>
      <contour>
        <pt x="369" y="55" on="1"/>
        <pt x="474" y="55" on="0"/>
        <pt x="593" y="223" on="0"/>
        <pt x="593" y="333" on="1"/>
        <pt x="593" y="442" on="0"/>
        <pt x="474" y="610" on="0"/>
        <pt x="369" y="610" on="1"/>
        <pt x="265" y="610" on="0"/>
        <pt x="145" y="442" on="0"/>
        <pt x="145" y="333" on="1"/>
        <pt x="145" y="264" on="0"/>
        <pt x="193" y="140" on="0"/>
        <pt x="298" y="55" on="0"/>
      </contour>
      <contour>
        <pt x="411" y="720" on="1"/>
        <pt x="333" y="720" on="1"/>
        <pt x="193" y="872" on="1"/>
        <pt x="316" y="872" on="1"/>
      </contour>
    </TTGlyph>
    <TTGlyph name="Omega" xMin="56" yMin="0" xMax="725" yMax="734">
      <contour>
        <pt x="725" y="0" on="1"/>
        <pt x="467" y="0" on="1"/>
        <pt x="467" y="53" on="1"/>
        <pt x="519" y="73" on="0"/>
        <pt x="589" y="171" on="0"/>
        <pt x="616" y="284" on="0"/>
        <pt x="616" y="348" on="1"/>
        <pt x="616" y="406" on="0"/>
        <pt x="592" y="513" on="0"/>
        <pt x="542" y="608" on="0"/>
        <pt x="451" y="665" on="0"/>
        <pt x="391" y="665" on="1"/>
        <pt x="331" y="665" on="0"/>
        <pt x="240" y="608" on="0"/>
        <pt x="190" y="513" on="0"/>
        <pt x="166" y="406" on="0"/>
        <pt x="166" y="348" on="1"/>
        <pt x="166" y="247" on="0"/>
        <pt x="238" y="82" on="0"/>
        <pt x="314" y="53" on="1"/>
        <pt x="314" y="0" on="1"/>
        <pt x="56" y="0" on="1"/>
        <pt x="56" y="69" on="1"/>
        <pt x="129" y="69" on="1"/>
        <pt x="196" y="64" on="1"/>
        <pt x="137" y="107" on="0"/>
        <pt x="68" y="270" on="0"/>
        <pt x="68" y="361" on="1"/>
        <pt x="68" y="522" on="0"/>
        <pt x="237" y="734" on="0"/>
        <pt x="391" y="734" on="1"/>
        <pt x="545" y="734" on="0"/>
        <pt x="714" y="522" on="0"/>
        <pt x="714" y="361" on="1"/>
        <pt x="714" y="270" on="0"/>
        <pt x="645" y="107" on="0"/>
        <pt x="586" y="64" on="1"/>
        <pt x="653" y="69" on="1"/>
        <pt x="725" y="69" on="1"/>
      </contour>
    </TTGlyph>
    <TTGlyph name="Oslash" xMin="46" yMin="-57" xMax="690" yMax="767">
      <contour>
        <pt x="126" y="-57" on="1"/>
        <pt x="74" y="-24" on="1"/>
        <pt x="142" y="78" on="1"/>
        <pt x="46" y="181" on="0"/>
        <pt x="46" y="363" on="1"/>
        <pt x="46" y="524" on="0"/>
        <pt x="214" y="736" on="0"/>
        <pt x="371" y="736" on="1"/>
        <pt x="467" y="736" on="0"/>
        <pt x="539" y="690" on="1"/>
        <pt x="589" y="767" on="1"/>
        <pt x="643" y="736" on="1"/>
        <pt x="588" y="652" on="1"/>
        <pt x="690" y="549" on="0"/>
        <pt x="690" y="361" on="1"/>
        <pt x="690" y="258" on="0"/>
        <pt x="619" y="92" on="0"/>
        <pt x="469" y="-13" on="0"/>
        <pt x="365" y="-13" on="1"/>
        <pt x="264" y="-13" on="0"/>
        <pt x="189" y="39" on="1"/>
      </contour>
      <contour>
        <pt x="495" y="624" on="1"/>
        <pt x="444" y="668" on="0"/>
        <pt x="368" y="668" on="1"/>
        <pt x="308" y="668" on="0"/>
        <pt x="217" y="615" on="0"/>
        <pt x="168" y="525" on="0"/>
        <pt x="144" y="423" on="0"/>
        <pt x="144" y="366" on="1"/>
        <pt x="144" y="238" on="0"/>
        <pt x="192" y="158" on="1"/>
        <pt x="357" y="409" on="0"/>
      </contour>
      <contour>
        <pt x="539" y="575" on="1"/>
        <pt x="436" y="419" on="0"/>
        <pt x="232" y="107" on="1"/>
        <pt x="287" y="55" on="0"/>
        <pt x="370" y="55" on="1"/>
        <pt x="430" y="55" on="0"/>
        <pt x="519" y="108" on="0"/>
        <pt x="569" y="197" on="0"/>
        <pt x="592" y="298" on="0"/>
        <pt x="592" y="355" on="1"/>
        <pt x="592" y="492" on="0"/>
      </contour>
    </TTGlyph>
    <TTGlyph name="Otilde" xMin="46" yMin="-12" xMax="690" yMax="814">
      <contour>
        <pt x="46" y="333" on="1"/>
        <pt x="46" y="476" on="0"/>
        <pt x="227" y="679" on="0"/>
        <pt x="368" y="679" on="1"/>
        <pt x="509" y="679" on="0"/>
        <pt x="690" y="476" on="0"/>
        <pt x="690" y="333" on="1"/>
        <pt x="690" y="191" on="0"/>
        <pt x="509" y="-12" on="0"/>
        <pt x="368" y="-12" on="1"/>
        <pt x="227" y="-12" on="0"/>
        <pt x="46" y="191" on="0"/>
      </contour>
      <contour>
        <pt x="368" y="56" on="1"/>
        <pt x="473" y="56" on="0"/>
        <pt x="592" y="224" on="0"/>
        <pt x="592" y="333" on="1"/>
        <pt x="592" y="443" on="0"/>
        <pt x="473" y="611" on="0"/>
        <pt x="368" y="611" on="1"/>
        <pt x="297" y="611" on="0"/>
        <pt x="192" y="526" on="0"/>
        <pt x="144" y="402" on="0"/>
        <pt x="144" y="333" on="1"/>
        <pt x="144" y="224" on="0"/>
        <pt x="264" y="56" on="0"/>
      </contour>
      <contour>
        <pt x="486" y="801" on="1"/>
        <pt x="533" y="801" on="1"/>
        <pt x="529" y="763" on="0"/>
        <pt x="484" y="702" on="0"/>
        <pt x="448" y="702" on="1"/>
        <pt x="419" y="702" on="0"/>
        <pt x="324" y="741" on="0"/>
        <pt x="299" y="741" on="1"/>
        <pt x="277" y="741" on="0"/>
        <pt x="265" y="714" on="1"/>
        <pt x="216" y="714" on="1"/>
        <pt x="221" y="754" on="0"/>
        <pt x="271" y="814" on="0"/>
        <pt x="310" y="814" on="1"/>
        <pt x="338" y="814" on="0"/>
        <pt x="432" y="775" on="0"/>
        <pt x="450" y="775" on="1"/>
        <pt x="477" y="775" on="0"/>
      </contour>
    </TTGlyph>
    <TTGlyph name="P" xMin="71" yMin="0" xMax="534" yMax="728">
      <contour>
        <pt x="179" y="0" on="1"/>
        <pt x="86" y="0" on="1"/>
        <pt x="86" y="662" on="1"/>
        <pt x="71" y="728" on="1"/>
        <pt x="289" y="728" on="1"/>
        <pt x="403" y="728" on="0"/>
        <pt x="534" y="621" on="0"/>
        <pt x="534" y="508" on="1"/>
        <pt x="534" y="403" on="0"/>
        <pt x="396" y="288" on="0"/>
        <pt x="290" y="288" on="1"/>
        <pt x="179" y="288" on="1"/>
      </contour>
      <contour>
        <pt x="179" y="356" on="1"/>
        <pt x="288" y="356" on="1"/>
        <pt x="357" y="356" on="0"/>
        <pt x="437" y="439" on="0"/>
        <pt x="437" y="508" on="1"/>
        <pt x="437" y="579" on="0"/>
        <pt x="360" y="659" on="0"/>
        <pt x="289" y="659" on="1"/>
        <pt x="179" y="659" on="1"/>
      </contour>
    </TTGlyph>
    <TTGlyph name="Q" xMin="46" yMin="-222" xMax="1155" yMax="738">
      <contour>
        <pt x="1139" y="-127" on="1"/>
        <pt x="1155" y="-175" on="1"/>
        <pt x="1109" y="-192" on="0"/>
        <pt x="1062" y="-207" on="0"/>
        <pt x="979" y="-222" on="0"/>
        <pt x="935" y="-222" on="1"/>
        <pt x="882" y="-222" on="0"/>
        <pt x="728" y="-176" on="0"/>
        <pt x="619" y="-128" on="0"/>
        <pt x="454" y="-49" on="0"/>
        <pt x="438" y="-42" on="1"/>
        <pt x="406" y="-27" on="0"/>
        <pt x="307" y="-5" on="1"/>
        <pt x="174" y="25" on="0"/>
        <pt x="46" y="222" on="0"/>
        <pt x="46" y="363" on="1"/>
        <pt x="46" y="466" on="0"/>
        <pt x="114" y="632" on="0"/>
        <pt x="263" y="738" on="0"/>
        <pt x="369" y="738" on="1"/>
        <pt x="449" y="738" on="0"/>
        <pt x="574" y="677" on="0"/>
        <pt x="651" y="572" on="0"/>
        <pt x="691" y="439" on="0"/>
        <pt x="691" y="363" on="1"/>
        <pt x="691" y="246" on="0"/>
        <pt x="593" y="57" on="0"/>
        <pt x="493" y="14" on="1"/>
        <pt x="495" y="13" on="0"/>
        <pt x="506" y="8" on="0"/>
        <pt x="508" y="7" on="1"/>
        <pt x="829" y="-158" on="0"/>
        <pt x="969" y="-158" on="1"/>
        <pt x="1037" y="-158" on="0"/>
      </contour>
      <contour>
        <pt x="369" y="668" on="1"/>
        <pt x="320" y="668" on="0"/>
        <pt x="242" y="632" on="0"/>
        <pt x="192" y="573" on="0"/>
        <pt x="159" y="492" on="0"/>
        <pt x="145" y="408" on="0"/>
        <pt x="145" y="362" on="1"/>
        <pt x="145" y="304" on="0"/>
        <pt x="169" y="201" on="0"/>
        <pt x="219" y="110" on="0"/>
        <pt x="309" y="57" on="0"/>
        <pt x="369" y="57" on="1"/>
        <pt x="429" y="57" on="0"/>
        <pt x="520" y="110" on="0"/>
        <pt x="570" y="201" on="0"/>
        <pt x="594" y="305" on="0"/>
        <pt x="594" y="421" on="0"/>
        <pt x="570" y="525" on="0"/>
        <pt x="520" y="615" on="0"/>
        <pt x="429" y="668" on="0"/>
      </contour>
    </TTGlyph>
    <TTGlyph name="R" xMin="71" yMin="0" xMax="599" yMax="728">
      <contour>
        <pt x="599" y="0" on="1"/>
        <pt x="491" y="0" on="1"/>
        <pt x="303" y="329" on="1"/>
        <pt x="280" y="327" on="0"/>
        <pt x="228" y="327" on="1"/>
        <pt x="178" y="327" on="1"/>
        <pt x="178" y="0" on="1"/>
        <pt x="85" y="0" on="1"/>
        <pt x="85" y="662" on="1"/>
        <pt x="85" y="663" on="0"/>
        <pt x="78" y="693" on="0"/>
        <pt x="71" y="726" on="0"/>
        <pt x="71" y="728" on="1"/>
        <pt x="288" y="728" on="1"/>
        <pt x="534" y="728" on="0"/>
        <pt x="534" y="527" on="1"/>
        <pt x="534" y="467" on="0"/>
        <pt x="453" y="364" on="0"/>
        <pt x="395" y="346" on="1"/>
      </contour>
      <contour>
        <pt x="178" y="395" on="1"/>
        <pt x="258" y="395" on="1"/>
        <pt x="341" y="395" on="0"/>
        <pt x="437" y="456" on="0"/>
        <pt x="437" y="533" on="1"/>
        <pt x="437" y="594" on="0"/>
        <pt x="351" y="659" on="0"/>
        <pt x="288" y="659" on="1"/>
        <pt x="178" y="659" on="1"/>
      </contour>
    </TTGlyph>
    <TTGlyph name="S" xMin="32" yMin="-12" xMax="485" yMax="738">
      <contour>
        <pt x="32" y="42" on="1"/>
        <pt x="68" y="124" on="1"/>
        <pt x="101" y="95" on="0"/>
        <pt x="195" y="60" on="0"/>
        <pt x="238" y="60" on="1"/>
        <pt x="295" y="60" on="0"/>
        <pt x="385" y="124" on="0"/>
        <pt x="385" y="185" on="1"/>
        <pt x="385" y="237" on="0"/>
        <pt x="316" y="309" on="0"/>
        <pt x="218" y="352" on="0"/>
        <pt x="121" y="399" on="0"/>
        <pt x="52" y="485" on="0"/>
        <pt x="52" y="548" on="1"/>
        <pt x="52" y="637" on="0"/>
        <pt x="188" y="738" on="0"/>
        <pt x="280" y="738" on="1"/>
        <pt x="377" y="738" on="0"/>
        <pt x="468" y="684" on="1"/>
        <pt x="422" y="617" on="1"/>
        <pt x="352" y="667" on="0"/>
        <pt x="279" y="667" on="1"/>
        <pt x="222" y="667" on="0"/>
        <pt x="152" y="611" on="0"/>
        <pt x="152" y="556" on="1"/>
        <pt x="152" y="525" on="0"/>
        <pt x="189" y="476" on="0"/>
        <pt x="247" y="442" on="0"/>
        <pt x="318" y="410" on="0"/>
        <pt x="390" y="371" on="0"/>
        <pt x="448" y="323" on="0"/>
        <pt x="485" y="247" on="0"/>
        <pt x="485" y="198" on="1"/>
        <pt x="485" y="96" on="0"/>
        <pt x="341" y="-12" on="0"/>
        <pt x="235" y="-12" on="1"/>
        <pt x="137" y="-12" on="0"/>
      </contour>
    </TTGlyph>
    <TTGlyph name="Scaron" xMin="32" yMin="-12" xMax="485" yMax="873">
      <contour>
        <pt x="32" y="42" on="1"/>
        <pt x="68" y="124" on="1"/>
        <pt x="101" y="95" on="0"/>
        <pt x="195" y="60" on="0"/>
        <pt x="238" y="60" on="1"/>
        <pt x="295" y="60" on="0"/>
        <pt x="385" y="120" on="0"/>
        <pt x="385" y="177" on="1"/>
        <pt x="385" y="212" on="0"/>
        <pt x="348" y="263" on="0"/>
        <pt x="290" y="296" on="0"/>
        <pt x="218" y="324" on="0"/>
        <pt x="147" y="355" on="0"/>
        <pt x="89" y="394" on="0"/>
        <pt x="52" y="458" on="0"/>
        <pt x="52" y="500" on="1"/>
        <pt x="52" y="582" on="0"/>
        <pt x="189" y="679" on="0"/>
        <pt x="280" y="679" on="1"/>
        <pt x="377" y="679" on="0"/>
        <pt x="468" y="625" on="1"/>
        <pt x="422" y="558" on="1"/>
        <pt x="352" y="608" on="0"/>
        <pt x="279" y="608" on="1"/>
        <pt x="223" y="608" on="0"/>
        <pt x="152" y="557" on="0"/>
        <pt x="152" y="508" on="1"/>
        <pt x="152" y="470" on="0"/>
        <pt x="221" y="415" on="0"/>
        <pt x="318" y="377" on="0"/>
        <pt x="416" y="332" on="0"/>
        <pt x="485" y="249" on="0"/>
        <pt x="485" y="190" on="1"/>
        <pt x="485" y="92" on="0"/>
        <pt x="341" y="-12" on="0"/>
        <pt x="235" y="-12" on="1"/>
        <pt x="137" y="-12" on="0"/>
      </contour>
      <contour>
        <pt x="306" y="697" on="1"/>
        <pt x="222" y="697" on="1"/>
        <pt x="118" y="873" on="1"/>
        <pt x="187" y="873" on="1"/>
        <pt x="264" y="770" on="1"/>
        <pt x="341" y="873" on="1"/>
        <pt x="409" y="873" on="1"/>
      </contour>
    </TTGlyph>
    <TTGlyph name="T" xMin="24" yMin="0" xMax="554" yMax="728">
      <contour>
        <pt x="335" y="0" on="1"/>
        <pt x="240" y="0" on="1"/>
        <pt x="240" y="659" on="1"/>
        <pt x="24" y="659" on="1"/>
        <pt x="24" y="728" on="1"/>
        <pt x="554" y="728" on="1"/>
        <pt x="554" y="659" on="1"/>
        <pt x="335" y="659" on="1"/>
      </contour>
    </TTGlyph>
    <TTGlyph name="Thorn" xMin="74" yMin="1" xMax="533" yMax="728">
      <contour>
        <pt x="182" y="251" on="1"/>
        <pt x="289" y="251" on="1"/>
        <pt x="356" y="251" on="0"/>
        <pt x="435" y="333" on="0"/>
        <pt x="435" y="467" on="0"/>
        <pt x="360" y="542" on="0"/>
        <pt x="290" y="542" on="1"/>
        <pt x="182" y="542" on="1"/>
      </contour>
      <contour>
        <pt x="182" y="1" on="1"/>
        <pt x="89" y="1" on="1"/>
        <pt x="89" y="662" on="1"/>
        <pt x="74" y="728" on="1"/>
        <pt x="183" y="728" on="1"/>
        <pt x="183" y="611" on="1"/>
        <pt x="282" y="611" on="1"/>
        <pt x="397" y="611" on="0"/>
        <pt x="533" y="510" on="0"/>
        <pt x="533" y="400" on="1"/>
        <pt x="533" y="293" on="0"/>
        <pt x="391" y="183" on="0"/>
        <pt x="283" y="183" on="1"/>
        <pt x="182" y="183" on="1"/>
      </contour>
    </TTGlyph>
    <TTGlyph name="U" xMin="71" yMin="-12" xMax="620" yMax="728">
      <contour>
        <pt x="543" y="258" on="1"/>
        <pt x="543" y="728" on="1"/>
        <pt x="620" y="728" on="1"/>
        <pt x="620" y="258" on="1"/>
        <pt x="620" y="131" on="0"/>
        <pt x="479" y="-12" on="0"/>
        <pt x="351" y="-12" on="1"/>
        <pt x="224" y="-12" on="0"/>
        <pt x="86" y="119" on="0"/>
        <pt x="86" y="244" on="1"/>
        <pt x="86" y="662" on="1"/>
        <pt x="71" y="728" on="1"/>
        <pt x="181" y="728" on="1"/>
        <pt x="181" y="244" on="1"/>
        <pt x="181" y="156" on="0"/>
        <pt x="268" y="57" on="0"/>
        <pt x="355" y="57" on="1"/>
        <pt x="446" y="57" on="0"/>
        <pt x="543" y="166" on="0"/>
      </contour>
    </TTGlyph>
    <TTGlyph name="Uacute" xMin="71" yMin="-12" xMax="620" yMax="869">
      <contour>
        <pt x="543" y="258" on="1"/>
        <pt x="543" y="669" on="1"/>
        <pt x="620" y="669" on="1"/>
        <pt x="620" y="258" on="1"/>
        <pt x="620" y="131" on="0"/>
        <pt x="479" y="-12" on="0"/>
        <pt x="351" y="-12" on="1"/>
        <pt x="224" y="-12" on="0"/>
        <pt x="86" y="119" on="0"/>
        <pt x="86" y="244" on="1"/>
        <pt x="86" y="604" on="1"/>
        <pt x="86" y="605" on="0"/>
        <pt x="79" y="635" on="0"/>
        <pt x="71" y="667" on="0"/>
        <pt x="71" y="669" on="1"/>
        <pt x="181" y="669" on="1"/>
        <pt x="181" y="244" on="1"/>
        <pt x="181" y="156" on="0"/>
        <pt x="268" y="57" on="0"/>
        <pt x="355" y="57" on="1"/>
        <pt x="445" y="57" on="0"/>
        <pt x="543" y="167" on="0"/>
      </contour>
      <contour>
        <pt x="392" y="717" on="1"/>
        <pt x="314" y="717" on="1"/>
        <pt x="410" y="869" on="1"/>
        <pt x="532" y="869" on="1"/>
      </contour>
    </TTGlyph>
    <TTGlyph name="Ucircumflex" xMin="71" yMin="-12" xMax="620" yMax="851">
      <contour>
        <pt x="543" y="258" on="1"/>
        <pt x="543" y="669" on="1"/>
        <pt x="620" y="669" on="1"/>
        <pt x="620" y="258" on="1"/>
        <pt x="620" y="131" on="0"/>
        <pt x="479" y="-12" on="0"/>
        <pt x="351" y="-12" on="1"/>
        <pt x="224" y="-12" on="0"/>
        <pt x="86" y="119" on="0"/>
        <pt x="86" y="244" on="1"/>
        <pt x="86" y="604" on="1"/>
        <pt x="86" y="605" on="0"/>
        <pt x="79" y="635" on="0"/>
        <pt x="71" y="667" on="0"/>
        <pt x="71" y="669" on="1"/>
        <pt x="181" y="669" on="1"/>
        <pt x="181" y="244" on="1"/>
        <pt x="181" y="156" on="0"/>
        <pt x="268" y="57" on="0"/>
        <pt x="355" y="57" on="1"/>
        <pt x="445" y="57" on="0"/>
        <pt x="543" y="167" on="0"/>
      </contour>
      <contour>
        <pt x="504" y="696" on="1"/>
        <pt x="435" y="696" on="1"/>
        <pt x="356" y="778" on="1"/>
        <pt x="280" y="697" on="1"/>
        <pt x="213" y="697" on="1"/>
        <pt x="315" y="851" on="1"/>
        <pt x="398" y="851" on="1"/>
      </contour>
    </TTGlyph>
    <TTGlyph name="Udieresis" xMin="71" yMin="-12" xMax="620" yMax="831">
      <contour>
        <pt x="543" y="258" on="1"/>
        <pt x="543" y="669" on="1"/>
        <pt x="620" y="669" on="1"/>
        <pt x="620" y="258" on="1"/>
        <pt x="620" y="131" on="0"/>
        <pt x="479" y="-12" on="0"/>
        <pt x="351" y="-12" on="1"/>
        <pt x="224" y="-12" on="0"/>
        <pt x="86" y="118" on="0"/>
        <pt x="86" y="244" on="1"/>
        <pt x="86" y="604" on="1"/>
        <pt x="86" y="605" on="0"/>
        <pt x="79" y="635" on="0"/>
        <pt x="71" y="667" on="0"/>
        <pt x="71" y="669" on="1"/>
        <pt x="181" y="669" on="1"/>
        <pt x="181" y="244" on="1"/>
        <pt x="181" y="156" on="0"/>
        <pt x="268" y="57" on="0"/>
        <pt x="355" y="57" on="1"/>
        <pt x="445" y="57" on="0"/>
        <pt x="543" y="167" on="0"/>
      </contour>
      <contour>
        <pt x="502" y="774" on="1"/>
        <pt x="502" y="751" on="0"/>
        <pt x="468" y="717" on="0"/>
        <pt x="445" y="717" on="1"/>
        <pt x="422" y="717" on="0"/>
        <pt x="389" y="751" on="0"/>
        <pt x="389" y="797" on="0"/>
        <pt x="422" y="831" on="0"/>
        <pt x="445" y="831" on="1"/>
        <pt x="469" y="831" on="0"/>
        <pt x="502" y="798" on="0"/>
      </contour>
      <contour>
        <pt x="339" y="774" on="1"/>
        <pt x="339" y="751" on="0"/>
        <pt x="305" y="717" on="0"/>
        <pt x="282" y="717" on="1"/>
        <pt x="259" y="717" on="0"/>
        <pt x="226" y="751" on="0"/>
        <pt x="226" y="797" on="0"/>
        <pt x="259" y="831" on="0"/>
        <pt x="282" y="831" on="1"/>
        <pt x="306" y="831" on="0"/>
        <pt x="339" y="798" on="0"/>
      </contour>
    </TTGlyph>
    <TTGlyph name="Ugrave" xMin="71" yMin="-13" xMax="620" yMax="873">
      <contour>
        <pt x="543" y="257" on="1"/>
        <pt x="543" y="668" on="1"/>
        <pt x="620" y="668" on="1"/>
        <pt x="620" y="257" on="1"/>
        <pt x="620" y="130" on="0"/>
        <pt x="479" y="-13" on="0"/>
        <pt x="351" y="-13" on="1"/>
        <pt x="224" y="-13" on="0"/>
        <pt x="86" y="118" on="0"/>
        <pt x="86" y="243" on="1"/>
        <pt x="86" y="603" on="1"/>
        <pt x="86" y="604" on="0"/>
        <pt x="79" y="634" on="0"/>
        <pt x="71" y="666" on="0"/>
        <pt x="71" y="668" on="1"/>
        <pt x="181" y="668" on="1"/>
        <pt x="181" y="243" on="1"/>
        <pt x="181" y="155" on="0"/>
        <pt x="268" y="56" on="0"/>
        <pt x="355" y="56" on="1"/>
        <pt x="445" y="56" on="0"/>
        <pt x="543" y="166" on="0"/>
      </contour>
      <contour>
        <pt x="404" y="721" on="1"/>
        <pt x="326" y="721" on="1"/>
        <pt x="186" y="873" on="1"/>
        <pt x="309" y="873" on="1"/>
      </contour>
    </TTGlyph>
    <TTGlyph name="V" xMin="21" yMin="-3" xMax="582" yMax="729">
      <contour>
        <pt x="330" y="-3" on="1"/>
        <pt x="272" y="-3" on="1"/>
        <pt x="21" y="728" on="1"/>
        <pt x="120" y="728" on="1"/>
        <pt x="308" y="162" on="1"/>
        <pt x="502" y="729" on="1"/>
        <pt x="582" y="729" on="1"/>
      </contour>
    </TTGlyph>
    <TTGlyph name="W" xMin="21" yMin="-5" xMax="873" yMax="728">
      <contour>
        <pt x="674" y="-5" on="1"/>
        <pt x="597" y="-5" on="1"/>
        <pt x="448" y="541" on="1"/>
        <pt x="300" y="-5" on="1"/>
        <pt x="223" y="-5" on="1"/>
        <pt x="21" y="728" on="1"/>
        <pt x="119" y="728" on="1"/>
        <pt x="270" y="170" on="1"/>
        <pt x="420" y="728" on="1"/>
        <pt x="494" y="728" on="1"/>
        <pt x="644" y="170" on="1"/>
        <pt x="795" y="728" on="1"/>
        <pt x="873" y="728" on="1"/>
      </contour>
    </TTGlyph>
    <TTGlyph name="X" xMin="12" yMin="0" xMax="573" yMax="728">
      <contour>
        <pt x="573" y="0" on="1"/>
        <pt x="464" y="0" on="1"/>
        <pt x="285" y="300" on="1"/>
        <pt x="98" y="0" on="1"/>
        <pt x="12" y="0" on="1"/>
        <pt x="243" y="372" on="1"/>
        <pt x="31" y="728" on="1"/>
        <pt x="138" y="728" on="1"/>
        <pt x="298" y="461" on="1"/>
        <pt x="464" y="728" on="1"/>
        <pt x="551" y="728" on="1"/>
        <pt x="339" y="391" on="1"/>
      </contour>
    </TTGlyph>
    <TTGlyph name="Y" xMin="32" yMin="0" xMax="553" yMax="728">
      <contour>
        <pt x="344" y="0" on="1"/>
        <pt x="249" y="0" on="1"/>
        <pt x="249" y="360" on="1"/>
        <pt x="32" y="728" on="1"/>
        <pt x="140" y="728" on="1"/>
        <pt x="309" y="445" on="1"/>
        <pt x="466" y="728" on="1"/>
        <pt x="553" y="728" on="1"/>
        <pt x="344" y="360" on="1"/>
      </contour>
    </TTGlyph>
    <TTGlyph name="Yacute" xMin="32" yMin="0" xMax="553" yMax="869">
      <contour>
        <pt x="343" y="0" on="1"/>
        <pt x="248" y="0" on="1"/>
        <pt x="248" y="300" on="1"/>
        <pt x="32" y="669" on="1"/>
        <pt x="139" y="669" on="1"/>
        <pt x="308" y="385" on="1"/>
        <pt x="465" y="669" on="1"/>
        <pt x="553" y="669" on="1"/>
        <pt x="343" y="300" on="1"/>
      </contour>
      <contour>
        <pt x="344" y="717" on="1"/>
        <pt x="266" y="717" on="1"/>
        <pt x="362" y="869" on="1"/>
        <pt x="484" y="869" on="1"/>
      </contour>
    </TTGlyph>
    <TTGlyph name="Ydieresis" xMin="32" yMin="0" xMax="553" yMax="831">
      <contour>
        <pt x="343" y="0" on="1"/>
        <pt x="248" y="0" on="1"/>
        <pt x="248" y="300" on="1"/>
        <pt x="32" y="669" on="1"/>
        <pt x="139" y="669" on="1"/>
        <pt x="308" y="385" on="1"/>
        <pt x="465" y="669" on="1"/>
        <pt x="553" y="669" on="1"/>
        <pt x="343" y="300" on="1"/>
      </contour>
      <contour>
        <pt x="440" y="774" on="1"/>
        <pt x="440" y="751" on="0"/>
        <pt x="406" y="717" on="0"/>
        <pt x="383" y="717" on="1"/>
        <pt x="360" y="717" on="0"/>
        <pt x="327" y="751" on="0"/>
        <pt x="327" y="797" on="0"/>
        <pt x="360" y="831" on="0"/>
        <pt x="383" y="831" on="1"/>
        <pt x="407" y="831" on="0"/>
        <pt x="440" y="798" on="0"/>
      </contour>
      <contour>
        <pt x="277" y="774" on="1"/>
        <pt x="277" y="751" on="0"/>
        <pt x="243" y="717" on="0"/>
        <pt x="220" y="717" on="1"/>
        <pt x="197" y="717" on="0"/>
        <pt x="164" y="751" on="0"/>
        <pt x="164" y="797" on="0"/>
        <pt x="197" y="831" on="0"/>
        <pt x="220" y="831" on="1"/>
        <pt x="244" y="831" on="0"/>
        <pt x="277" y="798" on="0"/>
      </contour>
    </TTGlyph>
    <TTGlyph name="Z" xMin="35" yMin="0" xMax="537" yMax="728">
      <contour>
        <pt x="529" y="0" on="1"/>
        <pt x="35" y="0" on="1"/>
        <pt x="35" y="67" on="1"/>
        <pt x="413" y="659" on="1"/>
        <pt x="57" y="659" on="1"/>
        <pt x="57" y="728" on="1"/>
        <pt x="524" y="728" on="1"/>
        <pt x="524" y="661" on="1"/>
        <pt x="146" y="69" on="1"/>
        <pt x="537" y="69" on="1"/>
      </contour>
    </TTGlyph>
    <TTGlyph name="Zcaron" xMin="35" yMin="0" xMax="537" yMax="873">
      <contour>
        <pt x="529" y="0" on="1"/>
        <pt x="35" y="0" on="1"/>
        <pt x="35" y="67" on="1"/>
        <pt x="413" y="599" on="1"/>
        <pt x="57" y="599" on="1"/>
        <pt x="57" y="668" on="1"/>
        <pt x="524" y="668" on="1"/>
        <pt x="524" y="601" on="1"/>
        <pt x="146" y="69" on="1"/>
        <pt x="537" y="69" on="1"/>
      </contour>
      <contour>
        <pt x="341" y="697" on="1"/>
        <pt x="257" y="697" on="1"/>
        <pt x="153" y="873" on="1"/>
        <pt x="222" y="873" on="1"/>
        <pt x="299" y="770" on="1"/>
        <pt x="376" y="873" on="1"/>
        <pt x="444" y="873" on="1"/>
      </contour>
    </TTGlyph>
    <TTGlyph name="a" xMin="44" yMin="-11" xMax="498" yMax="509">
      <contour>
        <pt x="481" y="73" on="1"/>
        <pt x="498" y="21" on="1"/>
        <pt x="491" y="18" on="0"/>
        <pt x="460" y="5" on="0"/>
        <pt x="441" y="-2" on="0"/>
        <pt x="413" y="-9" on="0"/>
        <pt x="402" y="-9" on="1"/>
        <pt x="373" y="-9" on="0"/>
        <pt x="336" y="29" on="0"/>
        <pt x="331" y="59" on="1"/>
        <pt x="264" y="-11" on="0"/>
        <pt x="181" y="-11" on="1"/>
        <pt x="121" y="-11" on="0"/>
        <pt x="44" y="60" on="0"/>
        <pt x="44" y="120" on="1"/>
        <pt x="44" y="289" on="0"/>
        <pt x="329" y="291" on="1"/>
        <pt x="329" y="344" on="1"/>
        <pt x="329" y="444" on="0"/>
        <pt x="246" y="444" on="1"/>
        <pt x="207" y="444" on="0"/>
        <pt x="127" y="412" on="0"/>
        <pt x="103" y="385" on="1"/>
        <pt x="62" y="444" on="1"/>
        <pt x="143" y="509" on="0"/>
        <pt x="253" y="509" on="1"/>
        <pt x="331" y="509" on="0"/>
        <pt x="412" y="424" on="0"/>
        <pt x="412" y="345" on="1"/>
        <pt x="412" y="97" on="1"/>
        <pt x="412" y="77" on="0"/>
        <pt x="421" y="59" on="0"/>
        <pt x="434" y="59" on="1"/>
        <pt x="446" y="59" on="0"/>
      </contour>
      <contour>
        <pt x="329" y="194" on="1"/>
        <pt x="329" y="226" on="1"/>
        <pt x="292" y="226" on="0"/>
        <pt x="239" y="221" on="0"/>
        <pt x="168" y="203" on="0"/>
        <pt x="129" y="158" on="0"/>
        <pt x="129" y="123" on="1"/>
        <pt x="129" y="91" on="0"/>
        <pt x="172" y="59" on="0"/>
        <pt x="208" y="59" on="1"/>
        <pt x="259" y="59" on="0"/>
        <pt x="329" y="142" on="0"/>
      </contour>
    </TTGlyph>
    <TTGlyph name="aacute" xMin="44" yMin="-11" xMax="498" yMax="729">
      <component glyphName="acute" x="174" y="6" flags="0x4"/>
      <component glyphName="a" x="0" y="0" flags="0x4"/>
    </TTGlyph>
    <TTGlyph name="acircumflex" xMin="44" yMin="-11" xMax="498" yMax="729">
      <component glyphName="circumflex" x="107" y="9" flags="0x4"/>
      <component glyphName="a" x="0" y="0" flags="0x4"/>
    </TTGlyph>
    <TTGlyph name="acute" xMin="31" yMin="571" xMax="249" yMax="723">
      <contour>
        <pt x="109" y="571" on="1"/>
        <pt x="31" y="571" on="1"/>
        <pt x="127" y="723" on="1"/>
        <pt x="249" y="723" on="1"/>
      </contour>
    </TTGlyph>
    <TTGlyph name="adieresis" xMin="44" yMin="-11" xMax="498" yMax="681">
      <component glyphName="dieresis" x="113" y="0" flags="0x4"/>
      <component glyphName="a" x="0" y="0" flags="0x4"/>
    </TTGlyph>
    <TTGlyph name="ae" xMin="41" yMin="-13" xMax="720" yMax="509">
      <contour>
        <pt x="677" y="102" on="1"/>
        <pt x="717" y="41" on="1"/>
        <pt x="646" y="-13" on="0"/>
        <pt x="551" y="-13" on="1"/>
        <pt x="432" y="-13" on="0"/>
        <pt x="359" y="85" on="1"/>
        <pt x="324" y="34" on="0"/>
        <pt x="241" y="-12" on="0"/>
        <pt x="179" y="-12" on="1"/>
        <pt x="116" y="-12" on="0"/>
        <pt x="41" y="60" on="0"/>
        <pt x="41" y="122" on="1"/>
        <pt x="41" y="166" on="0"/>
        <pt x="78" y="232" on="0"/>
        <pt x="135" y="271" on="0"/>
        <pt x="214" y="295" on="0"/>
        <pt x="287" y="303" on="0"/>
        <pt x="327" y="303" on="1"/>
        <pt x="328" y="311" on="0"/>
        <pt x="328" y="327" on="1"/>
        <pt x="328" y="376" on="0"/>
        <pt x="290" y="444" on="0"/>
        <pt x="244" y="444" on="1"/>
        <pt x="205" y="444" on="0"/>
        <pt x="125" y="412" on="0"/>
        <pt x="100" y="385" on="1"/>
        <pt x="59" y="443" on="1"/>
        <pt x="85" y="473" on="0"/>
        <pt x="202" y="509" on="0"/>
        <pt x="248" y="509" on="1"/>
        <pt x="346" y="509" on="0"/>
        <pt x="386" y="444" on="1"/>
        <pt x="413" y="474" on="0"/>
        <pt x="493" y="509" on="0"/>
        <pt x="533" y="509" on="1"/>
        <pt x="624" y="509" on="0"/>
        <pt x="720" y="409" on="0"/>
        <pt x="720" y="317" on="1"/>
        <pt x="720" y="280" on="0"/>
        <pt x="694" y="241" on="0"/>
        <pt x="659" y="241" on="1"/>
        <pt x="405" y="241" on="1"/>
        <pt x="405" y="224" on="1"/>
        <pt x="405" y="161" on="0"/>
        <pt x="485" y="57" on="0"/>
        <pt x="547" y="57" on="1"/>
        <pt x="580" y="57" on="0"/>
        <pt x="654" y="81" on="0"/>
      </contour>
      <contour>
        <pt x="411" y="303" on="1"/>
        <pt x="615" y="303" on="1"/>
        <pt x="628" y="303" on="0"/>
        <pt x="639" y="312" on="0"/>
        <pt x="639" y="325" on="1"/>
        <pt x="639" y="377" on="0"/>
        <pt x="593" y="446" on="0"/>
        <pt x="543" y="446" on="1"/>
        <pt x="488" y="446" on="0"/>
        <pt x="419" y="362" on="0"/>
      </contour>
      <contour>
        <pt x="326" y="204" on="1"/>
        <pt x="326" y="239" on="1"/>
        <pt x="312" y="239" on="1"/>
        <pt x="270" y="239" on="0"/>
        <pt x="193" y="223" on="0"/>
        <pt x="127" y="170" on="0"/>
        <pt x="127" y="128" on="1"/>
        <pt x="127" y="95" on="0"/>
        <pt x="171" y="59" on="0"/>
        <pt x="205" y="59" on="1"/>
        <pt x="261" y="59" on="0"/>
        <pt x="326" y="146" on="0"/>
      </contour>
    </TTGlyph>
    <TTGlyph name="agrave" xMin="44" yMin="-11" xMax="498" yMax="728">
      <component glyphName="a" x="0" y="0" flags="0x4"/>
      <component glyphName="grave" x="45" y="0" flags="0x4"/>
    </TTGlyph>
    <TTGlyph name="ampersand" xMin="51" yMin="-13" xMax="666" yMax="684">
      <contour>
        <pt x="666" y="0" on="1"/>
        <pt x="605" y="0" on="1"/>
        <pt x="533" y="0" on="0"/>
        <pt x="452" y="83" on="1"/>
        <pt x="361" y="-13" on="0"/>
        <pt x="251" y="-13" on="1"/>
        <pt x="170" y="-13" on="0"/>
        <pt x="51" y="104" on="0"/>
        <pt x="51" y="185" on="1"/>
        <pt x="51" y="305" on="0"/>
        <pt x="203" y="394" on="1"/>
        <pt x="145" y="472" on="0"/>
        <pt x="145" y="551" on="1"/>
        <pt x="145" y="611" on="0"/>
        <pt x="235" y="684" on="0"/>
        <pt x="296" y="684" on="1"/>
        <pt x="354" y="684" on="0"/>
        <pt x="439" y="617" on="0"/>
        <pt x="439" y="560" on="1"/>
        <pt x="439" y="470" on="0"/>
        <pt x="311" y="387" on="1"/>
        <pt x="462" y="205" on="1"/>
        <pt x="496" y="274" on="0"/>
        <pt x="505" y="354" on="1"/>
        <pt x="567" y="340" on="1"/>
        <pt x="554" y="237" on="0"/>
        <pt x="505" y="154" on="1"/>
        <pt x="517" y="141" on="0"/>
        <pt x="548" y="105" on="0"/>
        <pt x="560" y="93" on="0"/>
        <pt x="581" y="76" on="0"/>
        <pt x="604" y="73" on="0"/>
        <pt x="638" y="69" on="0"/>
        <pt x="666" y="69" on="1"/>
      </contour>
      <contour>
        <pt x="275" y="437" on="1"/>
        <pt x="361" y="492" on="0"/>
        <pt x="361" y="557" on="1"/>
        <pt x="361" y="587" on="0"/>
        <pt x="324" y="627" on="0"/>
        <pt x="295" y="627" on="1"/>
        <pt x="264" y="627" on="0"/>
        <pt x="226" y="584" on="0"/>
        <pt x="226" y="553" on="1"/>
        <pt x="226" y="504" on="0"/>
      </contour>
      <contour>
        <pt x="409" y="131" on="1"/>
        <pt x="337" y="216" on="0"/>
        <pt x="237" y="345" on="1"/>
        <pt x="136" y="279" on="0"/>
        <pt x="136" y="192" on="1"/>
        <pt x="136" y="136" on="0"/>
        <pt x="212" y="66" on="0"/>
        <pt x="269" y="66" on="1"/>
        <pt x="338" y="66" on="0"/>
      </contour>
    </TTGlyph>
    <TTGlyph name="approxequal" xMin="83" yMin="91" xMax="571" yMax="416">
      <contour>
        <pt x="133" y="290" on="1"/>
        <pt x="83" y="322" on="1"/>
        <pt x="96" y="350" on="0"/>
        <pt x="169" y="416" on="0"/>
        <pt x="217" y="416" on="1"/>
        <pt x="266" y="416" on="0"/>
        <pt x="400" y="347" on="0"/>
        <pt x="433" y="347" on="1"/>
        <pt x="463" y="347" on="0"/>
        <pt x="513" y="391" on="0"/>
        <pt x="520" y="408" on="1"/>
        <pt x="554" y="387" on="0"/>
        <pt x="571" y="376" on="1"/>
        <pt x="563" y="360" on="0"/>
        <pt x="533" y="323" on="0"/>
        <pt x="470" y="282" on="0"/>
        <pt x="436" y="282" on="1"/>
        <pt x="388" y="282" on="0"/>
        <pt x="254" y="351" on="0"/>
        <pt x="220" y="351" on="1"/>
        <pt x="174" y="351" on="0"/>
      </contour>
      <contour>
        <pt x="133" y="99" on="1"/>
        <pt x="83" y="131" on="1"/>
        <pt x="96" y="159" on="0"/>
        <pt x="169" y="225" on="0"/>
        <pt x="217" y="225" on="1"/>
        <pt x="266" y="225" on="0"/>
        <pt x="400" y="156" on="0"/>
        <pt x="433" y="156" on="1"/>
        <pt x="463" y="156" on="0"/>
        <pt x="513" y="200" on="0"/>
        <pt x="520" y="217" on="1"/>
        <pt x="554" y="196" on="0"/>
        <pt x="571" y="185" on="1"/>
        <pt x="563" y="169" on="0"/>
        <pt x="533" y="132" on="0"/>
        <pt x="470" y="91" on="0"/>
        <pt x="436" y="91" on="1"/>
        <pt x="388" y="91" on="0"/>
        <pt x="254" y="160" on="0"/>
        <pt x="220" y="160" on="1"/>
        <pt x="174" y="160" on="0"/>
      </contour>
    </TTGlyph>
    <TTGlyph name="aring" xMin="44" yMin="-11" xMax="498" yMax="750">
      <component glyphName="ring" x="113" y="0" flags="0x4"/>
      <component glyphName="a" x="0" y="0" flags="0x4"/>
    </TTGlyph>
    <TTGlyph name="asciicircum" xMin="56" yMin="0" xMax="562" yMax="497">
      <contour>
        <pt x="562" y="0" on="1"/>
        <pt x="486" y="0" on="1"/>
        <pt x="309" y="405" on="1"/>
        <pt x="133" y="0" on="1"/>
        <pt x="56" y="0" on="1"/>
        <pt x="271" y="497" on="1"/>
        <pt x="345" y="497" on="1"/>
      </contour>
    </TTGlyph>
    <TTGlyph name="asciitilde" xMin="84" yMin="201" xMax="579" yMax="346">
      <contour>
        <pt x="527" y="345" on="1"/>
        <pt x="579" y="298" on="1"/>
        <pt x="555" y="260" on="0"/>
        <pt x="475" y="202" on="0"/>
        <pt x="436" y="202" on="1"/>
        <pt x="396" y="202" on="0"/>
        <pt x="259" y="271" on="0"/>
        <pt x="221" y="271" on="1"/>
        <pt x="195" y="271" on="0"/>
        <pt x="150" y="229" on="0"/>
        <pt x="137" y="201" on="1"/>
        <pt x="84" y="245" on="1"/>
        <pt x="103" y="287" on="0"/>
        <pt x="178" y="346" on="0"/>
        <pt x="221" y="346" on="1"/>
        <pt x="269" y="346" on="0"/>
        <pt x="413" y="277" on="0"/>
        <pt x="436" y="277" on="1"/>
        <pt x="463" y="277" on="0"/>
        <pt x="513" y="317" on="0"/>
      </contour>
    </TTGlyph>
    <TTGlyph name="asterisk" xMin="72" yMin="379" xMax="437" yMax="731">
      <contour>
        <pt x="437" y="569" on="1"/>
        <pt x="300" y="541" on="1"/>
        <pt x="287" y="583" on="1"/>
        <pt x="408" y="647" on="1"/>
      </contour>
      <contour>
        <pt x="273" y="591" on="1"/>
        <pt x="232" y="591" on="1"/>
        <pt x="212" y="731" on="1"/>
        <pt x="290" y="731" on="1"/>
      </contour>
      <contour>
        <pt x="392" y="427" on="1"/>
        <pt x="329" y="379" on="1"/>
        <pt x="261" y="503" on="1"/>
        <pt x="294" y="526" on="1"/>
      </contour>
      <contour>
        <pt x="208" y="546" on="1"/>
        <pt x="72" y="567" on="1"/>
        <pt x="93" y="643" on="1"/>
        <pt x="221" y="582" on="1"/>
      </contour>
      <contour>
        <pt x="178" y="381" on="1"/>
        <pt x="117" y="426" on="1"/>
        <pt x="212" y="530" on="1"/>
        <pt x="246" y="503" on="1"/>
      </contour>
    </TTGlyph>
    <TTGlyph name="at" xMin="51" yMin="-128" xMax="779" yMax="616">
      <contour>
        <pt x="446" y="-75" on="1"/>
        <pt x="458" y="-116" on="1"/>
        <pt x="413" y="-128" on="0"/>
        <pt x="366" y="-128" on="1"/>
        <pt x="229" y="-128" on="0"/>
        <pt x="51" y="55" on="0"/>
        <pt x="51" y="192" on="1"/>
        <pt x="51" y="297" on="0"/>
        <pt x="146" y="488" on="0"/>
        <pt x="334" y="616" on="0"/>
        <pt x="453" y="616" on="1"/>
        <pt x="591" y="616" on="0"/>
        <pt x="779" y="452" on="0"/>
        <pt x="779" y="311" on="1"/>
        <pt x="779" y="210" on="0"/>
        <pt x="674" y="52" on="0"/>
        <pt x="590" y="52" on="1"/>
        <pt x="515" y="52" on="0"/>
        <pt x="487" y="113" on="1"/>
        <pt x="486" y="114" on="0"/>
        <pt x="484" y="114" on="1"/>
        <pt x="463" y="84" on="0"/>
        <pt x="400" y="50" on="0"/>
        <pt x="369" y="50" on="1"/>
        <pt x="308" y="50" on="0"/>
        <pt x="248" y="133" on="0"/>
        <pt x="248" y="197" on="1"/>
        <pt x="248" y="249" on="0"/>
        <pt x="293" y="358" on="0"/>
        <pt x="389" y="440" on="0"/>
        <pt x="449" y="440" on="1"/>
        <pt x="500" y="440" on="0"/>
        <pt x="533" y="404" on="1"/>
        <pt x="539" y="413" on="0"/>
        <pt x="549" y="433" on="1"/>
        <pt x="586" y="433" on="1"/>
        <pt x="546" y="169" on="0"/>
        <pt x="546" y="147" on="1"/>
        <pt x="546" y="95" on="0"/>
        <pt x="592" y="95" on="1"/>
        <pt x="653" y="95" on="0"/>
        <pt x="729" y="226" on="0"/>
        <pt x="729" y="311" on="1"/>
        <pt x="729" y="432" on="0"/>
        <pt x="571" y="574" on="0"/>
        <pt x="453" y="574" on="1"/>
        <pt x="374" y="574" on="0"/>
        <pt x="238" y="507" on="0"/>
        <pt x="150" y="398" on="0"/>
        <pt x="101" y="262" on="0"/>
        <pt x="101" y="192" on="1"/>
        <pt x="101" y="73" on="0"/>
        <pt x="251" y="-86" on="0"/>
        <pt x="366" y="-86" on="1"/>
        <pt x="405" y="-86" on="0"/>
      </contour>
      <contour>
        <pt x="510" y="359" on="1"/>
        <pt x="481" y="391" on="0"/>
        <pt x="446" y="391" on="1"/>
        <pt x="406" y="391" on="0"/>
        <pt x="346" y="317" on="0"/>
        <pt x="322" y="231" on="0"/>
        <pt x="322" y="195" on="1"/>
        <pt x="322" y="99" on="0"/>
        <pt x="383" y="99" on="1"/>
        <pt x="416" y="99" on="0"/>
        <pt x="464" y="151" on="0"/>
        <pt x="492" y="248" on="0"/>
        <pt x="504" y="310" on="0"/>
      </contour>
    </TTGlyph>
    <TTGlyph name="atilde" xMin="44" yMin="-11" xMax="498" yMax="685">
      <component glyphName="tilde" x="79" y="0" flags="0x4"/>
      <component glyphName="a" x="0" y="0" flags="0x4"/>
    </TTGlyph>
    <TTGlyph name="b" xMin="68" yMin="-13" xMax="512" yMax="762">
      <contour>
        <pt x="129" y="-1" on="1"/>
        <pt x="79" y="-1" on="1"/>
        <pt x="82" y="68" on="1"/>
        <pt x="82" y="704" on="1"/>
        <pt x="82" y="705" on="0"/>
        <pt x="75" y="732" on="0"/>
        <pt x="68" y="760" on="0"/>
        <pt x="68" y="762" on="1"/>
        <pt x="165" y="762" on="1"/>
        <pt x="165" y="452" on="1"/>
        <pt x="226" y="507" on="0"/>
        <pt x="305" y="507" on="1"/>
        <pt x="403" y="507" on="0"/>
        <pt x="512" y="353" on="0"/>
        <pt x="512" y="251" on="1"/>
        <pt x="512" y="181" on="0"/>
        <pt x="466" y="64" on="0"/>
        <pt x="364" y="-13" on="0"/>
        <pt x="293" y="-13" on="1"/>
        <pt x="201" y="-13" on="0"/>
        <pt x="147" y="51" on="1"/>
      </contour>
      <contour>
        <pt x="165" y="381" on="1"/>
        <pt x="165" y="199" on="1"/>
        <pt x="165" y="131" on="0"/>
        <pt x="225" y="49" on="0"/>
        <pt x="290" y="49" on="1"/>
        <pt x="337" y="49" on="0"/>
        <pt x="400" y="118" on="0"/>
        <pt x="423" y="203" on="0"/>
        <pt x="423" y="248" on="1"/>
        <pt x="423" y="323" on="0"/>
        <pt x="354" y="436" on="0"/>
        <pt x="284" y="436" on="1"/>
        <pt x="217" y="436" on="0"/>
      </contour>
    </TTGlyph>
    <TTGlyph name="backslash" xMin="-3" yMin="0" xMax="329" yMax="728">
      <contour>
        <pt x="329" y="0" on="1"/>
        <pt x="262" y="0" on="1"/>
        <pt x="-3" y="728" on="1"/>
        <pt x="66" y="728" on="1"/>
      </contour>
    </TTGlyph>
    <TTGlyph name="bar" xMin="82" yMin="-107" xMax="153" yMax="748">
      <contour>
        <pt x="153" y="-107" on="1"/>
        <pt x="82" y="-107" on="1"/>
        <pt x="82" y="748" on="1"/>
        <pt x="153" y="748" on="1"/>
      </contour>
    </TTGlyph>
    <TTGlyph name="braceleft" xMin="58" yMin="-135" xMax="292" yMax="736">
      <contour>
        <pt x="292" y="-135" on="1"/>
        <pt x="267" y="-135" on="1"/>
        <pt x="122" y="-135" on="0"/>
        <pt x="122" y="28" on="1"/>
        <pt x="122" y="192" on="1"/>
        <pt x="122" y="228" on="0"/>
        <pt x="92" y="278" on="0"/>
        <pt x="58" y="278" on="1"/>
        <pt x="58" y="323" on="1"/>
        <pt x="122" y="323" on="0"/>
        <pt x="122" y="420" on="1"/>
        <pt x="122" y="573" on="1"/>
        <pt x="122" y="736" on="0"/>
        <pt x="270" y="736" on="1"/>
        <pt x="292" y="736" on="1"/>
        <pt x="292" y="689" on="1"/>
        <pt x="237" y="689" on="0"/>
        <pt x="203" y="655" on="0"/>
        <pt x="203" y="601" on="1"/>
        <pt x="203" y="431" on="1"/>
        <pt x="203" y="323" on="0"/>
        <pt x="137" y="300" on="1"/>
        <pt x="203" y="277" on="0"/>
        <pt x="203" y="170" on="1"/>
        <pt x="203" y="-8" on="1"/>
        <pt x="203" y="-57" on="0"/>
        <pt x="241" y="-88" on="0"/>
        <pt x="292" y="-88" on="1"/>
      </contour>
    </TTGlyph>
    <TTGlyph name="braceright" xMin="58" yMin="-135" xMax="292" yMax="736">
      <contour>
        <pt x="80" y="-135" on="1"/>
        <pt x="58" y="-135" on="1"/>
        <pt x="58" y="-88" on="1"/>
        <pt x="112" y="-88" on="0"/>
        <pt x="146" y="-53" on="0"/>
        <pt x="146" y="0" on="1"/>
        <pt x="146" y="170" on="1"/>
        <pt x="146" y="277" on="0"/>
        <pt x="212" y="300" on="1"/>
        <pt x="146" y="323" on="0"/>
        <pt x="146" y="431" on="1"/>
        <pt x="146" y="609" on="1"/>
        <pt x="146" y="657" on="0"/>
        <pt x="108" y="689" on="0"/>
        <pt x="58" y="689" on="1"/>
        <pt x="58" y="736" on="1"/>
        <pt x="65" y="736" on="1"/>
        <pt x="150" y="736" on="0"/>
        <pt x="227" y="660" on="0"/>
        <pt x="227" y="573" on="1"/>
        <pt x="227" y="409" on="1"/>
        <pt x="227" y="373" on="0"/>
        <pt x="258" y="323" on="0"/>
        <pt x="292" y="323" on="1"/>
        <pt x="292" y="278" on="1"/>
        <pt x="227" y="278" on="0"/>
        <pt x="227" y="181" on="1"/>
        <pt x="227" y="28" on="1"/>
        <pt x="227" y="-135" on="0"/>
      </contour>
    </TTGlyph>
    <TTGlyph name="bracketleft" xMin="72" yMin="-128" xMax="280" yMax="730">
      <contour>
        <pt x="280" y="-128" on="1"/>
        <pt x="72" y="-128" on="1"/>
        <pt x="72" y="730" on="1"/>
        <pt x="280" y="730" on="1"/>
        <pt x="280" y="681" on="1"/>
        <pt x="153" y="681" on="1"/>
        <pt x="153" y="-79" on="1"/>
        <pt x="280" y="-79" on="1"/>
      </contour>
    </TTGlyph>
    <TTGlyph name="bracketright" xMin="71" yMin="-127" xMax="279" yMax="730">
      <contour>
        <pt x="279" y="-127" on="1"/>
        <pt x="72" y="-127" on="1"/>
        <pt x="72" y="-78" on="1"/>
        <pt x="198" y="-78" on="1"/>
        <pt x="198" y="681" on="1"/>
        <pt x="71" y="681" on="1"/>
        <pt x="71" y="730" on="1"/>
        <pt x="279" y="730" on="1"/>
      </contour>
    </TTGlyph>
    <TTGlyph name="breve" xMin="-2" yMin="562" xMax="277" yMax="701">
      <contour>
        <pt x="228" y="701" on="1"/>
        <pt x="277" y="701" on="1"/>
        <pt x="262" y="562" on="0"/>
        <pt x="138" y="562" on="1"/>
        <pt x="75" y="562" on="0"/>
        <pt x="5" y="637" on="0"/>
        <pt x="-2" y="701" on="1"/>
        <pt x="48" y="701" on="1"/>
        <pt x="63" y="631" on="0"/>
        <pt x="138" y="631" on="1"/>
        <pt x="212" y="631" on="0"/>
      </contour>
    </TTGlyph>
    <TTGlyph name="brokenbar" xMin="84" yMin="-115" xMax="152" yMax="742">
      <contour>
        <pt x="152" y="393" on="1"/>
        <pt x="84" y="393" on="1"/>
        <pt x="84" y="742" on="1"/>
        <pt x="152" y="742" on="1"/>
      </contour>
      <contour>
        <pt x="152" y="-115" on="1"/>
        <pt x="84" y="-115" on="1"/>
        <pt x="84" y="233" on="1"/>
        <pt x="152" y="233" on="1"/>
      </contour>
    </TTGlyph>
    <TTGlyph name="bullet" xMin="60" yMin="196" xMax="381" yMax="518">
      <contour>
        <pt x="334" y="243" on="1"/>
        <pt x="288" y="196" on="0"/>
        <pt x="221" y="196" on="1"/>
        <pt x="154" y="196" on="0"/>
        <pt x="60" y="290" on="0"/>
        <pt x="60" y="424" on="0"/>
        <pt x="154" y="518" on="0"/>
        <pt x="221" y="518" on="1"/>
        <pt x="288" y="518" on="0"/>
        <pt x="381" y="424" on="0"/>
        <pt x="381" y="290" on="0"/>
      </contour>
    </TTGlyph>
    <TTGlyph name="c" xMin="44" yMin="-13" xMax="433" yMax="509">
      <contour>
        <pt x="395" y="100" on="1"/>
        <pt x="433" y="37" on="1"/>
        <pt x="386" y="9" on="0"/>
        <pt x="319" y="-13" on="0"/>
        <pt x="269" y="-13" on="1"/>
        <pt x="169" y="-13" on="0"/>
        <pt x="44" y="146" on="0"/>
        <pt x="44" y="248" on="1"/>
        <pt x="44" y="361" on="0"/>
        <pt x="171" y="509" on="0"/>
        <pt x="282" y="509" on="1"/>
        <pt x="359" y="509" on="0"/>
        <pt x="426" y="458" on="1"/>
        <pt x="381" y="400" on="1"/>
        <pt x="352" y="425" on="0"/>
        <pt x="305" y="444" on="0"/>
        <pt x="269" y="444" on="1"/>
        <pt x="204" y="444" on="0"/>
        <pt x="133" y="326" on="0"/>
        <pt x="133" y="257" on="1"/>
        <pt x="133" y="211" on="0"/>
        <pt x="160" y="124" on="0"/>
        <pt x="227" y="56" on="0"/>
        <pt x="274" y="56" on="1"/>
        <pt x="310" y="56" on="0"/>
        <pt x="360" y="76" on="0"/>
      </contour>
    </TTGlyph>
    <TTGlyph name="caron" xMin="-8" yMin="547" xMax="283" yMax="723">
      <contour>
        <pt x="180" y="547" on="1"/>
        <pt x="96" y="547" on="1"/>
        <pt x="-8" y="723" on="1"/>
        <pt x="61" y="723" on="1"/>
        <pt x="138" y="620" on="1"/>
        <pt x="215" y="723" on="1"/>
        <pt x="283" y="723" on="1"/>
      </contour>
    </TTGlyph>
    <TTGlyph name="ccedilla" xMin="44" yMin="-220" xMax="433" yMax="509">
      <contour>
        <pt x="151" y="-192" on="1"/>
        <pt x="175" y="-146" on="1"/>
        <pt x="217" y="-169" on="0"/>
        <pt x="239" y="-169" on="1"/>
        <pt x="257" y="-169" on="0"/>
        <pt x="283" y="-147" on="0"/>
        <pt x="283" y="-130" on="1"/>
        <pt x="283" y="-114" on="0"/>
        <pt x="262" y="-95" on="0"/>
        <pt x="245" y="-95" on="1"/>
        <pt x="198" y="-95" on="1"/>
        <pt x="182" y="-95" on="0"/>
        <pt x="182" y="-83" on="1"/>
        <pt x="182" y="-81" on="0"/>
        <pt x="184" y="-77" on="1"/>
        <pt x="223" y="-8" on="1"/>
        <pt x="142" y="10" on="0"/>
        <pt x="44" y="159" on="0"/>
        <pt x="44" y="248" on="1"/>
        <pt x="44" y="361" on="0"/>
        <pt x="171" y="509" on="0"/>
        <pt x="282" y="509" on="1"/>
        <pt x="359" y="509" on="0"/>
        <pt x="426" y="458" on="1"/>
        <pt x="381" y="400" on="1"/>
        <pt x="352" y="425" on="0"/>
        <pt x="305" y="444" on="0"/>
        <pt x="269" y="444" on="1"/>
        <pt x="204" y="444" on="0"/>
        <pt x="133" y="326" on="0"/>
        <pt x="133" y="257" on="1"/>
        <pt x="133" y="211" on="0"/>
        <pt x="160" y="124" on="0"/>
        <pt x="227" y="56" on="0"/>
        <pt x="274" y="56" on="1"/>
        <pt x="310" y="56" on="0"/>
        <pt x="360" y="76" on="0"/>
        <pt x="395" y="100" on="1"/>
        <pt x="433" y="37" on="1"/>
        <pt x="386" y="9" on="0"/>
        <pt x="319" y="-13" on="0"/>
        <pt x="268" y="-13" on="1"/>
        <pt x="250" y="-46" on="1"/>
        <pt x="262" y="-46" on="1"/>
        <pt x="303" y="-46" on="0"/>
        <pt x="366" y="-86" on="0"/>
        <pt x="366" y="-127" on="1"/>
        <pt x="366" y="-220" on="0"/>
        <pt x="239" y="-220" on="1"/>
        <pt x="195" y="-220" on="0"/>
      </contour>
    </TTGlyph>
    <TTGlyph name="cedilla" xMin="32" yMin="-220" xMax="247" yMax="9">
      <contour>
        <pt x="32" y="-192" on="1"/>
        <pt x="56" y="-146" on="1"/>
        <pt x="98" y="-169" on="0"/>
        <pt x="120" y="-169" on="1"/>
        <pt x="138" y="-169" on="0"/>
        <pt x="164" y="-147" on="0"/>
        <pt x="164" y="-130" on="1"/>
        <pt x="164" y="-114" on="0"/>
        <pt x="143" y="-95" on="0"/>
        <pt x="126" y="-95" on="1"/>
        <pt x="79" y="-95" on="1"/>
        <pt x="72" y="-95" on="0"/>
        <pt x="66" y="-86" on="0"/>
        <pt x="66" y="-82" on="1"/>
        <pt x="66" y="-77" on="1"/>
        <pt x="114" y="9" on="1"/>
        <pt x="161" y="9" on="1"/>
        <pt x="132" y="-46" on="1"/>
        <pt x="143" y="-46" on="1"/>
        <pt x="184" y="-46" on="0"/>
        <pt x="247" y="-86" on="0"/>
        <pt x="247" y="-127" on="1"/>
        <pt x="247" y="-220" on="0"/>
        <pt x="117" y="-220" on="1"/>
        <pt x="76" y="-220" on="0"/>
      </contour>
    </TTGlyph>
    <TTGlyph name="cent" xMin="41" yMin="-118" xMax="430" yMax="612">
      <contour>
        <pt x="248" y="-118" on="1"/>
        <pt x="176" y="-118" on="1"/>
        <pt x="207" y="-6" on="1"/>
        <pt x="125" y="17" on="0"/>
        <pt x="41" y="156" on="0"/>
        <pt x="41" y="247" on="1"/>
        <pt x="41" y="353" on="0"/>
        <pt x="153" y="498" on="0"/>
        <pt x="256" y="507" on="1"/>
        <pt x="266" y="612" on="1"/>
        <pt x="340" y="612" on="1"/>
        <pt x="310" y="505" on="1"/>
        <pt x="374" y="495" on="0"/>
        <pt x="423" y="457" on="1"/>
        <pt x="379" y="399" on="1"/>
        <pt x="348" y="424" on="0"/>
        <pt x="303" y="443" on="0"/>
        <pt x="266" y="443" on="1"/>
        <pt x="201" y="443" on="0"/>
        <pt x="130" y="325" on="0"/>
        <pt x="130" y="256" on="1"/>
        <pt x="130" y="210" on="0"/>
        <pt x="157" y="123" on="0"/>
        <pt x="224" y="55" on="0"/>
        <pt x="271" y="55" on="1"/>
        <pt x="308" y="55" on="0"/>
        <pt x="358" y="75" on="0"/>
        <pt x="392" y="99" on="1"/>
        <pt x="430" y="35" on="1"/>
        <pt x="358" y="-14" on="0"/>
        <pt x="273" y="-14" on="1"/>
        <pt x="258" y="-14" on="1"/>
      </contour>
    </TTGlyph>
    <TTGlyph name="circumflex" xMin="-8" yMin="565" xMax="283" yMax="720">
      <contour>
        <pt x="283" y="565" on="1"/>
        <pt x="214" y="565" on="1"/>
        <pt x="135" y="647" on="1"/>
        <pt x="59" y="566" on="1"/>
        <pt x="-8" y="566" on="1"/>
        <pt x="94" y="720" on="1"/>
        <pt x="177" y="720" on="1"/>
      </contour>
    </TTGlyph>
    <TTGlyph name="colon" xMin="96" yMin="-13" xMax="228" yMax="434">
      <contour>
        <pt x="96" y="53" on="1"/>
        <pt x="96" y="81" on="0"/>
        <pt x="134" y="119" on="0"/>
        <pt x="162" y="119" on="1"/>
        <pt x="189" y="119" on="0"/>
        <pt x="228" y="80" on="0"/>
        <pt x="228" y="26" on="0"/>
        <pt x="189" y="-13" on="0"/>
        <pt x="162" y="-13" on="1"/>
        <pt x="135" y="-13" on="0"/>
        <pt x="96" y="26" on="0"/>
      </contour>
      <contour>
        <pt x="96" y="368" on="1"/>
        <pt x="96" y="396" on="0"/>
        <pt x="134" y="434" on="0"/>
        <pt x="162" y="434" on="1"/>
        <pt x="189" y="434" on="0"/>
        <pt x="228" y="395" on="0"/>
        <pt x="228" y="341" on="0"/>
        <pt x="189" y="302" on="0"/>
        <pt x="162" y="302" on="1"/>
        <pt x="135" y="302" on="0"/>
        <pt x="96" y="341" on="0"/>
      </contour>
    </TTGlyph>
    <TTGlyph name="comma" xMin="46" yMin="-127" xMax="183" yMax="124">
      <contour>
        <pt x="47" y="-93" on="1"/>
        <pt x="49" y="-90" on="0"/>
        <pt x="67" y="-73" on="0"/>
        <pt x="77" y="-62" on="0"/>
        <pt x="90" y="-45" on="0"/>
        <pt x="96" y="-29" on="0"/>
        <pt x="96" y="-22" on="1"/>
        <pt x="96" y="-11" on="0"/>
        <pt x="46" y="36" on="0"/>
        <pt x="46" y="64" on="1"/>
        <pt x="46" y="89" on="0"/>
        <pt x="82" y="124" on="0"/>
        <pt x="108" y="124" on="1"/>
        <pt x="143" y="124" on="0"/>
        <pt x="183" y="74" on="0"/>
        <pt x="183" y="39" on="1"/>
        <pt x="183" y="-53" on="0"/>
        <pt x="81" y="-127" on="1"/>
        <pt x="63" y="-111" on="0"/>
      </contour>
    </TTGlyph>
    <TTGlyph name="copyright" xMin="44" yMin="-22" xMax="588" yMax="522">
      <contour>
        <pt x="508" y="442" on="1"/>
        <pt x="588" y="362" on="0"/>
        <pt x="588" y="138" on="0"/>
        <pt x="428" y="-22" on="0"/>
        <pt x="316" y="-22" on="1"/>
        <pt x="204" y="-22" on="0"/>
        <pt x="44" y="138" on="0"/>
        <pt x="44" y="362" on="0"/>
        <pt x="204" y="522" on="0"/>
        <pt x="316" y="522" on="1"/>
        <pt x="428" y="522" on="0"/>
      </contour>
      <contour>
        <pt x="480" y="85" on="1"/>
        <pt x="549" y="154" on="0"/>
        <pt x="549" y="346" on="0"/>
        <pt x="412" y="483" on="0"/>
        <pt x="316" y="483" on="1"/>
        <pt x="220" y="483" on="0"/>
        <pt x="83" y="346" on="0"/>
        <pt x="83" y="154" on="0"/>
        <pt x="220" y="17" on="0"/>
        <pt x="316" y="17" on="1"/>
        <pt x="412" y="17" on="0"/>
      </contour>
      <contour>
        <pt x="400" y="162" on="1"/>
        <pt x="426" y="119" on="1"/>
        <pt x="371" y="88" on="0"/>
        <pt x="318" y="88" on="1"/>
        <pt x="250" y="88" on="0"/>
        <pt x="171" y="181" on="0"/>
        <pt x="171" y="251" on="1"/>
        <pt x="171" y="323" on="0"/>
        <pt x="255" y="414" on="0"/>
        <pt x="326" y="414" on="1"/>
        <pt x="370" y="414" on="0"/>
        <pt x="421" y="381" on="1"/>
        <pt x="391" y="343" on="1"/>
        <pt x="359" y="370" on="0"/>
        <pt x="318" y="370" on="1"/>
        <pt x="277" y="370" on="0"/>
        <pt x="232" y="299" on="0"/>
        <pt x="232" y="256" on="1"/>
        <pt x="232" y="211" on="0"/>
        <pt x="278" y="134" on="0"/>
        <pt x="321" y="134" on="1"/>
        <pt x="358" y="134" on="0"/>
      </contour>
    </TTGlyph>
    <TTGlyph name="currency" xMin="47" yMin="114" xMax="485" yMax="551">
      <contour>
        <pt x="427" y="218" on="1"/>
        <pt x="485" y="162" on="1"/>
        <pt x="468" y="146" on="0"/>
        <pt x="436" y="114" on="1"/>
        <pt x="399" y="148" on="0"/>
        <pt x="382" y="167" on="1"/>
        <pt x="332" y="125" on="0"/>
        <pt x="266" y="125" on="1"/>
        <pt x="202" y="125" on="0"/>
        <pt x="149" y="167" on="1"/>
        <pt x="143" y="161" on="0"/>
        <pt x="122" y="140" on="0"/>
        <pt x="104" y="122" on="0"/>
        <pt x="96" y="114" on="1"/>
        <pt x="47" y="163" on="1"/>
        <pt x="103" y="219" on="1"/>
        <pt x="72" y="271" on="0"/>
        <pt x="72" y="332" on="1"/>
        <pt x="72" y="392" on="0"/>
        <pt x="104" y="445" on="1"/>
        <pt x="47" y="502" on="1"/>
        <pt x="72" y="526" on="0"/>
        <pt x="96" y="551" on="1"/>
        <pt x="150" y="496" on="1"/>
        <pt x="202" y="538" on="0"/>
        <pt x="266" y="538" on="1"/>
        <pt x="331" y="538" on="0"/>
        <pt x="381" y="497" on="1"/>
        <pt x="436" y="551" on="1"/>
        <pt x="485" y="502" on="1"/>
        <pt x="427" y="445" on="1"/>
        <pt x="460" y="391" on="0"/>
        <pt x="460" y="332" on="1"/>
        <pt x="460" y="272" on="0"/>
      </contour>
      <contour>
        <pt x="266" y="186" on="1"/>
        <pt x="316" y="186" on="0"/>
        <pt x="388" y="268" on="0"/>
        <pt x="388" y="332" on="1"/>
        <pt x="388" y="393" on="0"/>
        <pt x="318" y="477" on="0"/>
        <pt x="266" y="477" on="1"/>
        <pt x="214" y="477" on="0"/>
        <pt x="145" y="393" on="0"/>
        <pt x="145" y="332" on="1"/>
        <pt x="145" y="269" on="0"/>
        <pt x="217" y="186" on="0"/>
      </contour>
    </TTGlyph>
    <TTGlyph name="d" xMin="45" yMin="-13" xMax="505" yMax="762">
      <contour>
        <pt x="505" y="2" on="1"/>
        <pt x="417" y="-9" on="1"/>
        <pt x="403" y="22" on="0"/>
        <pt x="398" y="59" on="1"/>
        <pt x="342" y="-13" on="0"/>
        <pt x="251" y="-13" on="1"/>
        <pt x="153" y="-13" on="0"/>
        <pt x="45" y="141" on="0"/>
        <pt x="45" y="244" on="1"/>
        <pt x="45" y="354" on="0"/>
        <pt x="160" y="508" on="0"/>
        <pt x="267" y="508" on="1"/>
        <pt x="344" y="508" on="0"/>
        <pt x="392" y="464" on="1"/>
        <pt x="392" y="703" on="1"/>
        <pt x="378" y="762" on="1"/>
        <pt x="474" y="762" on="1"/>
        <pt x="474" y="143" on="1"/>
        <pt x="474" y="54" on="0"/>
      </contour>
      <contour>
        <pt x="392" y="126" on="1"/>
        <pt x="392" y="294" on="1"/>
        <pt x="392" y="358" on="0"/>
        <pt x="331" y="440" on="0"/>
        <pt x="269" y="440" on="1"/>
        <pt x="231" y="440" on="0"/>
        <pt x="176" y="406" on="0"/>
        <pt x="147" y="349" on="0"/>
        <pt x="133" y="286" on="0"/>
        <pt x="133" y="250" on="1"/>
        <pt x="133" y="172" on="0"/>
        <pt x="203" y="60" on="0"/>
        <pt x="276" y="60" on="1"/>
        <pt x="334" y="60" on="0"/>
      </contour>
    </TTGlyph>
    <TTGlyph name="dagger" xMin="51" yMin="-138" xMax="482" yMax="740">
      <contour>
        <pt x="291" y="-138" on="1"/>
        <pt x="245" y="-138" on="1"/>
        <pt x="227" y="160" on="1"/>
        <pt x="226" y="177" on="0"/>
        <pt x="218" y="275" on="0"/>
        <pt x="218" y="309" on="1"/>
        <pt x="218" y="320" on="0"/>
        <pt x="228" y="380" on="0"/>
        <pt x="242" y="455" on="0"/>
        <pt x="243" y="462" on="1"/>
        <pt x="117" y="440" on="1"/>
        <pt x="51" y="485" on="1"/>
        <pt x="117" y="529" on="1"/>
        <pt x="243" y="504" on="1"/>
        <pt x="217" y="658" on="1"/>
        <pt x="264" y="740" on="1"/>
        <pt x="316" y="658" on="1"/>
        <pt x="289" y="504" on="1"/>
        <pt x="418" y="529" on="1"/>
        <pt x="482" y="481" on="1"/>
        <pt x="418" y="440" on="1"/>
        <pt x="289" y="462" on="1"/>
        <pt x="290" y="456" on="0"/>
        <pt x="305" y="380" on="0"/>
        <pt x="315" y="319" on="0"/>
        <pt x="315" y="309" on="1"/>
        <pt x="315" y="283" on="0"/>
        <pt x="312" y="237" on="0"/>
        <pt x="308" y="181" on="0"/>
        <pt x="307" y="160" on="1"/>
      </contour>
    </TTGlyph>
    <TTGlyph name="daggerdbl" xMin="51" yMin="-139" xMax="482" yMax="740">
      <contour>
        <pt x="270" y="-139" on="1"/>
        <pt x="217" y="-61" on="1"/>
        <pt x="243" y="93" on="1"/>
        <pt x="117" y="68" on="1"/>
        <pt x="51" y="117" on="1"/>
        <pt x="117" y="155" on="1"/>
        <pt x="244" y="135" on="1"/>
        <pt x="242" y="146" on="0"/>
        <pt x="228" y="227" on="0"/>
        <pt x="218" y="296" on="0"/>
        <pt x="218" y="309" on="1"/>
        <pt x="218" y="320" on="0"/>
        <pt x="228" y="380" on="0"/>
        <pt x="242" y="455" on="0"/>
        <pt x="243" y="462" on="1"/>
        <pt x="117" y="440" on="1"/>
        <pt x="51" y="485" on="1"/>
        <pt x="117" y="529" on="1"/>
        <pt x="243" y="504" on="1"/>
        <pt x="217" y="658" on="1"/>
        <pt x="264" y="740" on="1"/>
        <pt x="316" y="658" on="1"/>
        <pt x="289" y="504" on="1"/>
        <pt x="418" y="529" on="1"/>
        <pt x="482" y="481" on="1"/>
        <pt x="418" y="440" on="1"/>
        <pt x="289" y="462" on="1"/>
        <pt x="290" y="457" on="0"/>
        <pt x="304" y="381" on="0"/>
        <pt x="316" y="313" on="0"/>
        <pt x="316" y="309" on="1"/>
        <pt x="316" y="295" on="0"/>
        <pt x="307" y="227" on="0"/>
        <pt x="293" y="146" on="0"/>
        <pt x="292" y="135" on="1"/>
        <pt x="415" y="155" on="1"/>
        <pt x="482" y="112" on="1"/>
        <pt x="415" y="68" on="1"/>
        <pt x="293" y="93" on="1"/>
        <pt x="316" y="-61" on="1"/>
      </contour>
    </TTGlyph>
    <TTGlyph name="degree" xMin="44" yMin="443" xMax="344" yMax="743">
      <contour>
        <pt x="300" y="699" on="1"/>
        <pt x="344" y="655" on="0"/>
        <pt x="344" y="531" on="0"/>
        <pt x="256" y="443" on="0"/>
        <pt x="194" y="443" on="1"/>
        <pt x="132" y="443" on="0"/>
        <pt x="44" y="531" on="0"/>
        <pt x="44" y="655" on="0"/>
        <pt x="132" y="743" on="0"/>
        <pt x="194" y="743" on="1"/>
        <pt x="256" y="743" on="0"/>
      </contour>
      <contour>
        <pt x="131" y="529" on="1"/>
        <pt x="157" y="503" on="0"/>
        <pt x="194" y="503" on="1"/>
        <pt x="231" y="503" on="0"/>
        <pt x="281" y="556" on="0"/>
        <pt x="281" y="630" on="0"/>
        <pt x="231" y="683" on="0"/>
        <pt x="194" y="683" on="1"/>
        <pt x="157" y="683" on="0"/>
        <pt x="106" y="630" on="0"/>
        <pt x="106" y="556" on="0"/>
      </contour>
    </TTGlyph>
    <TTGlyph name="dieresis" xMin="0" yMin="567" xMax="276" yMax="681">
      <contour>
        <pt x="276" y="624" on="1"/>
        <pt x="276" y="601" on="0"/>
        <pt x="242" y="567" on="0"/>
        <pt x="219" y="567" on="1"/>
        <pt x="196" y="567" on="0"/>
        <pt x="163" y="601" on="0"/>
        <pt x="163" y="647" on="0"/>
        <pt x="196" y="681" on="0"/>
        <pt x="219" y="681" on="1"/>
        <pt x="243" y="681" on="0"/>
        <pt x="276" y="648" on="0"/>
      </contour>
      <contour>
        <pt x="113" y="624" on="1"/>
        <pt x="113" y="601" on="0"/>
        <pt x="79" y="567" on="0"/>
        <pt x="56" y="567" on="1"/>
        <pt x="33" y="567" on="0"/>
        <pt x="0" y="601" on="0"/>
        <pt x="0" y="647" on="0"/>
        <pt x="33" y="681" on="0"/>
        <pt x="56" y="681" on="1"/>
        <pt x="80" y="681" on="0"/>
        <pt x="113" y="648" on="0"/>
      </contour>
    </TTGlyph>
    <TTGlyph name="divide" xMin="68" yMin="20" xMax="567" yMax="474">
      <contour>
        <pt x="358" y="456" on="1"/>
        <pt x="376" y="438" on="0"/>
        <pt x="376" y="388" on="0"/>
        <pt x="341" y="353" on="0"/>
        <pt x="316" y="353" on="1"/>
        <pt x="291" y="353" on="0"/>
        <pt x="255" y="388" on="0"/>
        <pt x="255" y="438" on="0"/>
        <pt x="291" y="474" on="0"/>
        <pt x="316" y="474" on="1"/>
        <pt x="341" y="474" on="0"/>
      </contour>
      <contour>
        <pt x="567" y="211" on="1"/>
        <pt x="68" y="211" on="1"/>
        <pt x="68" y="281" on="1"/>
        <pt x="567" y="281" on="1"/>
      </contour>
      <contour>
        <pt x="358" y="122" on="1"/>
        <pt x="376" y="105" on="0"/>
        <pt x="376" y="55" on="0"/>
        <pt x="341" y="20" on="0"/>
        <pt x="316" y="20" on="1"/>
        <pt x="291" y="20" on="0"/>
        <pt x="255" y="55" on="0"/>
        <pt x="255" y="105" on="0"/>
        <pt x="291" y="140" on="0"/>
        <pt x="316" y="140" on="1"/>
        <pt x="341" y="140" on="0"/>
      </contour>
    </TTGlyph>
    <TTGlyph name="dollar" xMin="67" yMin="-116" xMax="396" yMax="613">
      <contour>
        <pt x="228" y="-116" on="1"/>
        <pt x="155" y="-116" on="1"/>
        <pt x="186" y="-13" on="1"/>
        <pt x="133" y="-7" on="0"/>
        <pt x="67" y="29" on="1"/>
        <pt x="104" y="90" on="1"/>
        <pt x="160" y="50" on="0"/>
        <pt x="209" y="50" on="1"/>
        <pt x="250" y="50" on="0"/>
        <pt x="309" y="83" on="0"/>
        <pt x="309" y="121" on="1"/>
        <pt x="309" y="151" on="0"/>
        <pt x="261" y="197" on="0"/>
        <pt x="192" y="228" on="0"/>
        <pt x="124" y="263" on="0"/>
        <pt x="76" y="323" on="0"/>
        <pt x="76" y="364" on="1"/>
        <pt x="76" y="430" on="0"/>
        <pt x="172" y="506" on="0"/>
        <pt x="240" y="509" on="1"/>
        <pt x="250" y="613" on="1"/>
        <pt x="322" y="613" on="1"/>
        <pt x="290" y="506" on="1"/>
        <pt x="347" y="497" on="0"/>
        <pt x="385" y="474" on="1"/>
        <pt x="356" y="410" on="1"/>
        <pt x="309" y="446" on="0"/>
        <pt x="260" y="446" on="1"/>
        <pt x="221" y="446" on="0"/>
        <pt x="162" y="413" on="0"/>
        <pt x="162" y="378" on="1"/>
        <pt x="162" y="348" on="0"/>
        <pt x="210" y="304" on="0"/>
        <pt x="279" y="275" on="0"/>
        <pt x="348" y="241" on="0"/>
        <pt x="396" y="181" on="0"/>
        <pt x="396" y="138" on="1"/>
        <pt x="396" y="70" on="0"/>
        <pt x="307" y="-8" on="0"/>
        <pt x="237" y="-14" on="1"/>
      </contour>
    </TTGlyph>
    <TTGlyph name="dotaccent" xMin="77" yMin="559" xMax="209" yMax="691">
      <contour>
        <pt x="77" y="625" on="1"/>
        <pt x="77" y="653" on="0"/>
        <pt x="115" y="691" on="0"/>
        <pt x="143" y="691" on="1"/>
        <pt x="170" y="691" on="0"/>
        <pt x="209" y="652" on="0"/>
        <pt x="209" y="598" on="0"/>
        <pt x="170" y="559" on="0"/>
        <pt x="143" y="559" on="1"/>
        <pt x="116" y="559" on="0"/>
        <pt x="77" y="598" on="0"/>
      </contour>
    </TTGlyph>
    <TTGlyph name="dotlessi" xMin="72" yMin="0" xMax="167" yMax="497">
      <contour>
        <pt x="167" y="0" on="1"/>
        <pt x="84" y="0" on="1"/>
        <pt x="84" y="438" on="1"/>
        <pt x="84" y="439" on="0"/>
        <pt x="78" y="466" on="0"/>
        <pt x="72" y="495" on="0"/>
        <pt x="72" y="497" on="1"/>
        <pt x="167" y="497" on="1"/>
      </contour>
    </TTGlyph>
    <TTGlyph name="e" xMin="44" yMin="-13" xMax="453" yMax="509">
      <contour>
        <pt x="406" y="103" on="1"/>
        <pt x="443" y="43" on="1"/>
        <pt x="374" y="-13" on="0"/>
        <pt x="275" y="-13" on="1"/>
        <pt x="167" y="-13" on="0"/>
        <pt x="44" y="132" on="0"/>
        <pt x="44" y="243" on="1"/>
        <pt x="44" y="311" on="0"/>
        <pt x="89" y="429" on="0"/>
        <pt x="190" y="509" on="0"/>
        <pt x="260" y="509" on="1"/>
        <pt x="347" y="509" on="0"/>
        <pt x="453" y="406" on="0"/>
        <pt x="453" y="320" on="1"/>
        <pt x="453" y="256" on="0"/>
        <pt x="402" y="256" on="1"/>
        <pt x="132" y="256" on="1"/>
        <pt x="132" y="246" on="1"/>
        <pt x="132" y="174" on="0"/>
        <pt x="209" y="57" on="0"/>
        <pt x="277" y="57" on="1"/>
        <pt x="310" y="57" on="0"/>
        <pt x="382" y="82" on="0"/>
      </contour>
      <contour>
        <pt x="138" y="318" on="1"/>
        <pt x="347" y="318" on="1"/>
        <pt x="358" y="318" on="0"/>
        <pt x="364" y="327" on="0"/>
        <pt x="364" y="339" on="1"/>
        <pt x="364" y="384" on="0"/>
        <pt x="312" y="446" on="0"/>
        <pt x="268" y="446" on="1"/>
        <pt x="220" y="446" on="0"/>
        <pt x="147" y="368" on="0"/>
      </contour>
    </TTGlyph>
    <TTGlyph name="eacute" xMin="44" yMin="-13" xMax="453" yMax="728">
      <component glyphName="acute" x="188" y="5" flags="0x4"/>
      <component glyphName="e" x="0" y="0" flags="0x4"/>
    </TTGlyph>
    <TTGlyph name="ecircumflex" xMin="44" yMin="-13" xMax="453" yMax="728">
      <component glyphName="circumflex" x="123" y="8" flags="0x4"/>
      <component glyphName="e" x="0" y="0" flags="0x4"/>
    </TTGlyph>
    <TTGlyph name="edieresis" xMin="44" yMin="-13" xMax="453" yMax="681">
      <component glyphName="dieresis" x="128" y="0" flags="0x4"/>
      <component glyphName="e" x="0" y="0" flags="0x4"/>
    </TTGlyph>
    <TTGlyph name="egrave" xMin="44" yMin="-13" xMax="453" yMax="728">
      <component glyphName="e" x="0" y="0" flags="0x204"/>
      <component glyphName="grave" x="60" y="0" flags="0x4"/>
    </TTGlyph>
    <TTGlyph name="eight" xMin="47" yMin="-11" xMax="442" yMax="729">
      <contour>
        <pt x="314" y="392" on="1"/>
        <pt x="305" y="383" on="1"/>
        <pt x="307" y="381" on="0"/>
        <pt x="361" y="329" on="0"/>
        <pt x="374" y="315" on="0"/>
        <pt x="414" y="267" on="0"/>
        <pt x="427" y="239" on="0"/>
        <pt x="442" y="194" on="0"/>
        <pt x="442" y="172" on="1"/>
        <pt x="442" y="87" on="0"/>
        <pt x="326" y="-11" on="0"/>
        <pt x="238" y="-11" on="1"/>
        <pt x="161" y="-11" on="0"/>
        <pt x="47" y="82" on="0"/>
        <pt x="47" y="158" on="1"/>
        <pt x="47" y="195" on="0"/>
        <pt x="63" y="252" on="0"/>
        <pt x="104" y="303" on="0"/>
        <pt x="136" y="333" on="0"/>
        <pt x="169" y="361" on="1"/>
        <pt x="185" y="374" on="1"/>
        <pt x="176" y="384" on="0"/>
        <pt x="116" y="443" on="0"/>
        <pt x="95" y="471" on="0"/>
        <pt x="71" y="528" on="0"/>
        <pt x="71" y="560" on="1"/>
        <pt x="71" y="630" on="0"/>
        <pt x="175" y="729" on="0"/>
        <pt x="246" y="729" on="1"/>
        <pt x="319" y="729" on="0"/>
        <pt x="418" y="642" on="0"/>
        <pt x="418" y="570" on="1"/>
        <pt x="418" y="532" on="0"/>
        <pt x="384" y="462" on="0"/>
        <pt x="350" y="425" on="0"/>
      </contour>
      <contour>
        <pt x="254" y="432" on="1"/>
        <pt x="338" y="506" on="0"/>
        <pt x="338" y="570" on="1"/>
        <pt x="338" y="611" on="0"/>
        <pt x="289" y="670" on="0"/>
        <pt x="248" y="670" on="1"/>
        <pt x="207" y="670" on="0"/>
        <pt x="164" y="607" on="0"/>
        <pt x="164" y="565" on="1"/>
        <pt x="164" y="552" on="0"/>
        <pt x="174" y="525" on="0"/>
        <pt x="185" y="505" on="0"/>
        <pt x="208" y="477" on="0"/>
        <pt x="222" y="463" on="0"/>
        <pt x="250" y="436" on="0"/>
      </contour>
      <contour>
        <pt x="234" y="326" on="1"/>
        <pt x="219" y="313" on="1"/>
        <pt x="194" y="291" on="0"/>
        <pt x="173" y="270" on="0"/>
        <pt x="141" y="230" on="0"/>
        <pt x="129" y="188" on="0"/>
        <pt x="129" y="161" on="1"/>
        <pt x="129" y="117" on="0"/>
        <pt x="192" y="49" on="0"/>
        <pt x="236" y="49" on="1"/>
        <pt x="286" y="49" on="0"/>
        <pt x="349" y="116" on="0"/>
        <pt x="349" y="166" on="1"/>
        <pt x="349" y="185" on="0"/>
        <pt x="335" y="221" on="0"/>
        <pt x="305" y="258" on="0"/>
        <pt x="282" y="282" on="0"/>
        <pt x="240" y="320" on="0"/>
      </contour>
    </TTGlyph>
    <TTGlyph name="ellipsis" xMin="82" yMin="-13" xMax="636" yMax="119">
      <contour>
        <pt x="82" y="53" on="1"/>
        <pt x="82" y="81" on="0"/>
        <pt x="120" y="119" on="0"/>
        <pt x="148" y="119" on="1"/>
        <pt x="175" y="119" on="0"/>
        <pt x="214" y="80" on="0"/>
        <pt x="214" y="26" on="0"/>
        <pt x="175" y="-13" on="0"/>
        <pt x="148" y="-13" on="1"/>
        <pt x="121" y="-13" on="0"/>
        <pt x="82" y="26" on="0"/>
      </contour>
      <contour>
        <pt x="293" y="53" on="1"/>
        <pt x="293" y="81" on="0"/>
        <pt x="331" y="119" on="0"/>
        <pt x="359" y="119" on="1"/>
        <pt x="386" y="119" on="0"/>
        <pt x="425" y="80" on="0"/>
        <pt x="425" y="26" on="0"/>
        <pt x="386" y="-13" on="0"/>
        <pt x="359" y="-13" on="1"/>
        <pt x="332" y="-13" on="0"/>
        <pt x="293" y="26" on="0"/>
      </contour>
      <contour>
        <pt x="504" y="53" on="1"/>
        <pt x="504" y="81" on="0"/>
        <pt x="542" y="119" on="0"/>
        <pt x="570" y="119" on="1"/>
        <pt x="597" y="119" on="0"/>
        <pt x="636" y="80" on="0"/>
        <pt x="636" y="26" on="0"/>
        <pt x="597" y="-13" on="0"/>
        <pt x="570" y="-13" on="1"/>
        <pt x="543" y="-13" on="0"/>
        <pt x="504" y="26" on="0"/>
      </contour>
    </TTGlyph>
    <TTGlyph name="emdash" xMin="8" yMin="230" xMax="843" yMax="291">
      <contour>
        <pt x="843" y="230" on="1"/>
        <pt x="8" y="230" on="1"/>
        <pt x="8" y="291" on="1"/>
        <pt x="843" y="291" on="1"/>
      </contour>
    </TTGlyph>
    <TTGlyph name="endash" xMin="8" yMin="230" xMax="493" yMax="292">
      <contour>
        <pt x="493" y="230" on="1"/>
        <pt x="8" y="230" on="1"/>
        <pt x="8" y="292" on="1"/>
        <pt x="493" y="292" on="1"/>
      </contour>
    </TTGlyph>
    <TTGlyph name="equal" xMin="68" yMin="113" xMax="567" yMax="376">
      <contour>
        <pt x="567" y="306" on="1"/>
        <pt x="68" y="306" on="1"/>
        <pt x="68" y="376" on="1"/>
        <pt x="567" y="376" on="1"/>
      </contour>
      <contour>
        <pt x="567" y="113" on="1"/>
        <pt x="68" y="113" on="1"/>
        <pt x="68" y="183" on="1"/>
        <pt x="567" y="183" on="1"/>
      </contour>
    </TTGlyph>
    <TTGlyph name="eth" xMin="45" yMin="-10" xMax="491" yMax="772">
      <contour>
        <pt x="400" y="729" on="1"/>
        <pt x="299" y="673" on="1"/>
        <pt x="491" y="443" on="0"/>
        <pt x="491" y="247" on="1"/>
        <pt x="491" y="139" on="0"/>
        <pt x="371" y="-10" on="0"/>
        <pt x="268" y="-10" on="1"/>
        <pt x="165" y="-10" on="0"/>
        <pt x="45" y="139" on="0"/>
        <pt x="45" y="355" on="0"/>
        <pt x="166" y="505" on="0"/>
        <pt x="268" y="505" on="1"/>
        <pt x="302" y="505" on="0"/>
        <pt x="335" y="492" on="1"/>
        <pt x="295" y="569" on="0"/>
        <pt x="239" y="640" on="1"/>
        <pt x="134" y="582" on="1"/>
        <pt x="103" y="622" on="1"/>
        <pt x="207" y="680" on="1"/>
        <pt x="181" y="709" on="0"/>
        <pt x="150" y="739" on="1"/>
        <pt x="205" y="772" on="1"/>
        <pt x="246" y="733" on="0"/>
        <pt x="265" y="712" on="1"/>
        <pt x="372" y="771" on="1"/>
      </contour>
      <contour>
        <pt x="403" y="247" on="1"/>
        <pt x="403" y="293" on="0"/>
        <pt x="381" y="377" on="0"/>
        <pt x="317" y="445" on="0"/>
        <pt x="268" y="445" on="1"/>
        <pt x="220" y="445" on="0"/>
        <pt x="155" y="376" on="0"/>
        <pt x="133" y="292" on="0"/>
        <pt x="133" y="247" on="1"/>
        <pt x="133" y="201" on="0"/>
        <pt x="155" y="118" on="0"/>
        <pt x="220" y="50" on="0"/>
        <pt x="268" y="50" on="1"/>
        <pt x="305" y="50" on="0"/>
        <pt x="361" y="88" on="0"/>
        <pt x="390" y="149" on="0"/>
        <pt x="403" y="214" on="0"/>
      </contour>
    </TTGlyph>
    <TTGlyph name="exclam" xMin="99" yMin="-13" xMax="231" yMax="727">
      <contour>
        <pt x="194" y="217" on="1"/>
        <pt x="135" y="217" on="1"/>
        <pt x="106" y="713" on="1"/>
        <pt x="106" y="727" on="0"/>
        <pt x="123" y="727" on="1"/>
        <pt x="205" y="727" on="1"/>
        <pt x="223" y="727" on="0"/>
        <pt x="223" y="712" on="1"/>
      </contour>
      <contour>
        <pt x="99" y="53" on="1"/>
        <pt x="99" y="81" on="0"/>
        <pt x="137" y="119" on="0"/>
        <pt x="165" y="119" on="1"/>
        <pt x="192" y="119" on="0"/>
        <pt x="231" y="80" on="0"/>
        <pt x="231" y="26" on="0"/>
        <pt x="192" y="-13" on="0"/>
        <pt x="165" y="-13" on="1"/>
        <pt x="138" y="-13" on="0"/>
        <pt x="99" y="26" on="0"/>
      </contour>
    </TTGlyph>
    <TTGlyph name="exclamdown" xMin="99" yMin="-126" xMax="231" yMax="614">
      <contour>
        <pt x="206" y="-126" on="1"/>
        <pt x="125" y="-126" on="1"/>
        <pt x="107" y="-126" on="0"/>
        <pt x="107" y="-110" on="1"/>
        <pt x="136" y="383" on="1"/>
        <pt x="194" y="383" on="1"/>
        <pt x="224" y="-112" on="1"/>
        <pt x="224" y="-126" on="0"/>
      </contour>
      <contour>
        <pt x="99" y="548" on="1"/>
        <pt x="99" y="576" on="0"/>
        <pt x="137" y="614" on="0"/>
        <pt x="165" y="614" on="1"/>
        <pt x="192" y="614" on="0"/>
        <pt x="231" y="575" on="0"/>
        <pt x="231" y="521" on="0"/>
        <pt x="192" y="482" on="0"/>
        <pt x="165" y="482" on="1"/>
        <pt x="138" y="482" on="0"/>
        <pt x="99" y="521" on="0"/>
      </contour>
    </TTGlyph>
    <TTGlyph name="f" xMin="20" yMin="0" xMax="400" yMax="770">
      <contour>
        <pt x="177" y="0" on="1"/>
        <pt x="95" y="0" on="1"/>
        <pt x="95" y="435" on="1"/>
        <pt x="20" y="435" on="1"/>
        <pt x="20" y="487" on="1"/>
        <pt x="23" y="487" on="0"/>
        <pt x="52" y="490" on="0"/>
        <pt x="65" y="493" on="0"/>
        <pt x="78" y="498" on="0"/>
        <pt x="89" y="507" on="0"/>
        <pt x="95" y="519" on="0"/>
        <pt x="97" y="527" on="1"/>
        <pt x="100" y="539" on="0"/>
        <pt x="108" y="590" on="1"/>
        <pt x="123" y="671" on="0"/>
        <pt x="223" y="770" on="0"/>
        <pt x="303" y="770" on="1"/>
        <pt x="356" y="770" on="0"/>
        <pt x="400" y="745" on="1"/>
        <pt x="377" y="683" on="1"/>
        <pt x="349" y="708" on="0"/>
        <pt x="305" y="708" on="1"/>
        <pt x="264" y="708" on="0"/>
        <pt x="209" y="669" on="0"/>
        <pt x="185" y="599" on="0"/>
        <pt x="177" y="537" on="0"/>
        <pt x="177" y="497" on="1"/>
        <pt x="320" y="497" on="1"/>
        <pt x="302" y="435" on="1"/>
        <pt x="177" y="435" on="1"/>
      </contour>
    </TTGlyph>
    <TTGlyph name="fi" xMin="20" yMin="-1" xMax="487" yMax="769">
      <contour>
        <pt x="487" y="-1" on="1"/>
        <pt x="405" y="-1" on="1"/>
        <pt x="405" y="434" on="1"/>
        <pt x="178" y="434" on="1"/>
        <pt x="178" y="-1" on="1"/>
        <pt x="95" y="-1" on="1"/>
        <pt x="95" y="434" on="1"/>
        <pt x="20" y="434" on="1"/>
        <pt x="20" y="486" on="1"/>
        <pt x="21" y="486" on="0"/>
        <pt x="44" y="488" on="0"/>
        <pt x="50" y="489" on="0"/>
        <pt x="69" y="493" on="0"/>
        <pt x="77" y="498" on="0"/>
        <pt x="89" y="506" on="0"/>
        <pt x="95" y="518" on="0"/>
        <pt x="97" y="526" on="1"/>
        <pt x="100" y="540" on="0"/>
        <pt x="109" y="596" on="0"/>
        <pt x="109" y="599" on="1"/>
        <pt x="124" y="680" on="0"/>
        <pt x="224" y="769" on="0"/>
        <pt x="307" y="769" on="1"/>
        <pt x="368" y="769" on="0"/>
        <pt x="464" y="711" on="0"/>
        <pt x="483" y="656" on="1"/>
        <pt x="400" y="631" on="1"/>
        <pt x="393" y="666" on="0"/>
        <pt x="344" y="707" on="0"/>
        <pt x="309" y="707" on="1"/>
        <pt x="177" y="707" on="0"/>
        <pt x="177" y="497" on="1"/>
        <pt x="487" y="497" on="1"/>
      </contour>
    </TTGlyph>
    <TTGlyph name="five" xMin="-6" yMin="-209" xMax="367" yMax="497">
      <contour>
        <pt x="10" y="-209" on="1"/>
        <pt x="-6" y="-157" on="1"/>
        <pt x="215" y="-88" on="0"/>
        <pt x="215" y="74" on="1"/>
        <pt x="215" y="139" on="0"/>
        <pt x="108" y="251" on="0"/>
        <pt x="40" y="283" on="1"/>
        <pt x="131" y="497" on="1"/>
        <pt x="367" y="497" on="1"/>
        <pt x="343" y="412" on="1"/>
        <pt x="166" y="412" on="1"/>
        <pt x="131" y="328" on="1"/>
        <pt x="207" y="291" on="0"/>
        <pt x="305" y="159" on="0"/>
        <pt x="305" y="80" on="1"/>
        <pt x="305" y="-35" on="0"/>
        <pt x="130" y="-190" on="0"/>
      </contour>
    </TTGlyph>
    <TTGlyph name="fl" xMin="20" yMin="-1" xMax="483" yMax="769">
      <contour>
        <pt x="483" y="-1" on="1"/>
        <pt x="401" y="-1" on="1"/>
        <pt x="401" y="635" on="1"/>
        <pt x="401" y="668" on="0"/>
        <pt x="342" y="707" on="0"/>
        <pt x="308" y="707" on="1"/>
        <pt x="272" y="707" on="0"/>
        <pt x="220" y="679" on="0"/>
        <pt x="194" y="641" on="0"/>
        <pt x="180" y="576" on="0"/>
        <pt x="177" y="531" on="0"/>
        <pt x="177" y="497" on="1"/>
        <pt x="320" y="497" on="1"/>
        <pt x="302" y="434" on="1"/>
        <pt x="177" y="434" on="1"/>
        <pt x="177" y="-1" on="1"/>
        <pt x="95" y="-1" on="1"/>
        <pt x="95" y="434" on="1"/>
        <pt x="20" y="434" on="1"/>
        <pt x="20" y="486" on="1"/>
        <pt x="24" y="486" on="0"/>
        <pt x="44" y="488" on="0"/>
        <pt x="53" y="489" on="0"/>
        <pt x="69" y="492" on="0"/>
        <pt x="78" y="497" on="0"/>
        <pt x="89" y="505" on="0"/>
        <pt x="95" y="518" on="0"/>
        <pt x="97" y="526" on="1"/>
        <pt x="100" y="540" on="0"/>
        <pt x="107" y="591" on="0"/>
        <pt x="108" y="599" on="1"/>
        <pt x="123" y="679" on="0"/>
        <pt x="224" y="769" on="0"/>
        <pt x="306" y="769" on="1"/>
        <pt x="377" y="769" on="0"/>
        <pt x="418" y="738" on="1"/>
        <pt x="483" y="764" on="1"/>
      </contour>
    </TTGlyph>
    <TTGlyph name="florin" xMin="-98" yMin="-219" xMax="394" yMax="738">
      <contour>
        <pt x="-98" y="-217" on="1"/>
        <pt x="-81" y="-157" on="1"/>
        <pt x="-75" y="-157" on="1"/>
        <pt x="-40" y="-157" on="0"/>
        <pt x="5" y="-101" on="0"/>
        <pt x="12" y="-63" on="1"/>
        <pt x="98" y="434" on="1"/>
        <pt x="20" y="434" on="1"/>
        <pt x="20" y="487" on="1"/>
        <pt x="75" y="490" on="0"/>
        <pt x="81" y="491" on="1"/>
        <pt x="98" y="495" on="0"/>
        <pt x="122" y="549" on="0"/>
        <pt x="143" y="620" on="0"/>
        <pt x="178" y="690" on="0"/>
        <pt x="256" y="738" on="0"/>
        <pt x="313" y="738" on="1"/>
        <pt x="355" y="738" on="0"/>
        <pt x="394" y="711" on="1"/>
        <pt x="374" y="641" on="1"/>
        <pt x="346" y="674" on="0"/>
        <pt x="292" y="674" on="1"/>
        <pt x="225" y="674" on="0"/>
        <pt x="193" y="497" on="1"/>
        <pt x="335" y="497" on="1"/>
        <pt x="317" y="434" on="1"/>
        <pt x="184" y="434" on="1"/>
        <pt x="143" y="157" on="0"/>
        <pt x="106" y="-31" on="1"/>
        <pt x="90" y="-113" on="0"/>
        <pt x="4" y="-219" on="0"/>
        <pt x="-72" y="-219" on="1"/>
        <pt x="-90" y="-219" on="0"/>
      </contour>
    </TTGlyph>
    <TTGlyph name="four" xMin="12" yMin="-185" xMax="488" yMax="498">
      <contour>
        <pt x="387" y="-185" on="1"/>
        <pt x="304" y="-185" on="1"/>
        <pt x="304" y="0" on="1"/>
        <pt x="12" y="0" on="1"/>
        <pt x="12" y="40" on="1"/>
        <pt x="289" y="498" on="1"/>
        <pt x="387" y="498" on="1"/>
        <pt x="387" y="69" on="1"/>
        <pt x="488" y="69" on="1"/>
        <pt x="470" y="0" on="1"/>
        <pt x="387" y="0" on="1"/>
      </contour>
      <contour>
        <pt x="304" y="69" on="1"/>
        <pt x="304" y="399" on="1"/>
        <pt x="104" y="69" on="1"/>
      </contour>
    </TTGlyph>
    <TTGlyph name="fraction" xMin="-153" yMin="-7" xMax="286" yMax="730">
      <contour>
        <pt x="-89" y="-7" on="1"/>
        <pt x="-153" y="-7" on="1"/>
        <pt x="220" y="730" on="1"/>
        <pt x="286" y="730" on="1"/>
      </contour>
    </TTGlyph>
    <TTGlyph name="g" xMin="21" yMin="-230" xMax="489" yMax="510">
      <contour>
        <pt x="471" y="438" on="1"/>
        <pt x="364" y="438" on="1"/>
        <pt x="397" y="395" on="0"/>
        <pt x="397" y="337" on="1"/>
        <pt x="397" y="265" on="0"/>
        <pt x="293" y="164" on="0"/>
        <pt x="221" y="164" on="1"/>
        <pt x="214" y="164" on="0"/>
        <pt x="189" y="168" on="0"/>
        <pt x="183" y="168" on="1"/>
        <pt x="169" y="168" on="0"/>
        <pt x="143" y="129" on="0"/>
        <pt x="143" y="113" on="1"/>
        <pt x="143" y="96" on="0"/>
        <pt x="164" y="78" on="0"/>
        <pt x="185" y="76" on="0"/>
        <pt x="204" y="76" on="1"/>
        <pt x="220" y="76" on="0"/>
        <pt x="286" y="79" on="0"/>
        <pt x="301" y="79" on="1"/>
        <pt x="457" y="79" on="0"/>
        <pt x="457" y="-26" on="1"/>
        <pt x="457" y="-129" on="0"/>
        <pt x="306" y="-230" on="0"/>
        <pt x="200" y="-230" on="1"/>
        <pt x="132" y="-230" on="0"/>
        <pt x="21" y="-168" on="0"/>
        <pt x="21" y="-104" on="1"/>
        <pt x="21" y="-39" on="0"/>
        <pt x="98" y="14" on="1"/>
        <pt x="52" y="37" on="0"/>
        <pt x="52" y="87" on="1"/>
        <pt x="52" y="90" on="0"/>
        <pt x="64" y="108" on="1"/>
        <pt x="105" y="164" on="0"/>
        <pt x="121" y="194" on="1"/>
        <pt x="85" y="218" on="0"/>
        <pt x="44" y="294" on="0"/>
        <pt x="44" y="336" on="1"/>
        <pt x="44" y="408" on="0"/>
        <pt x="148" y="509" on="0"/>
        <pt x="220" y="509" on="1"/>
        <pt x="239" y="509" on="0"/>
        <pt x="312" y="495" on="0"/>
        <pt x="330" y="495" on="1"/>
        <pt x="380" y="495" on="0"/>
        <pt x="489" y="510" on="1"/>
      </contour>
      <contour>
        <pt x="220" y="224" on="1"/>
        <pt x="257" y="224" on="0"/>
        <pt x="310" y="289" on="0"/>
        <pt x="310" y="383" on="0"/>
        <pt x="257" y="449" on="0"/>
        <pt x="221" y="449" on="1"/>
        <pt x="184" y="449" on="0"/>
        <pt x="131" y="384" on="0"/>
        <pt x="131" y="290" on="0"/>
        <pt x="184" y="224" on="0"/>
      </contour>
      <contour>
        <pt x="158" y="-3" on="1"/>
        <pt x="137" y="-18" on="0"/>
        <pt x="107" y="-65" on="0"/>
        <pt x="107" y="-87" on="1"/>
        <pt x="107" y="-121" on="0"/>
        <pt x="177" y="-162" on="0"/>
        <pt x="215" y="-162" on="1"/>
        <pt x="279" y="-162" on="0"/>
        <pt x="380" y="-110" on="0"/>
        <pt x="380" y="-55" on="1"/>
        <pt x="380" y="-37" on="0"/>
        <pt x="362" y="-13" on="0"/>
        <pt x="328" y="-3" on="0"/>
        <pt x="299" y="0" on="0"/>
        <pt x="278" y="0" on="1"/>
        <pt x="218" y="0" on="0"/>
      </contour>
    </TTGlyph>
    <TTGlyph name="germandbls" xMin="28" yMin="-12" xMax="535" yMax="741">
      <contour>
        <pt x="236" y="8" on="1"/>
        <pt x="264" y="66" on="1"/>
        <pt x="312" y="53" on="0"/>
        <pt x="333" y="53" on="1"/>
        <pt x="378" y="53" on="0"/>
        <pt x="447" y="117" on="0"/>
        <pt x="447" y="169" on="1"/>
        <pt x="447" y="207" on="0"/>
        <pt x="406" y="264" on="0"/>
        <pt x="348" y="300" on="0"/>
        <pt x="290" y="332" on="0"/>
        <pt x="249" y="374" on="0"/>
        <pt x="249" y="400" on="1"/>
        <pt x="249" y="422" on="0"/>
        <pt x="292" y="463" on="0"/>
        <pt x="343" y="493" on="0"/>
        <pt x="386" y="548" on="0"/>
        <pt x="386" y="582" on="1"/>
        <pt x="386" y="671" on="0"/>
        <pt x="306" y="671" on="1"/>
        <pt x="270" y="671" on="0"/>
        <pt x="219" y="633" on="0"/>
        <pt x="195" y="570" on="0"/>
        <pt x="185" y="508" on="0"/>
        <pt x="185" y="474" on="1"/>
        <pt x="185" y="0" on="1"/>
        <pt x="102" y="0" on="1"/>
        <pt x="102" y="434" on="1"/>
        <pt x="28" y="434" on="1"/>
        <pt x="28" y="489" on="1"/>
        <pt x="73" y="489" on="0"/>
        <pt x="105" y="521" on="0"/>
        <pt x="115" y="568" on="1"/>
        <pt x="154" y="741" on="0"/>
        <pt x="306" y="741" on="1"/>
        <pt x="385" y="741" on="0"/>
        <pt x="474" y="660" on="0"/>
        <pt x="474" y="583" on="1"/>
        <pt x="474" y="563" on="0"/>
        <pt x="468" y="529" on="0"/>
        <pt x="452" y="502" on="0"/>
        <pt x="441" y="484" on="0"/>
        <pt x="411" y="462" on="0"/>
        <pt x="397" y="453" on="0"/>
        <pt x="358" y="430" on="0"/>
        <pt x="351" y="426" on="1"/>
        <pt x="322" y="409" on="0"/>
        <pt x="322" y="404" on="1"/>
        <pt x="322" y="395" on="0"/>
        <pt x="367" y="373" on="1"/>
        <pt x="399" y="358" on="0"/>
        <pt x="435" y="339" on="0"/>
        <pt x="487" y="303" on="0"/>
        <pt x="514" y="268" on="0"/>
        <pt x="535" y="215" on="0"/>
        <pt x="535" y="184" on="1"/>
        <pt x="535" y="95" on="0"/>
        <pt x="429" y="-12" on="0"/>
        <pt x="341" y="-12" on="1"/>
        <pt x="288" y="-12" on="0"/>
      </contour>
    </TTGlyph>
    <TTGlyph name="grave" xMin="31" yMin="576" xMax="249" yMax="728">
      <contour>
        <pt x="249" y="576" on="1"/>
        <pt x="171" y="576" on="1"/>
        <pt x="31" y="728" on="1"/>
        <pt x="154" y="728" on="1"/>
      </contour>
    </TTGlyph>
    <TTGlyph name="greater" xMin="66" yMin="-4" xMax="564" yMax="503">
      <contour>
        <pt x="564" y="214" on="1"/>
        <pt x="66" y="-4" on="1"/>
        <pt x="66" y="72" on="1"/>
        <pt x="471" y="249" on="1"/>
        <pt x="66" y="426" on="1"/>
        <pt x="66" y="503" on="1"/>
        <pt x="564" y="287" on="1"/>
      </contour>
    </TTGlyph>
    <TTGlyph name="greaterequal" xMin="66" yMin="0" xMax="564" yMax="502">
      <contour>
        <pt x="564" y="258" on="1"/>
        <pt x="66" y="87" on="1"/>
        <pt x="66" y="163" on="1"/>
        <pt x="468" y="294" on="1"/>
        <pt x="66" y="425" on="1"/>
        <pt x="66" y="502" on="1"/>
        <pt x="564" y="333" on="1"/>
      </contour>
      <contour>
        <pt x="564" y="0" on="1"/>
        <pt x="66" y="0" on="1"/>
        <pt x="66" y="70" on="1"/>
        <pt x="564" y="70" on="1"/>
      </contour>
    </TTGlyph>
    <TTGlyph name="guillemotleft" xMin="55" yMin="174" xMax="411" yMax="500">
      <component glyphName="guilsinglleft" x="10" y="3" flags="0x4"/>
      <component glyphName="guilsinglleft" x="158" y="3" flags="0x4"/>
    </TTGlyph>
    <TTGlyph name="guillemotright" xMin="54" yMin="171" xMax="411" yMax="497">
      <component glyphName="guilsinglright" x="-6" y="2" flags="0x4"/>
      <component glyphName="guilsinglright" x="143" y="2" flags="0x4"/>
    </TTGlyph>
    <TTGlyph name="guilsinglleft" xMin="45" yMin="171" xMax="253" yMax="497">
      <contour>
        <pt x="253" y="179" on="1"/>
        <pt x="194" y="171" on="1"/>
        <pt x="45" y="333" on="1"/>
        <pt x="190" y="497" on="1"/>
        <pt x="251" y="485" on="1"/>
        <pt x="135" y="333" on="1"/>
      </contour>
    </TTGlyph>
    <TTGlyph name="guilsinglright" xMin="60" yMin="169" xMax="268" yMax="495">
      <contour>
        <pt x="120" y="169" on="1"/>
        <pt x="60" y="177" on="1"/>
        <pt x="179" y="331" on="1"/>
        <pt x="63" y="483" on="1"/>
        <pt x="124" y="495" on="1"/>
        <pt x="268" y="331" on="1"/>
      </contour>
    </TTGlyph>
    <TTGlyph name="h" xMin="69" yMin="0" xMax="466" yMax="762">
      <contour>
        <pt x="466" y="0" on="1"/>
        <pt x="384" y="0" on="1"/>
        <pt x="384" y="306" on="1"/>
        <pt x="384" y="335" on="0"/>
        <pt x="380" y="371" on="0"/>
        <pt x="365" y="414" on="0"/>
        <pt x="329" y="436" on="0"/>
        <pt x="301" y="436" on="1"/>
        <pt x="243" y="436" on="0"/>
        <pt x="164" y="370" on="1"/>
        <pt x="164" y="0" on="1"/>
        <pt x="82" y="0" on="1"/>
        <pt x="82" y="703" on="1"/>
        <pt x="82" y="704" on="0"/>
        <pt x="76" y="731" on="0"/>
        <pt x="69" y="760" on="0"/>
        <pt x="69" y="762" on="1"/>
        <pt x="164" y="762" on="1"/>
        <pt x="164" y="438" on="1"/>
        <pt x="240" y="510" on="0"/>
        <pt x="315" y="510" on="1"/>
        <pt x="466" y="510" on="0"/>
        <pt x="466" y="333" on="1"/>
      </contour>
    </TTGlyph>
    <TTGlyph name="hungarumlaut" xMin="34" yMin="557" xMax="374" yMax="727">
      <contour>
        <pt x="237" y="557" on="1"/>
        <pt x="176" y="557" on="1"/>
        <pt x="257" y="727" on="1"/>
        <pt x="374" y="727" on="1"/>
      </contour>
      <contour>
        <pt x="96" y="557" on="1"/>
        <pt x="34" y="557" on="1"/>
        <pt x="115" y="727" on="1"/>
        <pt x="233" y="727" on="1"/>
      </contour>
    </TTGlyph>
    <TTGlyph name="hyphen" xMin="41" yMin="224" xMax="272" yMax="299">
      <contour>
        <pt x="272" y="224" on="1"/>
        <pt x="41" y="224" on="1"/>
        <pt x="41" y="299" on="1"/>
        <pt x="272" y="299" on="1"/>
      </contour>
    </TTGlyph>
    <TTGlyph name="i" xMin="64" yMin="0" xMax="185" yMax="725">
      <contour>
        <pt x="185" y="664" on="1"/>
        <pt x="185" y="638" on="0"/>
        <pt x="150" y="603" on="0"/>
        <pt x="124" y="603" on="1"/>
        <pt x="99" y="603" on="0"/>
        <pt x="64" y="639" on="0"/>
        <pt x="64" y="689" on="0"/>
        <pt x="99" y="725" on="0"/>
        <pt x="124" y="725" on="1"/>
        <pt x="149" y="725" on="0"/>
        <pt x="185" y="689" on="0"/>
      </contour>
      <contour>
        <pt x="167" y="0" on="1"/>
        <pt x="84" y="0" on="1"/>
        <pt x="84" y="438" on="1"/>
        <pt x="84" y="439" on="0"/>
        <pt x="78" y="466" on="0"/>
        <pt x="72" y="495" on="0"/>
        <pt x="72" y="497" on="1"/>
        <pt x="167" y="497" on="1"/>
      </contour>
    </TTGlyph>
    <TTGlyph name="iacute" xMin="68" yMin="0" xMax="286" yMax="728">
      <component glyphName="dotlessi" x="0" y="0" flags="0x4"/>
      <component glyphName="acute" x="37" y="5" flags="0x4"/>
    </TTGlyph>
    <TTGlyph name="icircumflex" xMin="-21" yMin="0" xMax="270" yMax="729">
      <component glyphName="circumflex" x="-13" y="9" flags="0x4"/>
      <component glyphName="dotlessi" x="0" y="0" flags="0x4"/>
    </TTGlyph>
    <TTGlyph name="idieresis" xMin="-12" yMin="0" xMax="264" yMax="681">
      <component glyphName="dotlessi" x="0" y="0" flags="0x4"/>
      <component glyphName="dieresis" x="-12" y="0" flags="0x4"/>
    </TTGlyph>
    <TTGlyph name="igrave" xMin="-48" yMin="0" xMax="170" yMax="728">
      <component glyphName="dotlessi" x="0" y="0" flags="0x4"/>
      <component glyphName="grave" x="-79" y="0" flags="0x4"/>
    </TTGlyph>
    <TTGlyph name="infinity" xMin="78" yMin="82" xMax="734" yMax="414">
      <contour>
        <pt x="581" y="82" on="1"/>
        <pt x="529" y="82" on="0"/>
        <pt x="448" y="143" on="0"/>
        <pt x="406" y="197" on="1"/>
        <pt x="364" y="143" on="0"/>
        <pt x="283" y="82" on="0"/>
        <pt x="231" y="82" on="1"/>
        <pt x="162" y="82" on="0"/>
        <pt x="78" y="175" on="0"/>
        <pt x="78" y="321" on="0"/>
        <pt x="162" y="414" on="0"/>
        <pt x="232" y="414" on="1"/>
        <pt x="283" y="414" on="0"/>
        <pt x="364" y="353" on="0"/>
        <pt x="406" y="300" on="1"/>
        <pt x="448" y="353" on="0"/>
        <pt x="529" y="414" on="0"/>
        <pt x="580" y="414" on="1"/>
        <pt x="650" y="414" on="0"/>
        <pt x="734" y="321" on="0"/>
        <pt x="734" y="175" on="0"/>
        <pt x="650" y="82" on="0"/>
      </contour>
      <contour>
        <pt x="580" y="333" on="1"/>
        <pt x="543" y="333" on="0"/>
        <pt x="481" y="287" on="0"/>
        <pt x="448" y="248" on="1"/>
        <pt x="518" y="164" on="0"/>
        <pt x="582" y="164" on="1"/>
        <pt x="621" y="164" on="0"/>
        <pt x="668" y="209" on="0"/>
        <pt x="668" y="287" on="0"/>
        <pt x="619" y="333" on="0"/>
      </contour>
      <contour>
        <pt x="364" y="248" on="1"/>
        <pt x="343" y="273" on="0"/>
        <pt x="310" y="305" on="0"/>
        <pt x="258" y="333" on="0"/>
        <pt x="232" y="333" on="1"/>
        <pt x="193" y="333" on="0"/>
        <pt x="144" y="287" on="0"/>
        <pt x="144" y="209" on="0"/>
        <pt x="191" y="164" on="0"/>
        <pt x="230" y="164" on="1"/>
        <pt x="294" y="164" on="0"/>
      </contour>
    </TTGlyph>
    <TTGlyph name="integral" xMin="-7" yMin="-226" xMax="268" yMax="734">
      <contour>
        <pt x="-7" y="-226" on="1"/>
        <pt x="-7" y="-169" on="1"/>
        <pt x="41" y="-169" on="0"/>
        <pt x="92" y="-101" on="0"/>
        <pt x="92" y="-56" on="1"/>
        <pt x="92" y="544" on="1"/>
        <pt x="92" y="734" on="0"/>
        <pt x="268" y="734" on="1"/>
        <pt x="268" y="676" on="1"/>
        <pt x="221" y="676" on="0"/>
        <pt x="175" y="609" on="0"/>
        <pt x="175" y="563" on="1"/>
        <pt x="175" y="-36" on="1"/>
        <pt x="175" y="-128" on="0"/>
        <pt x="84" y="-226" on="0"/>
      </contour>
    </TTGlyph>
    <TTGlyph name="j" xMin="11" yMin="-228" xMax="187" yMax="725">
      <contour>
        <pt x="187" y="664" on="1"/>
        <pt x="187" y="638" on="0"/>
        <pt x="152" y="603" on="0"/>
        <pt x="126" y="603" on="1"/>
        <pt x="100" y="603" on="0"/>
        <pt x="65" y="638" on="0"/>
        <pt x="65" y="664" on="1"/>
        <pt x="65" y="689" on="0"/>
        <pt x="101" y="725" on="0"/>
        <pt x="126" y="725" on="1"/>
        <pt x="151" y="725" on="0"/>
        <pt x="187" y="689" on="0"/>
      </contour>
      <contour>
        <pt x="25" y="-228" on="1"/>
        <pt x="11" y="-188" on="1"/>
        <pt x="32" y="-177" on="0"/>
        <pt x="61" y="-140" on="0"/>
        <pt x="76" y="-105" on="0"/>
        <pt x="83" y="-49" on="0"/>
        <pt x="84" y="-17" on="0"/>
        <pt x="84" y="13" on="1"/>
        <pt x="84" y="438" on="1"/>
        <pt x="84" y="439" on="0"/>
        <pt x="78" y="466" on="0"/>
        <pt x="71" y="495" on="0"/>
        <pt x="71" y="497" on="1"/>
        <pt x="167" y="497" on="1"/>
        <pt x="167" y="25" on="1"/>
        <pt x="167" y="-209" on="0"/>
      </contour>
    </TTGlyph>
    <TTGlyph name="k" xMin="68" yMin="0" xMax="466" yMax="762">
      <contour>
        <pt x="466" y="0" on="1"/>
        <pt x="367" y="0" on="1"/>
        <pt x="164" y="270" on="1"/>
        <pt x="164" y="0" on="1"/>
        <pt x="81" y="0" on="1"/>
        <pt x="81" y="703" on="1"/>
        <pt x="81" y="704" on="0"/>
        <pt x="75" y="731" on="0"/>
        <pt x="68" y="760" on="0"/>
        <pt x="68" y="762" on="1"/>
        <pt x="164" y="762" on="1"/>
        <pt x="164" y="292" on="1"/>
        <pt x="350" y="497" on="1"/>
        <pt x="439" y="497" on="1"/>
        <pt x="248" y="288" on="1"/>
      </contour>
    </TTGlyph>
    <TTGlyph name="l" xMin="71" yMin="0" xMax="167" yMax="762">
      <contour>
        <pt x="167" y="0" on="1"/>
        <pt x="84" y="0" on="1"/>
        <pt x="84" y="704" on="1"/>
        <pt x="84" y="705" on="0"/>
        <pt x="78" y="731" on="0"/>
        <pt x="71" y="760" on="0"/>
        <pt x="71" y="762" on="1"/>
        <pt x="167" y="762" on="1"/>
      </contour>
    </TTGlyph>
    <TTGlyph name="less" xMin="66" yMin="-4" xMax="564" yMax="503">
      <contour>
        <pt x="564" y="-4" on="1"/>
        <pt x="66" y="214" on="1"/>
        <pt x="66" y="287" on="1"/>
        <pt x="564" y="503" on="1"/>
        <pt x="564" y="426" on="1"/>
        <pt x="159" y="249" on="1"/>
        <pt x="564" y="72" on="1"/>
      </contour>
    </TTGlyph>
    <TTGlyph name="lessequal" xMin="66" yMin="0" xMax="564" yMax="502">
      <contour>
        <pt x="564" y="87" on="1"/>
        <pt x="66" y="258" on="1"/>
        <pt x="66" y="333" on="1"/>
        <pt x="564" y="502" on="1"/>
        <pt x="564" y="425" on="1"/>
        <pt x="162" y="294" on="1"/>
        <pt x="564" y="163" on="1"/>
      </contour>
      <contour>
        <pt x="564" y="0" on="1"/>
        <pt x="66" y="0" on="1"/>
        <pt x="66" y="70" on="1"/>
        <pt x="564" y="70" on="1"/>
      </contour>
    </TTGlyph>
    <TTGlyph name="logicalnot" xMin="72" yMin="89" xMax="565" yMax="339">
      <contour>
        <pt x="565" y="89" on="1"/>
        <pt x="504" y="89" on="1"/>
        <pt x="504" y="279" on="1"/>
        <pt x="72" y="279" on="1"/>
        <pt x="72" y="339" on="1"/>
        <pt x="565" y="339" on="1"/>
      </contour>
    </TTGlyph>
    <TTGlyph name="lozenge" xMin="37" yMin="-11" xMax="467" yMax="732">
      <contour>
        <pt x="402" y="360" on="1"/>
        <pt x="251" y="651" on="1"/>
        <pt x="151" y="457" on="0"/>
        <pt x="102" y="360" on="1"/>
        <pt x="219" y="129" on="0"/>
        <pt x="252" y="65" on="1"/>
        <pt x="269" y="98" on="0"/>
        <pt x="373" y="305" on="0"/>
      </contour>
      <contour>
        <pt x="272" y="-11" on="1"/>
        <pt x="232" y="-11" on="1"/>
        <pt x="37" y="360" on="1"/>
        <pt x="66" y="416" on="0"/>
        <pt x="131" y="540" on="0"/>
        <pt x="210" y="691" on="0"/>
        <pt x="232" y="732" on="1"/>
        <pt x="272" y="732" on="1"/>
        <pt x="294" y="691" on="0"/>
        <pt x="373" y="540" on="0"/>
        <pt x="438" y="416" on="0"/>
        <pt x="467" y="360" on="1"/>
      </contour>
    </TTGlyph>
    <TTGlyph name="lslash" xMin="11" yMin="0" xMax="236" yMax="761">
      <contour>
        <pt x="165" y="0" on="1"/>
        <pt x="82" y="0" on="1"/>
        <pt x="82" y="298" on="1"/>
        <pt x="11" y="265" on="1"/>
        <pt x="11" y="334" on="1"/>
        <pt x="82" y="367" on="1"/>
        <pt x="82" y="703" on="1"/>
        <pt x="82" y="704" on="0"/>
        <pt x="76" y="730" on="0"/>
        <pt x="69" y="759" on="0"/>
        <pt x="69" y="761" on="1"/>
        <pt x="165" y="761" on="1"/>
        <pt x="165" y="406" on="1"/>
        <pt x="236" y="439" on="1"/>
        <pt x="236" y="370" on="1"/>
        <pt x="165" y="337" on="1"/>
      </contour>
    </TTGlyph>
    <TTGlyph name="m" xMin="48" yMin="0" xMax="747" yMax="509">
      <contour>
        <pt x="747" y="0" on="1"/>
        <pt x="664" y="0" on="1"/>
        <pt x="664" y="305" on="1"/>
        <pt x="664" y="332" on="0"/>
        <pt x="659" y="370" on="0"/>
        <pt x="644" y="413" on="0"/>
        <pt x="608" y="435" on="0"/>
        <pt x="581" y="435" on="1"/>
        <pt x="525" y="435" on="0"/>
        <pt x="453" y="367" on="1"/>
        <pt x="455" y="347" on="0"/>
        <pt x="455" y="332" on="1"/>
        <pt x="455" y="0" on="1"/>
        <pt x="372" y="0" on="1"/>
        <pt x="372" y="305" on="1"/>
        <pt x="372" y="333" on="0"/>
        <pt x="368" y="371" on="0"/>
        <pt x="352" y="413" on="0"/>
        <pt x="317" y="435" on="0"/>
        <pt x="289" y="435" on="1"/>
        <pt x="236" y="435" on="0"/>
        <pt x="163" y="369" on="1"/>
        <pt x="163" y="0" on="1"/>
        <pt x="80" y="0" on="1"/>
        <pt x="80" y="361" on="1"/>
        <pt x="80" y="442" on="0"/>
        <pt x="48" y="494" on="1"/>
        <pt x="139" y="504" on="1"/>
        <pt x="153" y="470" on="0"/>
        <pt x="158" y="435" on="1"/>
        <pt x="234" y="509" on="0"/>
        <pt x="303" y="509" on="1"/>
        <pt x="400" y="509" on="0"/>
        <pt x="440" y="426" on="1"/>
        <pt x="523" y="509" on="0"/>
        <pt x="595" y="509" on="1"/>
        <pt x="674" y="509" on="0"/>
        <pt x="747" y="414" on="0"/>
        <pt x="747" y="332" on="1"/>
      </contour>
    </TTGlyph>
    <TTGlyph name="macron" xMin="-15" yMin="596" xMax="289" yMax="660">
      <contour>
        <pt x="289" y="596" on="1"/>
        <pt x="-15" y="596" on="1"/>
        <pt x="-15" y="660" on="1"/>
        <pt x="289" y="660" on="1"/>
      </contour>
    </TTGlyph>
    <TTGlyph name="minus" xMin="72" yMin="216" xMax="564" yMax="277">
      <component glyphName="uni00AD" x="0" y="0" flags="0x204"/>
    </TTGlyph>
    <TTGlyph name="mu" xMin="68" yMin="-187" xMax="551" yMax="497">
      <contour>
        <pt x="534" y="73" on="1"/>
        <pt x="551" y="21" on="1"/>
        <pt x="544" y="18" on="0"/>
        <pt x="513" y="5" on="0"/>
        <pt x="494" y="-2" on="0"/>
        <pt x="466" y="-9" on="0"/>
        <pt x="455" y="-9" on="1"/>
        <pt x="426" y="-9" on="0"/>
        <pt x="390" y="29" on="0"/>
        <pt x="385" y="59" on="1"/>
        <pt x="354" y="29" on="0"/>
        <pt x="269" y="-13" on="0"/>
        <pt x="232" y="-13" on="1"/>
        <pt x="199" y="-13" on="0"/>
        <pt x="166" y="1" on="1"/>
        <pt x="166" y="-187" on="1"/>
        <pt x="81" y="-187" on="1"/>
        <pt x="81" y="438" on="1"/>
        <pt x="81" y="439" on="0"/>
        <pt x="75" y="466" on="0"/>
        <pt x="68" y="495" on="0"/>
        <pt x="68" y="497" on="1"/>
        <pt x="163" y="497" on="1"/>
        <pt x="163" y="191" on="1"/>
        <pt x="163" y="165" on="0"/>
        <pt x="168" y="126" on="0"/>
        <pt x="184" y="84" on="0"/>
        <pt x="219" y="61" on="0"/>
        <pt x="246" y="61" on="1"/>
        <pt x="280" y="61" on="0"/>
        <pt x="356" y="100" on="0"/>
        <pt x="383" y="127" on="1"/>
        <pt x="383" y="438" on="1"/>
        <pt x="383" y="439" on="0"/>
        <pt x="377" y="466" on="0"/>
        <pt x="370" y="495" on="0"/>
        <pt x="370" y="497" on="1"/>
        <pt x="465" y="497" on="1"/>
        <pt x="465" y="97" on="1"/>
        <pt x="465" y="77" on="0"/>
        <pt x="474" y="59" on="0"/>
        <pt x="487" y="59" on="1"/>
        <pt x="499" y="59" on="0"/>
      </contour>
    </TTGlyph>
    <TTGlyph name="multiply" xMin="71" yMin="50" xMax="463" yMax="442">
      <contour>
        <pt x="463" y="94" on="1"/>
        <pt x="419" y="50" on="1"/>
        <pt x="267" y="202" on="1"/>
        <pt x="115" y="50" on="1"/>
        <pt x="71" y="94" on="1"/>
        <pt x="224" y="246" on="1"/>
        <pt x="71" y="398" on="1"/>
        <pt x="115" y="442" on="1"/>
        <pt x="267" y="290" on="1"/>
        <pt x="419" y="442" on="1"/>
        <pt x="463" y="398" on="1"/>
        <pt x="310" y="246" on="1"/>
      </contour>
    </TTGlyph>
    <TTGlyph name="n" xMin="47" yMin="0" xMax="464" yMax="509">
      <contour>
        <pt x="464" y="0" on="1"/>
        <pt x="382" y="0" on="1"/>
        <pt x="382" y="305" on="1"/>
        <pt x="382" y="328" on="0"/>
        <pt x="380" y="358" on="0"/>
        <pt x="371" y="396" on="0"/>
        <pt x="354" y="419" on="0"/>
        <pt x="321" y="435" on="0"/>
        <pt x="298" y="435" on="1"/>
        <pt x="232" y="435" on="0"/>
        <pt x="162" y="369" on="1"/>
        <pt x="162" y="0" on="1"/>
        <pt x="80" y="0" on="1"/>
        <pt x="80" y="352" on="1"/>
        <pt x="80" y="448" on="0"/>
        <pt x="47" y="493" on="1"/>
        <pt x="138" y="505" on="1"/>
        <pt x="153" y="467" on="0"/>
        <pt x="157" y="434" on="1"/>
        <pt x="232" y="509" on="0"/>
        <pt x="312" y="509" on="1"/>
        <pt x="391" y="509" on="0"/>
        <pt x="464" y="414" on="0"/>
        <pt x="464" y="332" on="1"/>
      </contour>
    </TTGlyph>
    <TTGlyph name="nine" xMin="51" yMin="-217" xMax="490" yMax="509">
      <contour>
        <pt x="82" y="-217" on="1"/>
        <pt x="61" y="-161" on="1"/>
        <pt x="328" y="-50" on="0"/>
        <pt x="382" y="142" on="1"/>
        <pt x="320" y="91" on="0"/>
        <pt x="240" y="91" on="1"/>
        <pt x="160" y="91" on="0"/>
        <pt x="51" y="213" on="0"/>
        <pt x="51" y="294" on="1"/>
        <pt x="51" y="384" on="0"/>
        <pt x="177" y="509" on="0"/>
        <pt x="267" y="509" on="1"/>
        <pt x="372" y="509" on="0"/>
        <pt x="490" y="368" on="0"/>
        <pt x="490" y="261" on="1"/>
        <pt x="490" y="126" on="0"/>
        <pt x="339" y="-86" on="0"/>
        <pt x="213" y="-159" on="1"/>
        <pt x="135" y="-203" on="0"/>
      </contour>
      <contour>
        <pt x="397" y="226" on="1"/>
        <pt x="399" y="239" on="0"/>
        <pt x="399" y="264" on="1"/>
        <pt x="399" y="339" on="0"/>
        <pt x="335" y="447" on="0"/>
        <pt x="266" y="447" on="1"/>
        <pt x="208" y="447" on="0"/>
        <pt x="142" y="354" on="0"/>
        <pt x="142" y="294" on="1"/>
        <pt x="142" y="238" on="0"/>
        <pt x="208" y="159" on="0"/>
        <pt x="263" y="159" on="1"/>
        <pt x="332" y="159" on="0"/>
      </contour>
    </TTGlyph>
    <TTGlyph name="notequal" xMin="72" yMin="-10" xMax="565" yMax="506">
      <contour>
        <pt x="565" y="119" on="1"/>
        <pt x="304" y="119" on="1"/>
        <pt x="258" y="-10" on="1"/>
        <pt x="193" y="-10" on="1"/>
        <pt x="239" y="119" on="1"/>
        <pt x="72" y="119" on="1"/>
        <pt x="72" y="181" on="1"/>
        <pt x="262" y="181" on="1"/>
        <pt x="310" y="312" on="1"/>
        <pt x="72" y="312" on="1"/>
        <pt x="72" y="374" on="1"/>
        <pt x="332" y="374" on="1"/>
        <pt x="380" y="506" on="1"/>
        <pt x="444" y="506" on="1"/>
        <pt x="396" y="374" on="1"/>
        <pt x="565" y="374" on="1"/>
        <pt x="565" y="312" on="1"/>
        <pt x="374" y="312" on="1"/>
        <pt x="326" y="181" on="1"/>
        <pt x="565" y="181" on="1"/>
      </contour>
    </TTGlyph>
    <TTGlyph name="ntilde" xMin="47" yMin="0" xMax="464" yMax="685">
      <contour>
        <pt x="388" y="672" on="1"/>
        <pt x="435" y="672" on="1"/>
        <pt x="431" y="634" on="0"/>
        <pt x="386" y="573" on="0"/>
        <pt x="350" y="573" on="1"/>
        <pt x="321" y="573" on="0"/>
        <pt x="226" y="612" on="0"/>
        <pt x="201" y="612" on="1"/>
        <pt x="190" y="612" on="0"/>
        <pt x="170" y="596" on="0"/>
        <pt x="167" y="585" on="1"/>
        <pt x="117" y="585" on="1"/>
        <pt x="123" y="625" on="0"/>
        <pt x="173" y="685" on="0"/>
        <pt x="211" y="685" on="1"/>
        <pt x="240" y="685" on="0"/>
        <pt x="334" y="646" on="0"/>
        <pt x="352" y="646" on="1"/>
        <pt x="374" y="646" on="0"/>
      </contour>
      <contour>
        <pt x="464" y="0" on="1"/>
        <pt x="382" y="0" on="1"/>
        <pt x="382" y="305" on="1"/>
        <pt x="382" y="328" on="0"/>
        <pt x="380" y="358" on="0"/>
        <pt x="371" y="396" on="0"/>
        <pt x="354" y="419" on="0"/>
        <pt x="321" y="435" on="0"/>
        <pt x="298" y="435" on="1"/>
        <pt x="232" y="435" on="0"/>
        <pt x="162" y="369" on="1"/>
        <pt x="162" y="0" on="1"/>
        <pt x="80" y="0" on="1"/>
        <pt x="80" y="352" on="1"/>
        <pt x="80" y="448" on="0"/>
        <pt x="47" y="493" on="1"/>
        <pt x="138" y="505" on="1"/>
        <pt x="153" y="467" on="0"/>
        <pt x="157" y="434" on="1"/>
        <pt x="232" y="509" on="0"/>
        <pt x="312" y="509" on="1"/>
        <pt x="391" y="509" on="0"/>
        <pt x="464" y="414" on="0"/>
        <pt x="464" y="332" on="1"/>
      </contour>
    </TTGlyph>
    <TTGlyph name="numbersign" xMin="52" yMin="-5" xMax="588" yMax="721">
      <contour>
        <pt x="398" y="-5" on="1"/>
        <pt x="327" y="-5" on="1"/>
        <pt x="360" y="236" on="1"/>
        <pt x="249" y="236" on="1"/>
        <pt x="215" y="-5" on="1"/>
        <pt x="145" y="-5" on="1"/>
        <pt x="178" y="236" on="1"/>
        <pt x="52" y="236" on="1"/>
        <pt x="52" y="301" on="1"/>
        <pt x="187" y="301" on="1"/>
        <pt x="203" y="422" on="1"/>
        <pt x="78" y="422" on="1"/>
        <pt x="78" y="488" on="1"/>
        <pt x="212" y="488" on="1"/>
        <pt x="243" y="721" on="1"/>
        <pt x="316" y="721" on="1"/>
        <pt x="283" y="488" on="1"/>
        <pt x="395" y="488" on="1"/>
        <pt x="426" y="721" on="1"/>
        <pt x="497" y="721" on="1"/>
        <pt x="465" y="488" on="1"/>
        <pt x="588" y="488" on="1"/>
        <pt x="588" y="422" on="1"/>
        <pt x="457" y="422" on="1"/>
        <pt x="440" y="301" on="1"/>
        <pt x="564" y="301" on="1"/>
        <pt x="564" y="236" on="1"/>
        <pt x="431" y="236" on="1"/>
      </contour>
      <contour>
        <pt x="369" y="301" on="1"/>
        <pt x="386" y="422" on="1"/>
        <pt x="274" y="422" on="1"/>
        <pt x="258" y="301" on="1"/>
      </contour>
    </TTGlyph>
    <TTGlyph name="o" xMin="44" yMin="-13" xMax="493" yMax="509">
      <contour>
        <pt x="268" y="-13" on="1"/>
        <pt x="163" y="-13" on="0"/>
        <pt x="44" y="140" on="0"/>
        <pt x="44" y="248" on="1"/>
        <pt x="44" y="355" on="0"/>
        <pt x="164" y="509" on="0"/>
        <pt x="268" y="509" on="1"/>
        <pt x="374" y="509" on="0"/>
        <pt x="493" y="357" on="0"/>
        <pt x="493" y="139" on="0"/>
        <pt x="374" y="-13" on="0"/>
      </contour>
      <contour>
        <pt x="268" y="50" on="1"/>
        <pt x="317" y="50" on="0"/>
        <pt x="382" y="116" on="0"/>
        <pt x="405" y="201" on="0"/>
        <pt x="405" y="295" on="0"/>
        <pt x="381" y="380" on="0"/>
        <pt x="316" y="446" on="0"/>
        <pt x="268" y="446" on="1"/>
        <pt x="220" y="446" on="0"/>
        <pt x="155" y="380" on="0"/>
        <pt x="132" y="295" on="0"/>
        <pt x="132" y="248" on="1"/>
        <pt x="132" y="204" on="0"/>
        <pt x="158" y="118" on="0"/>
        <pt x="223" y="50" on="0"/>
      </contour>
    </TTGlyph>
    <TTGlyph name="oacute" xMin="44" yMin="-13" xMax="493" yMax="727">
      <component glyphName="acute" x="198" y="4" flags="0x4"/>
      <component glyphName="o" x="0" y="0" flags="0x4"/>
    </TTGlyph>
    <TTGlyph name="ocircumflex" xMin="44" yMin="-13" xMax="493" yMax="727">
      <component glyphName="circumflex" x="132" y="7" flags="0x4"/>
      <component glyphName="o" x="0" y="0" flags="0x4"/>
    </TTGlyph>
    <TTGlyph name="odieresis" xMin="44" yMin="-13" xMax="493" yMax="681">
      <component glyphName="dieresis" x="134" y="0" flags="0x4"/>
      <component glyphName="o" x="0" y="0" flags="0x4"/>
    </TTGlyph>
    <TTGlyph name="oe" xMin="44" yMin="-13" xMax="808" yMax="509">
      <contour>
        <pt x="769" y="104" on="1"/>
        <pt x="804" y="43" on="1"/>
        <pt x="740" y="-13" on="0"/>
        <pt x="637" y="-13" on="1"/>
        <pt x="580" y="-13" on="0"/>
        <pt x="479" y="38" on="0"/>
        <pt x="449" y="84" on="1"/>
        <pt x="387" y="-13" on="0"/>
        <pt x="269" y="-13" on="1"/>
        <pt x="164" y="-13" on="0"/>
        <pt x="44" y="140" on="0"/>
        <pt x="44" y="248" on="1"/>
        <pt x="44" y="355" on="0"/>
        <pt x="165" y="509" on="0"/>
        <pt x="269" y="509" on="1"/>
        <pt x="388" y="509" on="0"/>
        <pt x="450" y="410" on="1"/>
        <pt x="478" y="455" on="0"/>
        <pt x="569" y="509" on="0"/>
        <pt x="621" y="509" on="1"/>
        <pt x="705" y="509" on="0"/>
        <pt x="808" y="404" on="0"/>
        <pt x="808" y="320" on="1"/>
        <pt x="808" y="256" on="0"/>
        <pt x="761" y="256" on="1"/>
        <pt x="494" y="256" on="1"/>
        <pt x="495" y="204" on="0"/>
        <pt x="523" y="118" on="0"/>
        <pt x="594" y="57" on="0"/>
        <pt x="647" y="57" on="1"/>
        <pt x="677" y="57" on="0"/>
        <pt x="745" y="84" on="0"/>
      </contour>
      <contour>
        <pt x="501" y="318" on="1"/>
        <pt x="703" y="318" on="1"/>
        <pt x="712" y="318" on="0"/>
        <pt x="720" y="319" on="0"/>
        <pt x="727" y="327" on="0"/>
        <pt x="727" y="336" on="1"/>
        <pt x="727" y="383" on="0"/>
        <pt x="675" y="446" on="0"/>
        <pt x="629" y="446" on="1"/>
        <pt x="581" y="446" on="0"/>
        <pt x="509" y="368" on="0"/>
      </contour>
      <contour>
        <pt x="269" y="50" on="1"/>
        <pt x="318" y="50" on="0"/>
        <pt x="383" y="116" on="0"/>
        <pt x="407" y="200" on="0"/>
        <pt x="407" y="248" on="1"/>
        <pt x="407" y="294" on="0"/>
        <pt x="382" y="380" on="0"/>
        <pt x="317" y="446" on="0"/>
        <pt x="269" y="446" on="1"/>
        <pt x="199" y="446" on="0"/>
        <pt x="130" y="324" on="0"/>
        <pt x="130" y="248" on="1"/>
        <pt x="130" y="204" on="0"/>
        <pt x="157" y="117" on="0"/>
        <pt x="223" y="50" on="0"/>
      </contour>
    </TTGlyph>
    <TTGlyph name="ogonek" xMin="25" yMin="-202" xMax="254" yMax="25">
      <contour>
        <pt x="237" y="-115" on="1"/>
        <pt x="254" y="-152" on="1"/>
        <pt x="188" y="-202" on="0"/>
        <pt x="121" y="-202" on="1"/>
        <pt x="79" y="-202" on="0"/>
        <pt x="25" y="-159" on="0"/>
        <pt x="25" y="-118" on="1"/>
        <pt x="25" y="-67" on="0"/>
        <pt x="151" y="15" on="0"/>
        <pt x="211" y="25" on="1"/>
        <pt x="231" y="14" on="1"/>
        <pt x="228" y="12" on="0"/>
        <pt x="195" y="-5" on="0"/>
        <pt x="181" y="-14" on="0"/>
        <pt x="151" y="-33" on="0"/>
        <pt x="135" y="-48" on="0"/>
        <pt x="116" y="-69" on="0"/>
        <pt x="108" y="-91" on="0"/>
        <pt x="108" y="-102" on="1"/>
        <pt x="108" y="-147" on="0"/>
        <pt x="157" y="-147" on="1"/>
        <pt x="185" y="-147" on="0"/>
      </contour>
    </TTGlyph>
    <TTGlyph name="ograve" xMin="44" yMin="-13" xMax="493" yMax="727">
      <component glyphName="o" x="0" y="0" flags="0x204"/>
      <component glyphName="grave" x="65" y="-1" flags="0x4"/>
    </TTGlyph>
    <TTGlyph name="one" xMin="26" yMin="-1" xMax="360" yMax="497">
      <contour>
        <pt x="360" y="-1" on="1"/>
        <pt x="47" y="-1" on="1"/>
        <pt x="47" y="67" on="1"/>
        <pt x="164" y="67" on="1"/>
        <pt x="164" y="404" on="1"/>
        <pt x="44" y="367" on="1"/>
        <pt x="26" y="414" on="1"/>
        <pt x="197" y="497" on="1"/>
        <pt x="247" y="497" on="1"/>
        <pt x="247" y="67" on="1"/>
        <pt x="360" y="67" on="1"/>
      </contour>
    </TTGlyph>
    <TTGlyph name="onehalf" xMin="76" yMin="-22" xMax="1022" yMax="753">
      <contour>
        <pt x="395" y="248" on="1"/>
        <pt x="91" y="248" on="1"/>
        <pt x="91" y="307" on="1"/>
        <pt x="215" y="307" on="1"/>
        <pt x="215" y="652" on="1"/>
        <pt x="94" y="617" on="1"/>
        <pt x="92" y="623" on="0"/>
        <pt x="76" y="666" on="1"/>
        <pt x="162" y="695" on="0"/>
        <pt x="245" y="732" on="1"/>
        <pt x="295" y="732" on="1"/>
        <pt x="295" y="307" on="1"/>
        <pt x="395" y="307" on="1"/>
      </contour>
      <contour>
        <pt x="421" y="-22" on="1"/>
        <pt x="359" y="-22" on="1"/>
        <pt x="565" y="494" on="0"/>
        <pt x="667" y="753" on="1"/>
        <pt x="730" y="753" on="1"/>
        <pt x="627" y="494" on="0"/>
      </contour>
      <contour>
        <pt x="1003" y="0" on="1"/>
        <pt x="675" y="0" on="1"/>
        <pt x="675" y="38" on="1"/>
        <pt x="676" y="39" on="0"/>
        <pt x="695" y="54" on="1"/>
        <pt x="927" y="252" on="0"/>
        <pt x="927" y="358" on="1"/>
        <pt x="927" y="391" on="0"/>
        <pt x="884" y="431" on="0"/>
        <pt x="848" y="431" on="1"/>
        <pt x="783" y="431" on="0"/>
        <pt x="723" y="381" on="1"/>
        <pt x="691" y="429" on="1"/>
        <pt x="775" y="494" on="0"/>
        <pt x="866" y="494" on="1"/>
        <pt x="940" y="494" on="0"/>
        <pt x="1014" y="420" on="0"/>
        <pt x="1014" y="365" on="1"/>
        <pt x="1014" y="319" on="0"/>
        <pt x="958" y="218" on="0"/>
        <pt x="873" y="133" on="0"/>
        <pt x="819" y="87" on="0"/>
        <pt x="797" y="72" on="1"/>
        <pt x="1022" y="72" on="1"/>
      </contour>
    </TTGlyph>
    <TTGlyph name="onequarter" xMin="76" yMin="-22" xMax="983" yMax="753">
      <contour>
        <pt x="421" y="-22" on="1"/>
        <pt x="359" y="-22" on="1"/>
        <pt x="565" y="494" on="0"/>
        <pt x="667" y="753" on="1"/>
        <pt x="730" y="753" on="1"/>
        <pt x="627" y="494" on="0"/>
      </contour>
      <contour>
        <pt x="395" y="248" on="1"/>
        <pt x="91" y="248" on="1"/>
        <pt x="91" y="307" on="1"/>
        <pt x="215" y="307" on="1"/>
        <pt x="215" y="652" on="1"/>
        <pt x="94" y="617" on="1"/>
        <pt x="92" y="623" on="0"/>
        <pt x="76" y="666" on="1"/>
        <pt x="162" y="695" on="0"/>
        <pt x="245" y="732" on="1"/>
        <pt x="295" y="732" on="1"/>
        <pt x="295" y="307" on="1"/>
        <pt x="395" y="307" on="1"/>
      </contour>
      <contour>
        <pt x="908" y="0" on="1"/>
        <pt x="828" y="0" on="1"/>
        <pt x="828" y="110" on="1"/>
        <pt x="599" y="110" on="1"/>
        <pt x="599" y="150" on="1"/>
        <pt x="676" y="261" on="0"/>
        <pt x="828" y="483" on="1"/>
        <pt x="908" y="483" on="1"/>
        <pt x="908" y="169" on="1"/>
        <pt x="983" y="169" on="1"/>
        <pt x="979" y="155" on="0"/>
        <pt x="966" y="110" on="1"/>
        <pt x="908" y="110" on="1"/>
      </contour>
      <contour>
        <pt x="828" y="169" on="1"/>
        <pt x="828" y="289" on="1"/>
        <pt x="828" y="306" on="0"/>
        <pt x="831" y="386" on="0"/>
        <pt x="831" y="398" on="1"/>
        <pt x="819" y="374" on="0"/>
        <pt x="781" y="311" on="0"/>
        <pt x="749" y="264" on="0"/>
        <pt x="696" y="187" on="0"/>
        <pt x="684" y="169" on="1"/>
      </contour>
    </TTGlyph>
    <TTGlyph name="onesuperior" xMin="76" yMin="434" xMax="395" yMax="918">
      <contour>
        <pt x="395" y="434" on="1"/>
        <pt x="91" y="434" on="1"/>
        <pt x="91" y="493" on="1"/>
        <pt x="215" y="493" on="1"/>
        <pt x="215" y="838" on="1"/>
        <pt x="195" y="832" on="0"/>
        <pt x="114" y="809" on="0"/>
        <pt x="94" y="803" on="1"/>
        <pt x="92" y="809" on="0"/>
        <pt x="76" y="852" on="1"/>
        <pt x="162" y="881" on="0"/>
        <pt x="245" y="918" on="1"/>
        <pt x="295" y="918" on="1"/>
        <pt x="295" y="493" on="1"/>
        <pt x="395" y="493" on="1"/>
      </contour>
    </TTGlyph>
    <TTGlyph name="ordfeminine" xMin="10" yMin="279" xMax="305" yMax="730">
      <contour>
        <pt x="290" y="454" on="1"/>
        <pt x="305" y="410" on="1"/>
        <pt x="300" y="408" on="0"/>
        <pt x="278" y="399" on="0"/>
        <pt x="264" y="393" on="0"/>
        <pt x="244" y="388" on="0"/>
        <pt x="236" y="388" on="1"/>
        <pt x="202" y="388" on="0"/>
        <pt x="190" y="425" on="1"/>
        <pt x="150" y="387" on="0"/>
        <pt x="101" y="387" on="1"/>
        <pt x="61" y="387" on="0"/>
        <pt x="10" y="436" on="0"/>
        <pt x="10" y="476" on="1"/>
        <pt x="10" y="590" on="0"/>
        <pt x="186" y="592" on="1"/>
        <pt x="186" y="619" on="1"/>
        <pt x="186" y="676" on="0"/>
        <pt x="141" y="676" on="1"/>
        <pt x="119" y="676" on="0"/>
        <pt x="68" y="651" on="0"/>
        <pt x="52" y="634" on="1"/>
        <pt x="19" y="684" on="1"/>
        <pt x="74" y="730" on="0"/>
        <pt x="145" y="730" on="1"/>
        <pt x="196" y="730" on="0"/>
        <pt x="249" y="672" on="0"/>
        <pt x="249" y="620" on="1"/>
        <pt x="249" y="467" on="1"/>
        <pt x="249" y="444" on="0"/>
        <pt x="256" y="444" on="1"/>
      </contour>
      <contour>
        <pt x="259" y="279" on="1"/>
        <pt x="40" y="279" on="1"/>
        <pt x="40" y="329" on="1"/>
        <pt x="259" y="329" on="1"/>
      </contour>
      <contour>
        <pt x="186" y="523" on="1"/>
        <pt x="186" y="537" on="1"/>
        <pt x="165" y="537" on="0"/>
        <pt x="136" y="534" on="0"/>
        <pt x="97" y="524" on="0"/>
        <pt x="76" y="498" on="0"/>
        <pt x="76" y="478" on="1"/>
        <pt x="76" y="462" on="0"/>
        <pt x="102" y="444" on="0"/>
        <pt x="118" y="444" on="1"/>
        <pt x="147" y="444" on="0"/>
        <pt x="186" y="494" on="0"/>
      </contour>
    </TTGlyph>
    <TTGlyph name="ordmasculine" xMin="13" yMin="279" xMax="319" yMax="737">
      <contour>
        <pt x="13" y="566" on="1"/>
        <pt x="13" y="637" on="0"/>
        <pt x="96" y="737" on="0"/>
        <pt x="166" y="737" on="1"/>
        <pt x="237" y="737" on="0"/>
        <pt x="319" y="638" on="0"/>
        <pt x="319" y="494" on="0"/>
        <pt x="237" y="395" on="0"/>
        <pt x="166" y="395" on="1"/>
        <pt x="95" y="395" on="0"/>
        <pt x="13" y="494" on="0"/>
      </contour>
      <contour>
        <pt x="276" y="279" on="1"/>
        <pt x="57" y="279" on="1"/>
        <pt x="57" y="329" on="1"/>
        <pt x="276" y="329" on="1"/>
      </contour>
      <contour>
        <pt x="166" y="447" on="1"/>
        <pt x="208" y="447" on="0"/>
        <pt x="249" y="520" on="0"/>
        <pt x="249" y="566" on="1"/>
        <pt x="249" y="611" on="0"/>
        <pt x="208" y="685" on="0"/>
        <pt x="166" y="685" on="1"/>
        <pt x="123" y="685" on="0"/>
        <pt x="82" y="612" on="0"/>
        <pt x="82" y="566" on="1"/>
        <pt x="82" y="523" on="0"/>
        <pt x="126" y="447" on="0"/>
      </contour>
    </TTGlyph>
    <TTGlyph name="oslash" xMin="44" yMin="-69" xMax="493" yMax="553">
      <contour>
        <pt x="101" y="-69" on="1"/>
        <pt x="54" y="-38" on="1"/>
        <pt x="113" y="53" on="1"/>
        <pt x="44" y="126" on="0"/>
        <pt x="44" y="248" on="1"/>
        <pt x="44" y="355" on="0"/>
        <pt x="164" y="509" on="0"/>
        <pt x="268" y="509" on="1"/>
        <pt x="325" y="509" on="0"/>
        <pt x="376" y="482" on="1"/>
        <pt x="420" y="553" on="1"/>
        <pt x="470" y="526" on="1"/>
        <pt x="421" y="446" on="1"/>
        <pt x="493" y="373" on="0"/>
        <pt x="493" y="248" on="1"/>
        <pt x="493" y="139" on="0"/>
        <pt x="374" y="-13" on="0"/>
        <pt x="268" y="-13" on="1"/>
        <pt x="206" y="-13" on="0"/>
        <pt x="157" y="17" on="1"/>
      </contour>
      <contour>
        <pt x="158" y="127" on="1"/>
        <pt x="339" y="422" on="1"/>
        <pt x="307" y="446" on="0"/>
        <pt x="268" y="446" on="1"/>
        <pt x="198" y="446" on="0"/>
        <pt x="129" y="325" on="0"/>
        <pt x="129" y="248" on="1"/>
        <pt x="129" y="176" on="0"/>
      </contour>
      <contour>
        <pt x="378" y="375" on="1"/>
        <pt x="194" y="79" on="1"/>
        <pt x="226" y="50" on="0"/>
        <pt x="268" y="50" on="1"/>
        <pt x="317" y="50" on="0"/>
        <pt x="382" y="115" on="0"/>
        <pt x="407" y="200" on="0"/>
        <pt x="407" y="248" on="1"/>
        <pt x="407" y="323" on="0"/>
      </contour>
    </TTGlyph>
    <TTGlyph name="otilde" xMin="44" yMin="-13" xMax="493" yMax="685">
      <component glyphName="tilde" x="105" y="0" flags="0x4"/>
      <component glyphName="o" x="0" y="0" flags="0x4"/>
    </TTGlyph>
    <TTGlyph name="p" xMin="50" yMin="-216" xMax="510" yMax="508">
      <contour>
        <pt x="177" y="-216" on="1"/>
        <pt x="81" y="-216" on="1"/>
        <pt x="81" y="352" on="1"/>
        <pt x="81" y="444" on="0"/>
        <pt x="50" y="493" on="1"/>
        <pt x="138" y="504" on="1"/>
        <pt x="152" y="473" on="0"/>
        <pt x="157" y="436" on="1"/>
        <pt x="214" y="508" on="0"/>
        <pt x="303" y="508" on="1"/>
        <pt x="402" y="508" on="0"/>
        <pt x="510" y="354" on="0"/>
        <pt x="510" y="251" on="1"/>
        <pt x="510" y="141" on="0"/>
        <pt x="394" y="-13" on="0"/>
        <pt x="287" y="-13" on="1"/>
        <pt x="210" y="-13" on="0"/>
        <pt x="163" y="31" on="1"/>
        <pt x="163" y="-157" on="1"/>
      </contour>
      <contour>
        <pt x="163" y="369" on="1"/>
        <pt x="163" y="201" on="1"/>
        <pt x="163" y="137" on="0"/>
        <pt x="223" y="55" on="0"/>
        <pt x="285" y="55" on="1"/>
        <pt x="323" y="55" on="0"/>
        <pt x="378" y="89" on="0"/>
        <pt x="408" y="146" on="0"/>
        <pt x="422" y="210" on="0"/>
        <pt x="422" y="245" on="1"/>
        <pt x="422" y="323" on="0"/>
        <pt x="352" y="435" on="0"/>
        <pt x="278" y="435" on="1"/>
        <pt x="219" y="435" on="0"/>
      </contour>
    </TTGlyph>
    <TTGlyph name="paragraph" xMin="40" yMin="-158" xMax="455" yMax="718">
      <contour>
        <pt x="229" y="-47" on="1"/>
        <pt x="229" y="332" on="1"/>
        <pt x="150" y="332" on="0"/>
        <pt x="40" y="440" on="0"/>
        <pt x="40" y="520" on="1"/>
        <pt x="40" y="618" on="0"/>
        <pt x="163" y="718" on="0"/>
        <pt x="263" y="718" on="1"/>
        <pt x="455" y="718" on="1"/>
        <pt x="455" y="664" on="1"/>
        <pt x="399" y="664" on="1"/>
        <pt x="399" y="10" on="1"/>
        <pt x="399" y="-36" on="0"/>
        <pt x="334" y="-101" on="0"/>
        <pt x="288" y="-101" on="1"/>
        <pt x="283" y="-101" on="0"/>
        <pt x="271" y="-99" on="1"/>
        <pt x="256" y="-126" on="0"/>
        <pt x="204" y="-158" on="0"/>
        <pt x="173" y="-158" on="1"/>
        <pt x="127" y="-158" on="0"/>
        <pt x="62" y="-93" on="0"/>
        <pt x="62" y="-1" on="0"/>
        <pt x="127" y="64" on="0"/>
        <pt x="173" y="64" on="1"/>
        <pt x="173" y="10" on="1"/>
        <pt x="150" y="10" on="0"/>
        <pt x="116" y="-24" on="0"/>
        <pt x="116" y="-70" on="0"/>
        <pt x="150" y="-104" on="0"/>
        <pt x="173" y="-104" on="1"/>
        <pt x="196" y="-104" on="0"/>
        <pt x="229" y="-70" on="0"/>
      </contour>
      <contour>
        <pt x="345" y="10" on="1"/>
        <pt x="345" y="664" on="1"/>
        <pt x="284" y="664" on="1"/>
        <pt x="284" y="-47" on="1"/>
        <pt x="288" y="-47" on="1"/>
        <pt x="311" y="-47" on="0"/>
        <pt x="345" y="-13" on="0"/>
      </contour>
    </TTGlyph>
    <TTGlyph name="parenleft" xMin="44" yMin="-138" xMax="285" yMax="743">
      <contour>
        <pt x="285" y="-129" on="1"/>
        <pt x="218" y="-138" on="1"/>
        <pt x="44" y="64" on="0"/>
        <pt x="44" y="302" on="1"/>
        <pt x="44" y="543" on="0"/>
        <pt x="218" y="743" on="1"/>
        <pt x="285" y="733" on="1"/>
        <pt x="132" y="545" on="0"/>
        <pt x="132" y="59" on="0"/>
      </contour>
    </TTGlyph>
    <TTGlyph name="parenright" xMin="21" yMin="-138" xMax="262" yMax="743">
      <contour>
        <pt x="88" y="-138" on="1"/>
        <pt x="21" y="-129" on="1"/>
        <pt x="175" y="62" on="0"/>
        <pt x="175" y="542" on="0"/>
        <pt x="21" y="733" on="1"/>
        <pt x="88" y="743" on="1"/>
        <pt x="262" y="543" on="0"/>
        <pt x="262" y="302" on="1"/>
        <pt x="262" y="64" on="0"/>
      </contour>
    </TTGlyph>
    <TTGlyph name="partialdiff" xMin="47" yMin="-10" xMax="487" yMax="734">
      <contour>
        <pt x="388" y="355" on="1"/>
        <pt x="385" y="386" on="0"/>
        <pt x="384" y="396" on="1"/>
        <pt x="380" y="525" on="0"/>
        <pt x="275" y="661" on="0"/>
        <pt x="206" y="661" on="1"/>
        <pt x="176" y="661" on="0"/>
        <pt x="126" y="646" on="0"/>
        <pt x="116" y="639" on="1"/>
        <pt x="105" y="632" on="1"/>
        <pt x="91" y="656" on="0"/>
        <pt x="72" y="683" on="1"/>
        <pt x="77" y="689" on="0"/>
        <pt x="99" y="706" on="0"/>
        <pt x="175" y="734" on="0"/>
        <pt x="219" y="734" on="1"/>
        <pt x="337" y="734" on="0"/>
        <pt x="487" y="522" on="0"/>
        <pt x="487" y="333" on="1"/>
        <pt x="487" y="235" on="0"/>
        <pt x="439" y="93" on="0"/>
        <pt x="361" y="21" on="0"/>
        <pt x="284" y="-10" on="0"/>
        <pt x="245" y="-10" on="1"/>
        <pt x="213" y="-10" on="0"/>
        <pt x="150" y="10" on="0"/>
        <pt x="86" y="53" on="0"/>
        <pt x="47" y="138" on="0"/>
        <pt x="47" y="195" on="1"/>
        <pt x="47" y="250" on="0"/>
        <pt x="89" y="336" on="0"/>
        <pt x="153" y="385" on="0"/>
        <pt x="221" y="410" on="0"/>
        <pt x="252" y="410" on="1"/>
        <pt x="337" y="410" on="0"/>
      </contour>
      <contour>
        <pt x="386" y="290" on="1"/>
        <pt x="336" y="340" on="0"/>
        <pt x="266" y="340" on="1"/>
        <pt x="210" y="340" on="0"/>
        <pt x="139" y="246" on="0"/>
        <pt x="139" y="186" on="1"/>
        <pt x="139" y="136" on="0"/>
        <pt x="192" y="57" on="0"/>
        <pt x="246" y="57" on="1"/>
        <pt x="307" y="57" on="0"/>
        <pt x="380" y="191" on="0"/>
      </contour>
    </TTGlyph>
    <TTGlyph name="percent" xMin="46" yMin="-13" xMax="827" yMax="715">
      <contour>
        <pt x="668" y="-5" on="1"/>
        <pt x="591" y="-5" on="0"/>
        <pt x="500" y="113" on="0"/>
        <pt x="500" y="192" on="1"/>
        <pt x="500" y="274" on="0"/>
        <pt x="584" y="385" on="0"/>
        <pt x="664" y="385" on="1"/>
        <pt x="739" y="385" on="0"/>
        <pt x="827" y="269" on="0"/>
        <pt x="827" y="192" on="1"/>
        <pt x="827" y="116" on="0"/>
        <pt x="741" y="-5" on="0"/>
      </contour>
      <contour>
        <pt x="288" y="-13" on="1"/>
        <pt x="224" y="-13" on="1"/>
        <pt x="552" y="657" on="1"/>
        <pt x="328" y="657" on="1"/>
        <pt x="373" y="602" on="0"/>
        <pt x="373" y="521" on="1"/>
        <pt x="373" y="446" on="0"/>
        <pt x="287" y="324" on="0"/>
        <pt x="215" y="324" on="1"/>
        <pt x="138" y="324" on="0"/>
        <pt x="46" y="442" on="0"/>
        <pt x="46" y="521" on="1"/>
        <pt x="46" y="602" on="0"/>
        <pt x="131" y="715" on="0"/>
        <pt x="210" y="715" on="1"/>
        <pt x="643" y="715" on="1"/>
      </contour>
      <contour>
        <pt x="667" y="54" on="1"/>
        <pt x="697" y="54" on="0"/>
        <pt x="736" y="104" on="0"/>
        <pt x="750" y="161" on="0"/>
        <pt x="750" y="190" on="1"/>
        <pt x="750" y="218" on="0"/>
        <pt x="735" y="277" on="0"/>
        <pt x="695" y="328" on="0"/>
        <pt x="665" y="328" on="1"/>
        <pt x="622" y="328" on="0"/>
        <pt x="574" y="235" on="0"/>
        <pt x="574" y="141" on="0"/>
        <pt x="623" y="54" on="0"/>
      </contour>
      <contour>
        <pt x="213" y="383" on="1"/>
        <pt x="243" y="383" on="0"/>
        <pt x="283" y="433" on="0"/>
        <pt x="297" y="491" on="0"/>
        <pt x="297" y="519" on="1"/>
        <pt x="297" y="567" on="0"/>
        <pt x="254" y="657" on="0"/>
        <pt x="211" y="657" on="1"/>
        <pt x="182" y="657" on="0"/>
        <pt x="139" y="606" on="0"/>
        <pt x="121" y="545" on="0"/>
        <pt x="121" y="517" on="1"/>
        <pt x="121" y="470" on="0"/>
        <pt x="169" y="383" on="0"/>
      </contour>
    </TTGlyph>
    <TTGlyph name="period" xMin="42" yMin="-10" xMax="174" yMax="122">
      <contour>
        <pt x="42" y="56" on="1"/>
        <pt x="42" y="84" on="0"/>
        <pt x="80" y="122" on="0"/>
        <pt x="108" y="122" on="1"/>
        <pt x="135" y="122" on="0"/>
        <pt x="174" y="83" on="0"/>
        <pt x="174" y="29" on="0"/>
        <pt x="135" y="-10" on="0"/>
        <pt x="108" y="-10" on="1"/>
        <pt x="81" y="-10" on="0"/>
        <pt x="42" y="29" on="0"/>
      </contour>
    </TTGlyph>
    <TTGlyph name="periodcentered" xMin="81" yMin="194" xMax="213" yMax="326">
      <contour>
        <pt x="81" y="260" on="1"/>
        <pt x="81" y="288" on="0"/>
        <pt x="119" y="326" on="0"/>
        <pt x="147" y="326" on="1"/>
        <pt x="174" y="326" on="0"/>
        <pt x="213" y="287" on="0"/>
        <pt x="213" y="233" on="0"/>
        <pt x="174" y="194" on="0"/>
        <pt x="147" y="194" on="1"/>
        <pt x="120" y="194" on="0"/>
        <pt x="81" y="233" on="0"/>
      </contour>
    </TTGlyph>
    <TTGlyph name="perthousand" xMin="46" yMin="-13" xMax="1102" yMax="713">
      <contour>
        <pt x="943" y="-5" on="1"/>
        <pt x="866" y="-5" on="0"/>
        <pt x="774" y="113" on="0"/>
        <pt x="774" y="192" on="1"/>
        <pt x="774" y="274" on="0"/>
        <pt x="859" y="385" on="0"/>
        <pt x="939" y="385" on="1"/>
        <pt x="1014" y="385" on="0"/>
        <pt x="1102" y="269" on="0"/>
        <pt x="1102" y="192" on="1"/>
        <pt x="1102" y="116" on="0"/>
        <pt x="1016" y="-5" on="0"/>
      </contour>
      <contour>
        <pt x="593" y="-5" on="1"/>
        <pt x="516" y="-5" on="0"/>
        <pt x="424" y="112" on="0"/>
        <pt x="424" y="192" on="1"/>
        <pt x="424" y="274" on="0"/>
        <pt x="509" y="385" on="0"/>
        <pt x="588" y="385" on="1"/>
        <pt x="663" y="385" on="0"/>
        <pt x="751" y="269" on="0"/>
        <pt x="751" y="192" on="1"/>
        <pt x="751" y="117" on="0"/>
        <pt x="665" y="-5" on="0"/>
      </contour>
      <contour>
        <pt x="247" y="-13" on="1"/>
        <pt x="183" y="-13" on="1"/>
        <pt x="511" y="657" on="1"/>
        <pt x="328" y="657" on="1"/>
        <pt x="374" y="601" on="0"/>
        <pt x="374" y="521" on="1"/>
        <pt x="374" y="446" on="0"/>
        <pt x="287" y="324" on="0"/>
        <pt x="215" y="324" on="1"/>
        <pt x="138" y="324" on="0"/>
        <pt x="46" y="442" on="0"/>
        <pt x="46" y="521" on="1"/>
        <pt x="46" y="602" on="0"/>
        <pt x="131" y="713" on="0"/>
        <pt x="210" y="713" on="1"/>
        <pt x="602" y="713" on="1"/>
      </contour>
      <contour>
        <pt x="941" y="54" on="1"/>
        <pt x="984" y="54" on="0"/>
        <pt x="1025" y="142" on="0"/>
        <pt x="1025" y="190" on="1"/>
        <pt x="1025" y="218" on="0"/>
        <pt x="1010" y="277" on="0"/>
        <pt x="970" y="328" on="0"/>
        <pt x="940" y="328" on="1"/>
        <pt x="897" y="328" on="0"/>
        <pt x="849" y="235" on="0"/>
        <pt x="849" y="141" on="0"/>
        <pt x="897" y="54" on="0"/>
      </contour>
      <contour>
        <pt x="591" y="54" on="1"/>
        <pt x="621" y="54" on="0"/>
        <pt x="660" y="104" on="0"/>
        <pt x="674" y="161" on="0"/>
        <pt x="674" y="190" on="1"/>
        <pt x="674" y="218" on="0"/>
        <pt x="659" y="277" on="0"/>
        <pt x="619" y="328" on="0"/>
        <pt x="589" y="328" on="1"/>
        <pt x="560" y="328" on="0"/>
        <pt x="517" y="277" on="0"/>
        <pt x="499" y="216" on="0"/>
        <pt x="499" y="188" on="1"/>
        <pt x="499" y="141" on="0"/>
        <pt x="547" y="54" on="0"/>
      </contour>
      <contour>
        <pt x="213" y="383" on="1"/>
        <pt x="243" y="383" on="0"/>
        <pt x="283" y="433" on="0"/>
        <pt x="297" y="491" on="0"/>
        <pt x="297" y="519" on="1"/>
        <pt x="297" y="548" on="0"/>
        <pt x="282" y="607" on="0"/>
        <pt x="241" y="657" on="0"/>
        <pt x="211" y="657" on="1"/>
        <pt x="182" y="657" on="0"/>
        <pt x="139" y="606" on="0"/>
        <pt x="121" y="545" on="0"/>
        <pt x="121" y="517" on="1"/>
        <pt x="121" y="470" on="0"/>
        <pt x="169" y="383" on="0"/>
      </contour>
    </TTGlyph>
    <TTGlyph name="pi" xMin="42" yMin="-24" xMax="627" yMax="519">
      <contour>
        <pt x="602" y="519" on="1"/>
        <pt x="627" y="478" on="1"/>
        <pt x="591" y="433" on="0"/>
        <pt x="513" y="429" on="1"/>
        <pt x="467" y="289" on="0"/>
        <pt x="467" y="171" on="1"/>
        <pt x="467" y="130" on="0"/>
        <pt x="494" y="65" on="0"/>
        <pt x="527" y="65" on="1"/>
        <pt x="548" y="65" on="0"/>
        <pt x="570" y="75" on="1"/>
        <pt x="573" y="70" on="0"/>
        <pt x="588" y="37" on="0"/>
        <pt x="593" y="28" on="1"/>
        <pt x="555" y="-5" on="0"/>
        <pt x="502" y="-5" on="1"/>
        <pt x="459" y="-5" on="0"/>
        <pt x="403" y="53" on="0"/>
        <pt x="383" y="127" on="0"/>
        <pt x="383" y="171" on="1"/>
        <pt x="383" y="320" on="0"/>
        <pt x="439" y="429" on="1"/>
        <pt x="269" y="429" on="1"/>
        <pt x="269" y="338" on="1"/>
        <pt x="269" y="287" on="0"/>
        <pt x="265" y="215" on="0"/>
        <pt x="248" y="118" on="0"/>
        <pt x="216" y="51" on="0"/>
        <pt x="156" y="-9" on="0"/>
        <pt x="114" y="-24" on="1"/>
        <pt x="92" y="9" on="0"/>
        <pt x="89" y="13" on="1"/>
        <pt x="132" y="37" on="0"/>
        <pt x="180" y="126" on="0"/>
        <pt x="180" y="179" on="1"/>
        <pt x="180" y="393" on="1"/>
        <pt x="180" y="400" on="0"/>
        <pt x="186" y="426" on="0"/>
        <pt x="186" y="429" on="1"/>
        <pt x="150" y="426" on="0"/>
        <pt x="97" y="383" on="0"/>
        <pt x="89" y="349" on="1"/>
        <pt x="57" y="357" on="0"/>
        <pt x="42" y="362" on="1"/>
        <pt x="46" y="423" on="0"/>
        <pt x="132" y="497" on="0"/>
        <pt x="204" y="497" on="1"/>
        <pt x="504" y="497" on="1"/>
        <pt x="565" y="497" on="0"/>
      </contour>
    </TTGlyph>
    <TTGlyph name="plus" xMin="68" yMin="0" xMax="567" yMax="497">
      <contour>
        <pt x="567" y="215" on="1"/>
        <pt x="352" y="215" on="1"/>
        <pt x="352" y="0" on="1"/>
        <pt x="282" y="0" on="1"/>
        <pt x="282" y="215" on="1"/>
        <pt x="68" y="215" on="1"/>
        <pt x="68" y="283" on="1"/>
        <pt x="282" y="283" on="1"/>
        <pt x="282" y="497" on="1"/>
        <pt x="352" y="497" on="1"/>
        <pt x="352" y="283" on="1"/>
        <pt x="567" y="283" on="1"/>
      </contour>
    </TTGlyph>
    <TTGlyph name="plusminus" xMin="68" yMin="-1" xMax="567" yMax="496">
      <contour>
        <pt x="567" y="262" on="1"/>
        <pt x="352" y="262" on="1"/>
        <pt x="352" y="97" on="1"/>
        <pt x="282" y="97" on="1"/>
        <pt x="282" y="262" on="1"/>
        <pt x="68" y="262" on="1"/>
        <pt x="68" y="332" on="1"/>
        <pt x="282" y="332" on="1"/>
        <pt x="282" y="496" on="1"/>
        <pt x="352" y="496" on="1"/>
        <pt x="352" y="332" on="1"/>
        <pt x="567" y="332" on="1"/>
      </contour>
      <contour>
        <pt x="567" y="-1" on="1"/>
        <pt x="68" y="-1" on="1"/>
        <pt x="68" y="69" on="1"/>
        <pt x="567" y="69" on="1"/>
      </contour>
    </TTGlyph>
    <TTGlyph name="product" xMin="31" yMin="-228" xMax="803" yMax="724">
      <contour>
        <pt x="686" y="-228" on="1"/>
        <pt x="590" y="-228" on="1"/>
        <pt x="590" y="655" on="1"/>
        <pt x="243" y="655" on="1"/>
        <pt x="243" y="-228" on="1"/>
        <pt x="147" y="-228" on="1"/>
        <pt x="147" y="655" on="1"/>
        <pt x="31" y="655" on="1"/>
        <pt x="31" y="724" on="1"/>
        <pt x="803" y="724" on="1"/>
        <pt x="803" y="655" on="1"/>
        <pt x="686" y="655" on="1"/>
      </contour>
    </TTGlyph>
    <TTGlyph name="q" xMin="44" yMin="-216" xMax="487" yMax="509">
      <contour>
        <pt x="487" y="-216" on="1"/>
        <pt x="391" y="-216" on="1"/>
        <pt x="391" y="43" on="1"/>
        <pt x="332" y="-12" on="0"/>
        <pt x="251" y="-12" on="1"/>
        <pt x="185" y="-12" on="0"/>
        <pt x="88" y="67" on="0"/>
        <pt x="44" y="181" on="0"/>
        <pt x="44" y="245" on="1"/>
        <pt x="44" y="355" on="0"/>
        <pt x="157" y="509" on="0"/>
        <pt x="262" y="509" on="1"/>
        <pt x="356" y="509" on="0"/>
        <pt x="409" y="444" on="1"/>
        <pt x="427" y="497" on="1"/>
        <pt x="477" y="497" on="1"/>
        <pt x="474" y="428" on="1"/>
        <pt x="474" y="-157" on="1"/>
        <pt x="474" y="-158" on="0"/>
        <pt x="480" y="-185" on="0"/>
        <pt x="487" y="-214" on="0"/>
      </contour>
      <contour>
        <pt x="391" y="115" on="1"/>
        <pt x="391" y="296" on="1"/>
        <pt x="391" y="364" on="0"/>
        <pt x="331" y="446" on="0"/>
        <pt x="266" y="446" on="1"/>
        <pt x="219" y="446" on="0"/>
        <pt x="156" y="378" on="0"/>
        <pt x="133" y="293" on="0"/>
        <pt x="133" y="248" on="1"/>
        <pt x="133" y="173" on="0"/>
        <pt x="202" y="60" on="0"/>
        <pt x="272" y="60" on="1"/>
        <pt x="304" y="60" on="0"/>
        <pt x="370" y="90" on="0"/>
      </contour>
    </TTGlyph>
    <TTGlyph name="question" xMin="51" yMin="-13" xMax="387" yMax="723">
      <contour>
        <pt x="222" y="217" on="1"/>
        <pt x="157" y="217" on="1"/>
        <pt x="157" y="412" on="1"/>
        <pt x="216" y="422" on="0"/>
        <pt x="299" y="492" on="0"/>
        <pt x="299" y="548" on="1"/>
        <pt x="299" y="600" on="0"/>
        <pt x="226" y="662" on="0"/>
        <pt x="174" y="662" on="1"/>
        <pt x="112" y="662" on="0"/>
        <pt x="78" y="634" on="1"/>
        <pt x="51" y="691" on="1"/>
        <pt x="96" y="723" on="0"/>
        <pt x="183" y="723" on="1"/>
        <pt x="265" y="723" on="0"/>
        <pt x="387" y="634" on="0"/>
        <pt x="387" y="554" on="1"/>
        <pt x="387" y="493" on="0"/>
        <pt x="305" y="390" on="0"/>
        <pt x="246" y="371" on="1"/>
        <pt x="229" y="365" on="0"/>
        <pt x="222" y="356" on="0"/>
        <pt x="222" y="340" on="1"/>
      </contour>
      <contour>
        <pt x="120" y="53" on="1"/>
        <pt x="120" y="81" on="0"/>
        <pt x="158" y="119" on="0"/>
        <pt x="186" y="119" on="1"/>
        <pt x="213" y="119" on="0"/>
        <pt x="252" y="80" on="0"/>
        <pt x="252" y="26" on="0"/>
        <pt x="213" y="-13" on="0"/>
        <pt x="186" y="-13" on="1"/>
        <pt x="159" y="-13" on="0"/>
        <pt x="120" y="26" on="0"/>
      </contour>
    </TTGlyph>
    <TTGlyph name="questiondown" xMin="48" yMin="-126" xMax="384" yMax="610">
      <contour>
        <pt x="357" y="-37" on="1"/>
        <pt x="384" y="-94" on="1"/>
        <pt x="339" y="-126" on="0"/>
        <pt x="252" y="-126" on="1"/>
        <pt x="170" y="-126" on="0"/>
        <pt x="48" y="-37" on="0"/>
        <pt x="48" y="43" on="1"/>
        <pt x="48" y="104" on="0"/>
        <pt x="130" y="207" on="0"/>
        <pt x="189" y="226" on="1"/>
        <pt x="206" y="232" on="0"/>
        <pt x="213" y="241" on="0"/>
        <pt x="213" y="257" on="1"/>
        <pt x="213" y="380" on="1"/>
        <pt x="278" y="380" on="1"/>
        <pt x="278" y="185" on="1"/>
        <pt x="219" y="175" on="0"/>
        <pt x="136" y="105" on="0"/>
        <pt x="136" y="49" on="1"/>
        <pt x="136" y="-3" on="0"/>
        <pt x="209" y="-65" on="0"/>
        <pt x="261" y="-65" on="1"/>
        <pt x="323" y="-65" on="0"/>
      </contour>
      <contour>
        <pt x="183" y="544" on="1"/>
        <pt x="183" y="572" on="0"/>
        <pt x="221" y="610" on="0"/>
        <pt x="249" y="610" on="1"/>
        <pt x="276" y="610" on="0"/>
        <pt x="315" y="571" on="0"/>
        <pt x="315" y="517" on="0"/>
        <pt x="276" y="478" on="0"/>
        <pt x="249" y="478" on="1"/>
        <pt x="222" y="478" on="0"/>
        <pt x="183" y="517" on="0"/>
      </contour>
    </TTGlyph>
    <TTGlyph name="quotedbl" xMin="69" yMin="441" xMax="299" yMax="734">
      <contour>
        <pt x="271" y="441" on="1"/>
        <pt x="242" y="441" on="1"/>
        <pt x="241" y="444" on="0"/>
        <pt x="228" y="502" on="0"/>
        <pt x="215" y="555" on="0"/>
        <pt x="215" y="556" on="1"/>
        <pt x="215" y="734" on="1"/>
        <pt x="299" y="734" on="1"/>
        <pt x="299" y="556" on="1"/>
        <pt x="299" y="553" on="0"/>
      </contour>
      <contour>
        <pt x="125" y="441" on="1"/>
        <pt x="96" y="441" on="1"/>
        <pt x="95" y="444" on="0"/>
        <pt x="82" y="502" on="0"/>
        <pt x="69" y="555" on="0"/>
        <pt x="69" y="556" on="1"/>
        <pt x="69" y="734" on="1"/>
        <pt x="153" y="734" on="1"/>
        <pt x="153" y="556" on="1"/>
        <pt x="153" y="555" on="0"/>
        <pt x="140" y="502" on="0"/>
        <pt x="126" y="444" on="0"/>
      </contour>
    </TTGlyph>
    <TTGlyph name="quotedblbase" xMin="75" yMin="-127" xMax="401" yMax="124">
      <component glyphName="comma" x="29" y="0" flags="0x4"/>
      <component glyphName="comma" x="218" y="0" flags="0x4"/>
    </TTGlyph>
    <TTGlyph name="quotedblleft" xMin="71" yMin="482" xMax="403" yMax="733">
      <component glyphName="quoteleft" x="0" y="0" flags="0x4"/>
      <component glyphName="quoteleft" x="195" y="0" flags="0x4"/>
    </TTGlyph>
    <TTGlyph name="quotedblright" xMin="79" yMin="482" xMax="411" yMax="733">
      <contour>
        <pt x="80" y="516" on="1"/>
        <pt x="82" y="519" on="0"/>
        <pt x="100" y="536" on="0"/>
        <pt x="110" y="547" on="0"/>
        <pt x="123" y="564" on="0"/>
        <pt x="129" y="580" on="0"/>
        <pt x="129" y="587" on="1"/>
        <pt x="129" y="598" on="0"/>
        <pt x="79" y="645" on="0"/>
        <pt x="79" y="673" on="1"/>
        <pt x="79" y="698" on="0"/>
        <pt x="115" y="733" on="0"/>
        <pt x="141" y="733" on="1"/>
        <pt x="176" y="733" on="0"/>
        <pt x="216" y="683" on="0"/>
        <pt x="216" y="648" on="1"/>
        <pt x="216" y="556" on="0"/>
        <pt x="114" y="482" on="1"/>
        <pt x="96" y="498" on="0"/>
      </contour>
      <contour>
        <pt x="275" y="516" on="1"/>
        <pt x="277" y="519" on="0"/>
        <pt x="295" y="536" on="0"/>
        <pt x="305" y="547" on="0"/>
        <pt x="318" y="564" on="0"/>
        <pt x="324" y="580" on="0"/>
        <pt x="324" y="587" on="1"/>
        <pt x="324" y="598" on="0"/>
        <pt x="274" y="645" on="0"/>
        <pt x="274" y="673" on="1"/>
        <pt x="274" y="698" on="0"/>
        <pt x="310" y="733" on="0"/>
        <pt x="336" y="733" on="1"/>
        <pt x="371" y="733" on="0"/>
        <pt x="411" y="683" on="0"/>
        <pt x="411" y="648" on="1"/>
        <pt x="411" y="556" on="0"/>
        <pt x="309" y="482" on="1"/>
        <pt x="291" y="498" on="0"/>
      </contour>
    </TTGlyph>
    <TTGlyph name="quoteleft" xMin="71" yMin="482" xMax="208" yMax="733">
      <contour>
        <pt x="173" y="733" on="1"/>
        <pt x="191" y="717" on="0"/>
        <pt x="207" y="699" on="1"/>
        <pt x="205" y="696" on="0"/>
        <pt x="187" y="679" on="0"/>
        <pt x="177" y="668" on="0"/>
        <pt x="164" y="651" on="0"/>
        <pt x="158" y="635" on="0"/>
        <pt x="158" y="628" on="1"/>
        <pt x="158" y="617" on="0"/>
        <pt x="208" y="570" on="0"/>
        <pt x="208" y="542" on="1"/>
        <pt x="208" y="517" on="0"/>
        <pt x="173" y="482" on="0"/>
        <pt x="147" y="482" on="1"/>
        <pt x="112" y="482" on="0"/>
        <pt x="71" y="532" on="0"/>
        <pt x="71" y="567" on="1"/>
        <pt x="71" y="659" on="0"/>
      </contour>
    </TTGlyph>
    <TTGlyph name="quoteright" xMin="75" yMin="482" xMax="212" yMax="733">
      <contour>
        <pt x="76" y="516" on="1"/>
        <pt x="78" y="519" on="0"/>
        <pt x="96" y="536" on="0"/>
        <pt x="106" y="547" on="0"/>
        <pt x="119" y="564" on="0"/>
        <pt x="125" y="580" on="0"/>
        <pt x="125" y="587" on="1"/>
        <pt x="125" y="598" on="0"/>
        <pt x="75" y="645" on="0"/>
        <pt x="75" y="673" on="1"/>
        <pt x="75" y="698" on="0"/>
        <pt x="111" y="733" on="0"/>
        <pt x="137" y="733" on="1"/>
        <pt x="172" y="733" on="0"/>
        <pt x="212" y="683" on="0"/>
        <pt x="212" y="648" on="1"/>
        <pt x="212" y="556" on="0"/>
        <pt x="110" y="482" on="1"/>
        <pt x="92" y="498" on="0"/>
      </contour>
    </TTGlyph>
    <TTGlyph name="quotesinglbase" xMin="69" yMin="-127" xMax="206" yMax="124">
      <component glyphName="comma" x="23" y="0" flags="0x4"/>
    </TTGlyph>
    <TTGlyph name="quotesingle" xMin="71" yMin="445" xMax="155" yMax="738">
      <contour>
        <pt x="127" y="445" on="1"/>
        <pt x="98" y="445" on="1"/>
        <pt x="97" y="448" on="0"/>
        <pt x="84" y="506" on="0"/>
        <pt x="71" y="559" on="0"/>
        <pt x="71" y="560" on="1"/>
        <pt x="71" y="738" on="1"/>
        <pt x="155" y="738" on="1"/>
        <pt x="155" y="560" on="1"/>
        <pt x="155" y="559" on="0"/>
        <pt x="142" y="506" on="0"/>
        <pt x="128" y="448" on="0"/>
      </contour>
    </TTGlyph>
    <TTGlyph name="r" xMin="49" yMin="0" xMax="325" yMax="506">
      <contour>
        <pt x="164" y="0" on="1"/>
        <pt x="81" y="0" on="1"/>
        <pt x="81" y="360" on="1"/>
        <pt x="81" y="448" on="0"/>
        <pt x="49" y="495" on="1"/>
        <pt x="139" y="506" on="1"/>
        <pt x="157" y="462" on="0"/>
        <pt x="162" y="413" on="1"/>
        <pt x="189" y="455" on="0"/>
        <pt x="277" y="506" on="0"/>
        <pt x="325" y="506" on="1"/>
        <pt x="305" y="418" on="1"/>
        <pt x="224" y="418" on="0"/>
        <pt x="164" y="330" on="1"/>
      </contour>
    </TTGlyph>
    <TTGlyph name="radical" xMin="-46" yMin="-230" xMax="647" yMax="948">
      <contour>
        <pt x="291" y="-230" on="1"/>
        <pt x="208" y="-230" on="1"/>
        <pt x="60" y="213" on="1"/>
        <pt x="-26" y="183" on="1"/>
        <pt x="-46" y="245" on="1"/>
        <pt x="117" y="303" on="1"/>
        <pt x="255" y="-112" on="1"/>
        <pt x="575" y="948" on="1"/>
        <pt x="647" y="948" on="1"/>
      </contour>
    </TTGlyph>
</ttFont>
